M48
;GenerationSoftware,Autodesk,EAGLE,9.6.2*%
;CreationDate,2023-08-21T03:02:39Z*%
FMAT,2
ICI,OFF
METRIC,TZ,000.000
T5C0.330
T4C0.350
T3C0.700
T2C0.813
T1C0.914
%
G90
M71
T1
X11557Y21082
X8954Y25273
X10033Y47942
X12573Y47942
X11493Y25273
X7493Y47942
X9017Y21082
T2
X2114Y36930
X24193Y46926
X24193Y41847
X24193Y44386
X24130Y23114
X24130Y18034
X2114Y49630
X2114Y47090
X2114Y44550
X2114Y42010
X2114Y39470
X2114Y3910
X2114Y34390
X2114Y31850
X2114Y29310
X2114Y26770
X2114Y24230
X2114Y21690
X2114Y19150
X2114Y16610
X2114Y14070
X2114Y11530
X2114Y8990
X2114Y6450
X2114Y1370
X17354Y1370
X17354Y3910
X17354Y6450
X17354Y8990
X17354Y11530
X17354Y14070
X17354Y16610
X17354Y19150
X17354Y21690
X17354Y24230
X17354Y26770
X17354Y29310
X17354Y31850
X17354Y34390
X17354Y36930
X17354Y39470
X17354Y42010
X17354Y44550
X17354Y47090
X17354Y49630
X24130Y20574
X24193Y34671
X24193Y29591
X24193Y32131
T3
X4463Y14070
X4463Y26770
X4463Y24230
X4463Y21690
X4463Y19150
X4463Y16610
X19703Y1370
X4463Y11530
X4463Y8990
X4463Y6450
X4463Y3910
X4463Y1370
X19703Y24230
X19703Y3910
X19703Y6450
X19703Y8990
X19703Y11530
X19703Y14070
X19703Y16610
X19703Y19150
X19703Y21690
X4463Y42010
X19703Y26770
X19703Y29310
X19703Y31850
X19703Y34390
X19703Y36930
X19703Y39470
X19703Y42010
X19703Y44550
X19703Y47090
X19703Y49630
X4463Y44550
X4463Y47090
X4463Y39470
X4463Y49630
X4463Y36930
X4463Y34390
X4463Y31850
X4463Y29310
T4
X13271Y32575
T5
X12802Y24079
X20269Y28194
X10478Y12319
X11887Y10363
X13716Y37643
X21907Y19177
X20726Y15850
M30