G04 EAGLE Gerber RS-274X export*
G75*
%MOMM*%
%FSLAX34Y34*%
%LPD*%
%INBottom Copper*%
%IPPOS*%
%AMOC8*
5,1,8,0,0,1.08239X$1,22.5*%
G01*
%ADD10C,0.203200*%
%ADD11R,1.219200X1.219200*%
%ADD12C,1.219200*%
%ADD13R,1.055600X1.055600*%
%ADD14C,1.055600*%
%ADD15C,0.177800*%
%ADD16R,13.652500X2.540000*%
%ADD17C,1.371600*%
%ADD18C,1.219200*%
%ADD19C,1.270000*%
%ADD20C,0.705600*%
%ADD21C,0.609600*%
%ADD22C,0.254000*%
%ADD23C,0.152400*%
%ADD24C,0.685800*%

G36*
X16424Y4329D02*
X16424Y4329D01*
X16552Y4343D01*
X16565Y4349D01*
X16579Y4351D01*
X16696Y4403D01*
X16814Y4452D01*
X16825Y4461D01*
X16838Y4467D01*
X16936Y4550D01*
X17036Y4630D01*
X17044Y4642D01*
X17055Y4650D01*
X17126Y4757D01*
X17200Y4862D01*
X17205Y4876D01*
X17213Y4887D01*
X17251Y5010D01*
X17293Y5131D01*
X17294Y5145D01*
X17298Y5158D01*
X17302Y5287D01*
X17308Y5415D01*
X17305Y5428D01*
X17306Y5442D01*
X17273Y5567D01*
X17244Y5692D01*
X17237Y5704D01*
X17234Y5717D01*
X17168Y5828D01*
X17105Y5940D01*
X17096Y5949D01*
X17089Y5962D01*
X16881Y6156D01*
X16869Y6162D01*
X16861Y6170D01*
X15632Y6991D01*
X14429Y8194D01*
X13484Y9609D01*
X12833Y11181D01*
X12736Y11669D01*
X20121Y11669D01*
X20179Y11677D01*
X20238Y11675D01*
X20319Y11697D01*
X20403Y11709D01*
X20456Y11733D01*
X20513Y11747D01*
X20585Y11790D01*
X20662Y11825D01*
X20707Y11863D01*
X20757Y11893D01*
X20815Y11954D01*
X20879Y12009D01*
X20912Y12057D01*
X20952Y12100D01*
X20990Y12175D01*
X21037Y12245D01*
X21055Y12301D01*
X21081Y12353D01*
X21093Y12421D01*
X21123Y12516D01*
X21125Y12616D01*
X21137Y12684D01*
X21137Y13701D01*
X21138Y13701D01*
X21138Y12684D01*
X21147Y12626D01*
X21145Y12568D01*
X21166Y12486D01*
X21178Y12403D01*
X21202Y12349D01*
X21217Y12293D01*
X21260Y12220D01*
X21294Y12143D01*
X21332Y12098D01*
X21362Y12048D01*
X21424Y11990D01*
X21478Y11926D01*
X21527Y11894D01*
X21569Y11854D01*
X21645Y11815D01*
X21715Y11769D01*
X21771Y11751D01*
X21823Y11724D01*
X21891Y11713D01*
X21986Y11683D01*
X22086Y11680D01*
X22154Y11669D01*
X29539Y11669D01*
X29442Y11181D01*
X28791Y9609D01*
X27846Y8194D01*
X26643Y6991D01*
X25414Y6170D01*
X25318Y6084D01*
X25220Y6001D01*
X25212Y5990D01*
X25202Y5981D01*
X25134Y5872D01*
X25062Y5765D01*
X25058Y5752D01*
X25051Y5740D01*
X25015Y5616D01*
X24977Y5494D01*
X24976Y5480D01*
X24973Y5467D01*
X24973Y5338D01*
X24969Y5210D01*
X24973Y5196D01*
X24973Y5182D01*
X25009Y5059D01*
X25041Y4935D01*
X25048Y4923D01*
X25052Y4909D01*
X25121Y4801D01*
X25186Y4690D01*
X25197Y4681D01*
X25204Y4669D01*
X25300Y4584D01*
X25394Y4496D01*
X25406Y4489D01*
X25417Y4480D01*
X25532Y4425D01*
X25647Y4366D01*
X25659Y4364D01*
X25673Y4358D01*
X25954Y4311D01*
X25967Y4313D01*
X25978Y4311D01*
X41765Y4311D01*
X41850Y4323D01*
X41936Y4325D01*
X41990Y4343D01*
X42046Y4351D01*
X42125Y4386D01*
X42207Y4412D01*
X42254Y4444D01*
X42306Y4467D01*
X42371Y4522D01*
X42443Y4570D01*
X42479Y4614D01*
X42523Y4650D01*
X42570Y4722D01*
X42626Y4788D01*
X42649Y4840D01*
X42680Y4887D01*
X42706Y4969D01*
X42741Y5048D01*
X42749Y5104D01*
X42766Y5158D01*
X42768Y5244D01*
X42780Y5329D01*
X42772Y5385D01*
X42773Y5442D01*
X42752Y5525D01*
X42739Y5611D01*
X42716Y5662D01*
X42702Y5717D01*
X42658Y5791D01*
X42622Y5870D01*
X42585Y5913D01*
X42556Y5962D01*
X42494Y6021D01*
X42438Y6086D01*
X42396Y6112D01*
X42349Y6156D01*
X42220Y6222D01*
X42153Y6264D01*
X40929Y6771D01*
X39648Y7627D01*
X38559Y8716D01*
X37704Y9997D01*
X37114Y11419D01*
X37009Y11951D01*
X43898Y11951D01*
X43956Y11959D01*
X44015Y11957D01*
X44096Y11979D01*
X44180Y11991D01*
X44233Y12014D01*
X44290Y12029D01*
X44362Y12072D01*
X44439Y12107D01*
X44484Y12145D01*
X44534Y12174D01*
X44592Y12236D01*
X44636Y12273D01*
X44637Y12272D01*
X44691Y12208D01*
X44740Y12176D01*
X44783Y12136D01*
X44858Y12097D01*
X44928Y12050D01*
X44984Y12033D01*
X45036Y12006D01*
X45104Y11995D01*
X45199Y11965D01*
X45299Y11962D01*
X45367Y11951D01*
X52256Y11951D01*
X52151Y11419D01*
X51561Y9997D01*
X50706Y8716D01*
X49617Y7627D01*
X48336Y6771D01*
X47112Y6264D01*
X47038Y6220D01*
X46959Y6185D01*
X46916Y6148D01*
X46867Y6119D01*
X46808Y6057D01*
X46742Y6001D01*
X46711Y5954D01*
X46672Y5913D01*
X46632Y5836D01*
X46585Y5765D01*
X46567Y5711D01*
X46541Y5660D01*
X46525Y5576D01*
X46499Y5494D01*
X46497Y5437D01*
X46486Y5381D01*
X46494Y5296D01*
X46492Y5210D01*
X46506Y5155D01*
X46511Y5098D01*
X46542Y5018D01*
X46563Y4935D01*
X46592Y4886D01*
X46613Y4833D01*
X46665Y4764D01*
X46709Y4690D01*
X46750Y4651D01*
X46784Y4606D01*
X46853Y4554D01*
X46916Y4496D01*
X46967Y4470D01*
X47012Y4436D01*
X47092Y4405D01*
X47169Y4366D01*
X47218Y4358D01*
X47278Y4335D01*
X47423Y4324D01*
X47500Y4311D01*
X98362Y4311D01*
X98419Y4319D01*
X98478Y4317D01*
X98559Y4339D01*
X98643Y4351D01*
X98696Y4374D01*
X98753Y4389D01*
X98825Y4432D01*
X98902Y4467D01*
X98947Y4505D01*
X98997Y4534D01*
X99055Y4596D01*
X99119Y4650D01*
X99152Y4699D01*
X99192Y4742D01*
X99230Y4817D01*
X99277Y4887D01*
X99295Y4943D01*
X99321Y4995D01*
X99333Y5063D01*
X99363Y5158D01*
X99365Y5258D01*
X99377Y5326D01*
X99377Y23495D01*
X99377Y23496D01*
X145415Y23496D01*
X145416Y23495D01*
X145416Y5326D01*
X145424Y5268D01*
X145422Y5210D01*
X145444Y5128D01*
X145456Y5044D01*
X145479Y4991D01*
X145494Y4935D01*
X145537Y4862D01*
X145572Y4785D01*
X145610Y4740D01*
X145639Y4690D01*
X145701Y4632D01*
X145755Y4568D01*
X145804Y4536D01*
X145847Y4496D01*
X145922Y4457D01*
X145992Y4410D01*
X146048Y4393D01*
X146100Y4366D01*
X146168Y4355D01*
X146263Y4325D01*
X146363Y4322D01*
X146431Y4311D01*
X170524Y4311D01*
X170609Y4323D01*
X170695Y4325D01*
X170749Y4343D01*
X170805Y4351D01*
X170883Y4386D01*
X170965Y4412D01*
X171013Y4444D01*
X171064Y4467D01*
X171130Y4522D01*
X171201Y4570D01*
X171238Y4614D01*
X171281Y4650D01*
X171329Y4722D01*
X171384Y4788D01*
X171408Y4840D01*
X171439Y4887D01*
X171465Y4969D01*
X171500Y5048D01*
X171508Y5104D01*
X171525Y5158D01*
X171527Y5244D01*
X171539Y5329D01*
X171531Y5385D01*
X171532Y5442D01*
X171510Y5525D01*
X171498Y5611D01*
X171475Y5662D01*
X171460Y5717D01*
X171416Y5791D01*
X171381Y5870D01*
X171344Y5913D01*
X171315Y5962D01*
X171252Y6021D01*
X171197Y6086D01*
X171155Y6112D01*
X171108Y6156D01*
X170979Y6222D01*
X170912Y6264D01*
X169077Y7024D01*
X166862Y9239D01*
X165663Y12134D01*
X165663Y15266D01*
X166862Y18161D01*
X169077Y20376D01*
X171971Y21575D01*
X198599Y21575D01*
X201493Y20376D01*
X203708Y18161D01*
X204907Y15266D01*
X204907Y12134D01*
X203708Y9239D01*
X201493Y7024D01*
X199658Y6264D01*
X199584Y6220D01*
X199506Y6185D01*
X199462Y6148D01*
X199413Y6119D01*
X199354Y6057D01*
X199289Y6001D01*
X199257Y5954D01*
X199218Y5913D01*
X199179Y5836D01*
X199131Y5765D01*
X199114Y5711D01*
X199088Y5660D01*
X199071Y5576D01*
X199045Y5494D01*
X199044Y5437D01*
X199033Y5381D01*
X199040Y5296D01*
X199038Y5210D01*
X199052Y5155D01*
X199057Y5098D01*
X199088Y5017D01*
X199110Y4935D01*
X199139Y4886D01*
X199159Y4833D01*
X199211Y4764D01*
X199255Y4690D01*
X199296Y4651D01*
X199331Y4606D01*
X199400Y4554D01*
X199462Y4496D01*
X199513Y4470D01*
X199558Y4436D01*
X199639Y4405D01*
X199715Y4366D01*
X199764Y4358D01*
X199824Y4335D01*
X199969Y4324D01*
X200046Y4311D01*
X216544Y4311D01*
X216573Y4315D01*
X216602Y4312D01*
X216713Y4335D01*
X216825Y4351D01*
X216852Y4363D01*
X216881Y4368D01*
X216981Y4421D01*
X217085Y4467D01*
X217107Y4486D01*
X217133Y4499D01*
X217215Y4577D01*
X217302Y4650D01*
X217318Y4675D01*
X217339Y4695D01*
X217396Y4793D01*
X217459Y4887D01*
X217468Y4915D01*
X217483Y4940D01*
X217511Y5050D01*
X217545Y5158D01*
X217546Y5188D01*
X217553Y5216D01*
X217549Y5329D01*
X217552Y5442D01*
X217545Y5471D01*
X217544Y5500D01*
X217509Y5608D01*
X217480Y5717D01*
X217465Y5743D01*
X217456Y5771D01*
X217411Y5835D01*
X217335Y5962D01*
X217289Y6005D01*
X217261Y6044D01*
X216280Y7025D01*
X216280Y14468D01*
X216798Y14986D01*
X216833Y15033D01*
X216875Y15073D01*
X216918Y15146D01*
X216969Y15213D01*
X216990Y15268D01*
X217019Y15318D01*
X217040Y15400D01*
X217070Y15479D01*
X217075Y15537D01*
X217089Y15594D01*
X217087Y15678D01*
X217094Y15762D01*
X217082Y15820D01*
X217080Y15878D01*
X217054Y15958D01*
X217038Y16041D01*
X217011Y16093D01*
X216993Y16149D01*
X216953Y16205D01*
X216907Y16293D01*
X216838Y16366D01*
X216798Y16422D01*
X216280Y16940D01*
X216280Y19044D01*
X217769Y20533D01*
X220604Y20533D01*
X220661Y20541D01*
X220720Y20539D01*
X220802Y20561D01*
X220885Y20573D01*
X220938Y20596D01*
X220995Y20611D01*
X221067Y20654D01*
X221144Y20689D01*
X221189Y20727D01*
X221239Y20756D01*
X221297Y20818D01*
X221361Y20872D01*
X221394Y20921D01*
X221434Y20964D01*
X221472Y21039D01*
X221519Y21109D01*
X221537Y21165D01*
X221563Y21217D01*
X221575Y21285D01*
X221605Y21380D01*
X221607Y21480D01*
X221619Y21548D01*
X221619Y22603D01*
X223107Y24092D01*
X225212Y24092D01*
X225224Y24079D01*
X225248Y24062D01*
X225267Y24039D01*
X225361Y23977D01*
X225451Y23909D01*
X225479Y23898D01*
X225503Y23882D01*
X225612Y23848D01*
X225717Y23807D01*
X225746Y23805D01*
X225774Y23796D01*
X225887Y23793D01*
X226000Y23784D01*
X226029Y23790D01*
X226058Y23789D01*
X226168Y23817D01*
X226279Y23840D01*
X226305Y23853D01*
X226334Y23861D01*
X226431Y23918D01*
X226531Y23971D01*
X226553Y23991D01*
X226578Y24006D01*
X226655Y24088D01*
X226738Y24166D01*
X226752Y24192D01*
X226772Y24213D01*
X226824Y24314D01*
X226881Y24412D01*
X226889Y24440D01*
X226902Y24466D01*
X226915Y24544D01*
X226951Y24687D01*
X226949Y24750D01*
X226957Y24797D01*
X226957Y26130D01*
X226949Y26188D01*
X226951Y26246D01*
X226929Y26328D01*
X226918Y26411D01*
X226894Y26465D01*
X226879Y26521D01*
X226836Y26594D01*
X226801Y26671D01*
X226764Y26716D01*
X226734Y26766D01*
X226672Y26824D01*
X226618Y26888D01*
X226569Y26920D01*
X226526Y26960D01*
X226451Y26999D01*
X226381Y27045D01*
X226325Y27063D01*
X226273Y27090D01*
X226205Y27101D01*
X226110Y27131D01*
X226010Y27134D01*
X225942Y27145D01*
X224887Y27145D01*
X223404Y28627D01*
X223335Y28680D01*
X223271Y28740D01*
X223221Y28765D01*
X223177Y28798D01*
X223096Y28829D01*
X223018Y28869D01*
X222970Y28877D01*
X222912Y28899D01*
X222764Y28912D01*
X222687Y28925D01*
X222073Y28925D01*
X221987Y28912D01*
X221899Y28910D01*
X221847Y28893D01*
X221792Y28885D01*
X221712Y28849D01*
X221629Y28822D01*
X221590Y28794D01*
X221533Y28769D01*
X221419Y28673D01*
X221356Y28627D01*
X219873Y27145D01*
X217769Y27145D01*
X216280Y28633D01*
X216280Y34297D01*
X216628Y34646D01*
X216664Y34692D01*
X216706Y34733D01*
X216749Y34805D01*
X216799Y34873D01*
X216820Y34927D01*
X216850Y34978D01*
X216870Y35059D01*
X216901Y35138D01*
X216905Y35197D01*
X216920Y35253D01*
X216917Y35338D01*
X216924Y35422D01*
X216913Y35479D01*
X216911Y35537D01*
X216885Y35618D01*
X216868Y35700D01*
X216841Y35752D01*
X216823Y35808D01*
X216783Y35864D01*
X216737Y35953D01*
X216668Y36025D01*
X216628Y36081D01*
X216280Y36429D01*
X216280Y38534D01*
X218069Y40323D01*
X218104Y40370D01*
X218147Y40410D01*
X218189Y40483D01*
X218240Y40550D01*
X218261Y40605D01*
X218290Y40655D01*
X218311Y40737D01*
X218341Y40816D01*
X218346Y40874D01*
X218360Y40931D01*
X218358Y41015D01*
X218365Y41099D01*
X218353Y41157D01*
X218351Y41215D01*
X218325Y41295D01*
X218309Y41378D01*
X218282Y41430D01*
X218264Y41485D01*
X218224Y41542D01*
X218178Y41630D01*
X218109Y41703D01*
X218069Y41759D01*
X216280Y43548D01*
X216280Y45652D01*
X217769Y47141D01*
X219873Y47141D01*
X219886Y47128D01*
X219909Y47111D01*
X219928Y47088D01*
X220022Y47026D01*
X220113Y46958D01*
X220140Y46947D01*
X220165Y46931D01*
X220273Y46897D01*
X220378Y46856D01*
X220408Y46854D01*
X220436Y46845D01*
X220549Y46842D01*
X220662Y46833D01*
X220691Y46838D01*
X220720Y46838D01*
X220829Y46866D01*
X220941Y46889D01*
X220967Y46902D01*
X220995Y46910D01*
X221092Y46967D01*
X221193Y47020D01*
X221214Y47040D01*
X221239Y47055D01*
X221317Y47137D01*
X221399Y47215D01*
X221414Y47241D01*
X221434Y47262D01*
X221485Y47363D01*
X221543Y47461D01*
X221550Y47489D01*
X221563Y47515D01*
X221576Y47592D01*
X221613Y47736D01*
X221611Y47799D01*
X221619Y47846D01*
X221619Y49179D01*
X221611Y49237D01*
X221612Y49295D01*
X221591Y49377D01*
X221579Y49460D01*
X221555Y49514D01*
X221540Y49570D01*
X221497Y49643D01*
X221463Y49720D01*
X221425Y49764D01*
X221395Y49815D01*
X221334Y49872D01*
X221279Y49937D01*
X221230Y49969D01*
X221188Y50009D01*
X221113Y50048D01*
X221042Y50094D01*
X220987Y50112D01*
X220935Y50139D01*
X220867Y50150D01*
X220771Y50180D01*
X220672Y50183D01*
X220604Y50194D01*
X219548Y50194D01*
X218060Y51682D01*
X218060Y53787D01*
X219548Y55276D01*
X220604Y55276D01*
X220661Y55284D01*
X220720Y55282D01*
X220802Y55304D01*
X220885Y55315D01*
X220938Y55339D01*
X220995Y55354D01*
X221067Y55397D01*
X221144Y55432D01*
X221189Y55470D01*
X221239Y55499D01*
X221297Y55561D01*
X221361Y55615D01*
X221394Y55664D01*
X221434Y55707D01*
X221472Y55782D01*
X221519Y55852D01*
X221537Y55908D01*
X221563Y55960D01*
X221575Y56028D01*
X221605Y56123D01*
X221607Y56223D01*
X221619Y56291D01*
X221619Y57617D01*
X221607Y57704D01*
X221604Y57791D01*
X221587Y57844D01*
X221579Y57899D01*
X221543Y57979D01*
X221516Y58062D01*
X221488Y58101D01*
X221463Y58158D01*
X221367Y58272D01*
X221321Y58335D01*
X216280Y63376D01*
X216280Y65481D01*
X219089Y68290D01*
X219107Y68313D01*
X219129Y68332D01*
X219192Y68427D01*
X219260Y68517D01*
X219270Y68545D01*
X219287Y68569D01*
X219321Y68677D01*
X219361Y68783D01*
X219363Y68812D01*
X219372Y68840D01*
X219375Y68953D01*
X219385Y69066D01*
X219379Y69095D01*
X219380Y69124D01*
X219351Y69234D01*
X219329Y69345D01*
X219315Y69371D01*
X219308Y69399D01*
X219250Y69497D01*
X219198Y69597D01*
X219178Y69618D01*
X219163Y69644D01*
X219080Y69721D01*
X219002Y69803D01*
X218977Y69818D01*
X218955Y69838D01*
X218854Y69890D01*
X218757Y69947D01*
X218728Y69954D01*
X218702Y69968D01*
X218625Y69981D01*
X218481Y70017D01*
X218419Y70015D01*
X218371Y70023D01*
X217769Y70023D01*
X216280Y71511D01*
X216280Y77175D01*
X217518Y78413D01*
X217553Y78460D01*
X217596Y78500D01*
X217638Y78573D01*
X217689Y78640D01*
X217710Y78695D01*
X217739Y78745D01*
X217760Y78827D01*
X217790Y78906D01*
X217795Y78964D01*
X217810Y79021D01*
X217807Y79105D01*
X217814Y79189D01*
X217802Y79247D01*
X217801Y79305D01*
X217775Y79385D01*
X217758Y79468D01*
X217731Y79520D01*
X217713Y79576D01*
X217673Y79632D01*
X217627Y79720D01*
X217558Y79793D01*
X217518Y79849D01*
X216280Y81087D01*
X216280Y86751D01*
X219548Y90019D01*
X220604Y90019D01*
X220661Y90027D01*
X220720Y90025D01*
X220802Y90047D01*
X220885Y90058D01*
X220938Y90082D01*
X220995Y90097D01*
X221067Y90140D01*
X221144Y90175D01*
X221189Y90212D01*
X221239Y90242D01*
X221297Y90304D01*
X221361Y90358D01*
X221394Y90407D01*
X221434Y90450D01*
X221472Y90525D01*
X221519Y90595D01*
X221537Y90651D01*
X221563Y90703D01*
X221575Y90771D01*
X221605Y90866D01*
X221607Y90966D01*
X221619Y91034D01*
X221619Y100501D01*
X221615Y100530D01*
X221617Y100560D01*
X221595Y100671D01*
X221579Y100783D01*
X221567Y100810D01*
X221561Y100838D01*
X221509Y100939D01*
X221463Y101042D01*
X221444Y101065D01*
X221430Y101091D01*
X221352Y101173D01*
X221279Y101259D01*
X221255Y101276D01*
X221234Y101297D01*
X221137Y101354D01*
X221042Y101417D01*
X221014Y101426D01*
X220989Y101441D01*
X220879Y101469D01*
X220771Y101503D01*
X220742Y101503D01*
X220714Y101511D01*
X220600Y101507D01*
X220487Y101510D01*
X220459Y101503D01*
X220429Y101502D01*
X220322Y101467D01*
X220212Y101438D01*
X220187Y101423D01*
X220159Y101414D01*
X220095Y101369D01*
X219968Y101293D01*
X219925Y101247D01*
X219886Y101219D01*
X219873Y101207D01*
X217769Y101207D01*
X216280Y102695D01*
X216280Y110139D01*
X218577Y112436D01*
X218613Y112483D01*
X218655Y112523D01*
X218698Y112596D01*
X218748Y112663D01*
X218769Y112718D01*
X218799Y112768D01*
X218820Y112850D01*
X218850Y112929D01*
X218854Y112987D01*
X218869Y113044D01*
X218866Y113128D01*
X218873Y113212D01*
X218862Y113269D01*
X218860Y113328D01*
X218834Y113408D01*
X218817Y113491D01*
X218790Y113543D01*
X218772Y113598D01*
X218732Y113655D01*
X218686Y113743D01*
X218618Y113815D01*
X218577Y113872D01*
X217762Y114687D01*
X216280Y116169D01*
X216280Y121833D01*
X217688Y123240D01*
X217723Y123287D01*
X217765Y123327D01*
X217808Y123400D01*
X217859Y123467D01*
X217879Y123522D01*
X217909Y123572D01*
X217930Y123654D01*
X217960Y123733D01*
X217965Y123791D01*
X217979Y123848D01*
X217976Y123932D01*
X217983Y124016D01*
X217972Y124073D01*
X217970Y124132D01*
X217944Y124212D01*
X217927Y124295D01*
X217901Y124347D01*
X217883Y124403D01*
X217842Y124459D01*
X217797Y124547D01*
X217728Y124620D01*
X217688Y124676D01*
X216280Y126083D01*
X216280Y131747D01*
X217518Y132985D01*
X217553Y133032D01*
X217596Y133072D01*
X217638Y133145D01*
X217689Y133212D01*
X217710Y133267D01*
X217739Y133317D01*
X217760Y133399D01*
X217790Y133478D01*
X217795Y133536D01*
X217810Y133593D01*
X217807Y133677D01*
X217814Y133761D01*
X217802Y133818D01*
X217801Y133877D01*
X217775Y133957D01*
X217758Y134040D01*
X217731Y134092D01*
X217713Y134147D01*
X217673Y134204D01*
X217627Y134292D01*
X217558Y134365D01*
X217518Y134421D01*
X216280Y135659D01*
X216280Y141323D01*
X217769Y142811D01*
X218371Y142811D01*
X218400Y142815D01*
X218429Y142813D01*
X218540Y142835D01*
X218653Y142851D01*
X218679Y142863D01*
X218708Y142868D01*
X218809Y142921D01*
X218912Y142967D01*
X218934Y142986D01*
X218960Y142999D01*
X219043Y143078D01*
X219129Y143151D01*
X219145Y143175D01*
X219166Y143195D01*
X219224Y143293D01*
X219287Y143387D01*
X219295Y143415D01*
X219310Y143441D01*
X219338Y143550D01*
X219372Y143658D01*
X219373Y143688D01*
X219380Y143716D01*
X219377Y143829D01*
X219380Y143943D01*
X219372Y143971D01*
X219371Y144000D01*
X219336Y144108D01*
X219308Y144218D01*
X219293Y144243D01*
X219284Y144271D01*
X219238Y144335D01*
X219163Y144462D01*
X219117Y144505D01*
X219089Y144544D01*
X218066Y145567D01*
X216280Y147353D01*
X216280Y154796D01*
X217769Y156284D01*
X218371Y156284D01*
X218400Y156289D01*
X218429Y156286D01*
X218540Y156308D01*
X218653Y156324D01*
X218679Y156336D01*
X218708Y156342D01*
X218809Y156394D01*
X218912Y156440D01*
X218934Y156459D01*
X218960Y156473D01*
X219042Y156551D01*
X219129Y156624D01*
X219145Y156648D01*
X219166Y156669D01*
X219224Y156767D01*
X219287Y156861D01*
X219295Y156889D01*
X219310Y156914D01*
X219338Y157024D01*
X219372Y157132D01*
X219373Y157161D01*
X219380Y157190D01*
X219377Y157303D01*
X219380Y157416D01*
X219372Y157444D01*
X219371Y157474D01*
X219336Y157582D01*
X219308Y157691D01*
X219293Y157716D01*
X219284Y157744D01*
X219238Y157808D01*
X219163Y157935D01*
X219117Y157978D01*
X219089Y158018D01*
X218539Y158567D01*
X217762Y159344D01*
X216280Y160826D01*
X216280Y162931D01*
X217769Y164419D01*
X219873Y164419D01*
X221356Y162937D01*
X221425Y162885D01*
X221489Y162825D01*
X221539Y162800D01*
X221583Y162766D01*
X221665Y162735D01*
X221742Y162695D01*
X221790Y162687D01*
X221848Y162665D01*
X221996Y162653D01*
X222073Y162640D01*
X222687Y162640D01*
X222773Y162652D01*
X222861Y162655D01*
X222913Y162672D01*
X222968Y162680D01*
X223048Y162715D01*
X223131Y162742D01*
X223170Y162770D01*
X223227Y162796D01*
X223341Y162892D01*
X223404Y162937D01*
X224887Y164419D01*
X226992Y164419D01*
X228777Y162634D01*
X230259Y161151D01*
X230259Y159047D01*
X228474Y157261D01*
X227962Y156750D01*
X227927Y156703D01*
X227885Y156662D01*
X227842Y156590D01*
X227791Y156522D01*
X227770Y156468D01*
X227741Y156417D01*
X227720Y156335D01*
X227690Y156257D01*
X227685Y156198D01*
X227671Y156142D01*
X227673Y156058D01*
X227666Y155973D01*
X227678Y155916D01*
X227680Y155858D01*
X227706Y155777D01*
X227722Y155695D01*
X227749Y155643D01*
X227767Y155587D01*
X227807Y155531D01*
X227853Y155442D01*
X227922Y155370D01*
X227962Y155314D01*
X228480Y154796D01*
X228480Y147353D01*
X226998Y145871D01*
X226183Y145056D01*
X226147Y145009D01*
X226105Y144969D01*
X226062Y144896D01*
X226012Y144828D01*
X225991Y144774D01*
X225961Y144723D01*
X225941Y144642D01*
X225911Y144563D01*
X225906Y144504D01*
X225891Y144448D01*
X225894Y144363D01*
X225887Y144279D01*
X225898Y144222D01*
X225900Y144164D01*
X225926Y144083D01*
X225943Y144001D01*
X225970Y143949D01*
X225988Y143893D01*
X226028Y143837D01*
X226074Y143748D01*
X226143Y143676D01*
X226183Y143620D01*
X226998Y142805D01*
X228480Y141323D01*
X228480Y135659D01*
X226694Y133873D01*
X226010Y133189D01*
X225992Y133166D01*
X225970Y133147D01*
X225907Y133052D01*
X225839Y132962D01*
X225829Y132934D01*
X225812Y132910D01*
X225778Y132802D01*
X225738Y132696D01*
X225736Y132667D01*
X225727Y132639D01*
X225724Y132526D01*
X225714Y132413D01*
X225720Y132384D01*
X225719Y132355D01*
X225748Y132245D01*
X225770Y132134D01*
X225784Y132108D01*
X225791Y132080D01*
X225849Y131983D01*
X225901Y131882D01*
X225922Y131861D01*
X225936Y131835D01*
X226019Y131758D01*
X226097Y131676D01*
X226122Y131661D01*
X226144Y131641D01*
X226245Y131589D01*
X226342Y131532D01*
X226371Y131525D01*
X226397Y131511D01*
X226474Y131498D01*
X226618Y131462D01*
X226680Y131464D01*
X226728Y131456D01*
X230551Y131456D01*
X232039Y129968D01*
X232039Y126083D01*
X230551Y124595D01*
X228169Y124595D01*
X228139Y124591D01*
X228110Y124593D01*
X227999Y124571D01*
X227887Y124555D01*
X227860Y124543D01*
X227832Y124537D01*
X227731Y124485D01*
X227628Y124439D01*
X227605Y124420D01*
X227579Y124406D01*
X227497Y124328D01*
X227411Y124255D01*
X227394Y124231D01*
X227373Y124211D01*
X227316Y124113D01*
X227253Y124019D01*
X227244Y123990D01*
X227229Y123965D01*
X227202Y123856D01*
X227167Y123748D01*
X227167Y123718D01*
X227159Y123690D01*
X227163Y123577D01*
X227160Y123463D01*
X227167Y123435D01*
X227168Y123406D01*
X227203Y123298D01*
X227232Y123188D01*
X227247Y123163D01*
X227256Y123135D01*
X227301Y123071D01*
X227377Y122944D01*
X227423Y122901D01*
X227451Y122862D01*
X228480Y121833D01*
X228480Y116169D01*
X227072Y114761D01*
X227037Y114715D01*
X226995Y114674D01*
X226952Y114602D01*
X226901Y114534D01*
X226881Y114479D01*
X226851Y114429D01*
X226830Y114348D01*
X226800Y114269D01*
X226795Y114210D01*
X226781Y114154D01*
X226784Y114069D01*
X226777Y113985D01*
X226788Y113928D01*
X226790Y113869D01*
X226816Y113789D01*
X226833Y113706D01*
X226860Y113655D01*
X226878Y113599D01*
X226918Y113543D01*
X226964Y113454D01*
X227032Y113382D01*
X227072Y113326D01*
X228480Y111918D01*
X228480Y104475D01*
X226694Y102689D01*
X226183Y102178D01*
X226147Y102131D01*
X226105Y102091D01*
X226062Y102018D01*
X226012Y101950D01*
X225991Y101896D01*
X225961Y101845D01*
X225941Y101764D01*
X225911Y101685D01*
X225906Y101626D01*
X225891Y101570D01*
X225894Y101486D01*
X225887Y101402D01*
X225898Y101344D01*
X225900Y101286D01*
X225926Y101205D01*
X225943Y101123D01*
X225970Y101071D01*
X225988Y101015D01*
X226028Y100959D01*
X226074Y100870D01*
X226143Y100798D01*
X226183Y100742D01*
X226700Y100224D01*
X226700Y91034D01*
X226708Y90976D01*
X226707Y90917D01*
X226728Y90836D01*
X226740Y90752D01*
X226764Y90699D01*
X226779Y90642D01*
X226822Y90570D01*
X226856Y90493D01*
X226894Y90448D01*
X226924Y90398D01*
X226986Y90340D01*
X227040Y90276D01*
X227089Y90244D01*
X227131Y90203D01*
X227206Y90165D01*
X227277Y90118D01*
X227332Y90101D01*
X227384Y90074D01*
X227453Y90063D01*
X227548Y90033D01*
X227647Y90030D01*
X227716Y90019D01*
X228771Y90019D01*
X230253Y88536D01*
X231067Y87722D01*
X232039Y86751D01*
X232039Y81087D01*
X231030Y80078D01*
X230801Y79849D01*
X230766Y79802D01*
X230723Y79762D01*
X230681Y79689D01*
X230630Y79622D01*
X230609Y79567D01*
X230580Y79517D01*
X230559Y79435D01*
X230529Y79356D01*
X230524Y79298D01*
X230510Y79241D01*
X230512Y79157D01*
X230505Y79073D01*
X230517Y79015D01*
X230519Y78957D01*
X230545Y78877D01*
X230561Y78794D01*
X230588Y78742D01*
X230606Y78686D01*
X230646Y78630D01*
X230692Y78542D01*
X230761Y78469D01*
X230801Y78413D01*
X232039Y77175D01*
X232039Y71511D01*
X231521Y70994D01*
X231512Y70981D01*
X231507Y70977D01*
X231494Y70958D01*
X231486Y70947D01*
X231444Y70907D01*
X231401Y70834D01*
X231350Y70767D01*
X231329Y70712D01*
X231300Y70661D01*
X231279Y70580D01*
X231249Y70501D01*
X231244Y70443D01*
X231230Y70386D01*
X231233Y70302D01*
X231226Y70218D01*
X231237Y70160D01*
X231239Y70102D01*
X231265Y70021D01*
X231281Y69939D01*
X231308Y69887D01*
X231326Y69831D01*
X231366Y69775D01*
X231412Y69687D01*
X231481Y69614D01*
X231521Y69558D01*
X232039Y69040D01*
X232039Y66935D01*
X230551Y65447D01*
X223853Y65447D01*
X223806Y65441D01*
X223786Y65442D01*
X223749Y65434D01*
X223679Y65432D01*
X223626Y65415D01*
X223571Y65407D01*
X223532Y65390D01*
X223508Y65385D01*
X223469Y65364D01*
X223408Y65345D01*
X223369Y65317D01*
X223312Y65291D01*
X223283Y65267D01*
X223256Y65253D01*
X223190Y65189D01*
X223135Y65150D01*
X223132Y65147D01*
X223115Y65125D01*
X223095Y65107D01*
X223077Y65081D01*
X223051Y65056D01*
X223010Y64985D01*
X222961Y64920D01*
X222949Y64889D01*
X222937Y64871D01*
X222929Y64845D01*
X222909Y64810D01*
X222889Y64730D01*
X222860Y64654D01*
X222857Y64616D01*
X222852Y64600D01*
X222851Y64578D01*
X222840Y64534D01*
X222843Y64452D01*
X222836Y64371D01*
X222845Y64329D01*
X222844Y64316D01*
X222845Y64315D01*
X222844Y64309D01*
X222849Y64292D01*
X222851Y64250D01*
X222876Y64172D01*
X222892Y64092D01*
X222910Y64057D01*
X222916Y64034D01*
X222928Y64015D01*
X222939Y63980D01*
X222979Y63925D01*
X223023Y63840D01*
X223047Y63815D01*
X223061Y63790D01*
X223107Y63748D01*
X223136Y63707D01*
X223139Y63704D01*
X223183Y63671D01*
X223219Y63633D01*
X223244Y63619D01*
X223269Y63595D01*
X223320Y63569D01*
X223367Y63535D01*
X223425Y63513D01*
X223464Y63490D01*
X223487Y63484D01*
X223522Y63466D01*
X223572Y63458D01*
X223633Y63435D01*
X223702Y63429D01*
X223740Y63420D01*
X223790Y63421D01*
X223853Y63411D01*
X230551Y63411D01*
X232039Y61922D01*
X232039Y59817D01*
X230551Y58329D01*
X227716Y58329D01*
X227658Y58321D01*
X227599Y58322D01*
X227518Y58301D01*
X227434Y58289D01*
X227381Y58265D01*
X227324Y58251D01*
X227252Y58208D01*
X227175Y58173D01*
X227130Y58135D01*
X227080Y58105D01*
X227022Y58044D01*
X226958Y57989D01*
X226925Y57941D01*
X226885Y57898D01*
X226847Y57823D01*
X226800Y57753D01*
X226782Y57697D01*
X226756Y57645D01*
X226744Y57577D01*
X226714Y57482D01*
X226712Y57382D01*
X226700Y57314D01*
X226700Y56291D01*
X226708Y56233D01*
X226707Y56175D01*
X226728Y56093D01*
X226740Y56009D01*
X226764Y55956D01*
X226779Y55899D01*
X226822Y55827D01*
X226856Y55750D01*
X226894Y55705D01*
X226924Y55655D01*
X226986Y55597D01*
X227040Y55533D01*
X227089Y55501D01*
X227131Y55461D01*
X227206Y55422D01*
X227277Y55375D01*
X227332Y55358D01*
X227384Y55331D01*
X227453Y55320D01*
X227548Y55290D01*
X227647Y55287D01*
X227716Y55276D01*
X228771Y55276D01*
X230259Y53787D01*
X230259Y51682D01*
X228771Y50194D01*
X227716Y50194D01*
X227658Y50186D01*
X227599Y50187D01*
X227518Y50166D01*
X227434Y50154D01*
X227381Y50130D01*
X227324Y50116D01*
X227252Y50073D01*
X227175Y50038D01*
X227130Y50000D01*
X227080Y49970D01*
X227022Y49909D01*
X226958Y49854D01*
X226925Y49806D01*
X226885Y49763D01*
X226847Y49688D01*
X226800Y49618D01*
X226782Y49562D01*
X226756Y49510D01*
X226744Y49442D01*
X226714Y49347D01*
X226712Y49247D01*
X226700Y49179D01*
X226700Y47852D01*
X226713Y47766D01*
X226715Y47678D01*
X226732Y47626D01*
X226740Y47571D01*
X226776Y47491D01*
X226803Y47408D01*
X226831Y47369D01*
X226856Y47312D01*
X226952Y47198D01*
X226998Y47135D01*
X228480Y45652D01*
X228480Y43548D01*
X226691Y41759D01*
X226656Y41712D01*
X226614Y41672D01*
X226571Y41599D01*
X226520Y41532D01*
X226499Y41477D01*
X226470Y41427D01*
X226449Y41345D01*
X226419Y41266D01*
X226414Y41208D01*
X226400Y41151D01*
X226402Y41067D01*
X226395Y40983D01*
X226407Y40925D01*
X226409Y40867D01*
X226435Y40787D01*
X226451Y40704D01*
X226478Y40652D01*
X226496Y40596D01*
X226536Y40540D01*
X226582Y40452D01*
X226651Y40379D01*
X226691Y40323D01*
X228480Y38534D01*
X228480Y36429D01*
X227790Y35739D01*
X227772Y35716D01*
X227750Y35697D01*
X227687Y35603D01*
X227619Y35512D01*
X227608Y35485D01*
X227592Y35460D01*
X227558Y35352D01*
X227517Y35246D01*
X227515Y35217D01*
X227506Y35189D01*
X227503Y35076D01*
X227494Y34963D01*
X227500Y34934D01*
X227499Y34905D01*
X227528Y34795D01*
X227550Y34684D01*
X227563Y34658D01*
X227571Y34630D01*
X227628Y34533D01*
X227681Y34432D01*
X227701Y34411D01*
X227716Y34386D01*
X227799Y34308D01*
X227877Y34226D01*
X227902Y34211D01*
X227923Y34191D01*
X228024Y34139D01*
X228122Y34082D01*
X228150Y34075D01*
X228176Y34062D01*
X228254Y34049D01*
X228397Y34012D01*
X228460Y34014D01*
X228507Y34006D01*
X232330Y34006D01*
X232962Y33374D01*
X232986Y33356D01*
X233005Y33334D01*
X233099Y33271D01*
X233189Y33203D01*
X233217Y33193D01*
X233241Y33176D01*
X233349Y33142D01*
X233455Y33102D01*
X233484Y33100D01*
X233512Y33091D01*
X233626Y33088D01*
X233738Y33078D01*
X233767Y33084D01*
X233796Y33083D01*
X233906Y33112D01*
X234017Y33134D01*
X234043Y33148D01*
X234071Y33155D01*
X234169Y33213D01*
X234269Y33265D01*
X234291Y33285D01*
X234316Y33300D01*
X234393Y33383D01*
X234475Y33461D01*
X234490Y33486D01*
X234510Y33508D01*
X234562Y33609D01*
X234619Y33706D01*
X234626Y33735D01*
X234640Y33761D01*
X234653Y33838D01*
X234689Y33982D01*
X234687Y34044D01*
X234695Y34092D01*
X234695Y112392D01*
X235588Y113285D01*
X254062Y113285D01*
X254119Y113293D01*
X254178Y113291D01*
X254259Y113313D01*
X254343Y113325D01*
X254396Y113348D01*
X254453Y113363D01*
X254525Y113406D01*
X254602Y113441D01*
X254647Y113479D01*
X254697Y113508D01*
X254755Y113570D01*
X254819Y113624D01*
X254852Y113673D01*
X254892Y113716D01*
X254930Y113791D01*
X254977Y113861D01*
X254995Y113917D01*
X255021Y113969D01*
X255033Y114037D01*
X255063Y114132D01*
X255065Y114232D01*
X255077Y114300D01*
X255077Y174792D01*
X255073Y174822D01*
X255075Y174851D01*
X255053Y174962D01*
X255037Y175074D01*
X255025Y175101D01*
X255019Y175129D01*
X254967Y175230D01*
X254921Y175333D01*
X254902Y175356D01*
X254888Y175382D01*
X254810Y175464D01*
X254737Y175550D01*
X254713Y175567D01*
X254692Y175588D01*
X254595Y175645D01*
X254500Y175708D01*
X254472Y175717D01*
X254447Y175732D01*
X254338Y175759D01*
X254229Y175794D01*
X254200Y175794D01*
X254172Y175802D01*
X254059Y175798D01*
X253945Y175801D01*
X253917Y175794D01*
X253887Y175793D01*
X253779Y175758D01*
X253670Y175729D01*
X253645Y175714D01*
X253617Y175705D01*
X253553Y175660D01*
X253426Y175584D01*
X253383Y175538D01*
X253344Y175510D01*
X251713Y173879D01*
X248912Y172719D01*
X233688Y172719D01*
X230887Y173879D01*
X228743Y176023D01*
X227583Y178824D01*
X227583Y181856D01*
X228743Y184657D01*
X229230Y185143D01*
X229265Y185190D01*
X229307Y185230D01*
X229350Y185303D01*
X229400Y185370D01*
X229421Y185425D01*
X229451Y185475D01*
X229472Y185557D01*
X229502Y185636D01*
X229506Y185694D01*
X229521Y185751D01*
X229518Y185835D01*
X229525Y185919D01*
X229514Y185976D01*
X229512Y186035D01*
X229486Y186115D01*
X229469Y186198D01*
X229442Y186250D01*
X229424Y186305D01*
X229384Y186361D01*
X229338Y186450D01*
X229270Y186522D01*
X229230Y186579D01*
X225762Y190046D01*
X225738Y190064D01*
X225719Y190086D01*
X225625Y190149D01*
X225535Y190217D01*
X225507Y190228D01*
X225483Y190244D01*
X225375Y190278D01*
X225269Y190318D01*
X225240Y190321D01*
X225212Y190330D01*
X225098Y190333D01*
X224986Y190342D01*
X224957Y190336D01*
X224928Y190337D01*
X224818Y190308D01*
X224707Y190286D01*
X224681Y190273D01*
X224653Y190265D01*
X224555Y190207D01*
X224455Y190155D01*
X224433Y190135D01*
X224408Y190120D01*
X224331Y190037D01*
X224249Y189959D01*
X224234Y189934D01*
X224214Y189913D01*
X224204Y189893D01*
X221127Y186816D01*
X221009Y186816D01*
X220922Y186804D01*
X220835Y186801D01*
X220782Y186784D01*
X220727Y186776D01*
X220647Y186741D01*
X220564Y186714D01*
X220525Y186686D01*
X220468Y186660D01*
X220354Y186564D01*
X220291Y186519D01*
X206999Y173227D01*
X203493Y173227D01*
X203464Y173223D01*
X203435Y173226D01*
X203323Y173203D01*
X203211Y173187D01*
X203185Y173175D01*
X203156Y173170D01*
X203055Y173117D01*
X202952Y173071D01*
X202930Y173052D01*
X202903Y173039D01*
X202821Y172961D01*
X202735Y172888D01*
X202719Y172863D01*
X202697Y172843D01*
X202640Y172745D01*
X202577Y172651D01*
X202568Y172623D01*
X202554Y172598D01*
X202526Y172488D01*
X202492Y172380D01*
X202491Y172350D01*
X202484Y172322D01*
X202487Y172209D01*
X202484Y172096D01*
X202492Y172067D01*
X202493Y172038D01*
X202527Y171930D01*
X202556Y171821D01*
X202571Y171795D01*
X202580Y171767D01*
X202626Y171703D01*
X202701Y171576D01*
X202747Y171533D01*
X202775Y171494D01*
X203708Y170561D01*
X204907Y167666D01*
X204907Y164465D01*
X204915Y164407D01*
X204914Y164349D01*
X204935Y164267D01*
X204947Y164183D01*
X204971Y164130D01*
X204986Y164074D01*
X205029Y164001D01*
X205063Y163924D01*
X205101Y163879D01*
X205131Y163829D01*
X205193Y163771D01*
X205247Y163707D01*
X205296Y163675D01*
X205338Y163635D01*
X205413Y163596D01*
X205484Y163549D01*
X205539Y163532D01*
X205591Y163505D01*
X205659Y163494D01*
X205755Y163464D01*
X205854Y163461D01*
X205922Y163450D01*
X209316Y163450D01*
X212218Y160548D01*
X212218Y156444D01*
X209316Y153542D01*
X209198Y153542D01*
X209111Y153530D01*
X209024Y153527D01*
X208971Y153510D01*
X208916Y153502D01*
X208836Y153467D01*
X208753Y153440D01*
X208714Y153412D01*
X208657Y153386D01*
X208543Y153290D01*
X208480Y153245D01*
X203951Y148716D01*
X202604Y148716D01*
X202575Y148712D01*
X202546Y148715D01*
X202434Y148692D01*
X202322Y148676D01*
X202296Y148664D01*
X202267Y148659D01*
X202166Y148606D01*
X202063Y148560D01*
X202041Y148541D01*
X202014Y148528D01*
X201932Y148450D01*
X201846Y148377D01*
X201830Y148352D01*
X201808Y148332D01*
X201751Y148234D01*
X201688Y148140D01*
X201679Y148112D01*
X201665Y148087D01*
X201637Y147977D01*
X201603Y147869D01*
X201602Y147839D01*
X201595Y147811D01*
X201598Y147698D01*
X201595Y147585D01*
X201603Y147556D01*
X201604Y147527D01*
X201638Y147419D01*
X201667Y147310D01*
X201682Y147284D01*
X201691Y147256D01*
X201737Y147193D01*
X201812Y147065D01*
X201858Y147022D01*
X201886Y146983D01*
X203708Y145161D01*
X204907Y142266D01*
X204907Y139134D01*
X203708Y136239D01*
X201493Y134024D01*
X198599Y132825D01*
X171971Y132825D01*
X169077Y134024D01*
X166862Y136239D01*
X165663Y139134D01*
X165663Y141505D01*
X165659Y141534D01*
X165661Y141563D01*
X165639Y141674D01*
X165623Y141786D01*
X165611Y141813D01*
X165605Y141842D01*
X165553Y141942D01*
X165507Y142046D01*
X165488Y142068D01*
X165474Y142094D01*
X165396Y142176D01*
X165323Y142263D01*
X165299Y142279D01*
X165278Y142300D01*
X165181Y142358D01*
X165086Y142420D01*
X165058Y142429D01*
X165033Y142444D01*
X164924Y142472D01*
X164815Y142506D01*
X164786Y142507D01*
X164758Y142514D01*
X164645Y142511D01*
X164531Y142513D01*
X164503Y142506D01*
X164473Y142505D01*
X164366Y142470D01*
X164256Y142442D01*
X164231Y142427D01*
X164203Y142418D01*
X164139Y142372D01*
X164012Y142296D01*
X163969Y142251D01*
X163930Y142223D01*
X124123Y102416D01*
X124071Y102346D01*
X124011Y102283D01*
X123985Y102233D01*
X123952Y102189D01*
X123921Y102107D01*
X123881Y102029D01*
X123873Y101982D01*
X123851Y101923D01*
X123839Y101776D01*
X123826Y101698D01*
X123826Y101580D01*
X120924Y98678D01*
X116820Y98678D01*
X113918Y101580D01*
X113918Y105684D01*
X116820Y108586D01*
X116938Y108586D01*
X117025Y108598D01*
X117112Y108601D01*
X117165Y108618D01*
X117220Y108626D01*
X117300Y108661D01*
X117383Y108688D01*
X117422Y108716D01*
X117479Y108742D01*
X117593Y108838D01*
X117656Y108883D01*
X166635Y157862D01*
X168188Y157862D01*
X168217Y157866D01*
X168246Y157863D01*
X168358Y157886D01*
X168470Y157902D01*
X168496Y157914D01*
X168525Y157919D01*
X168626Y157972D01*
X168729Y158018D01*
X168751Y158037D01*
X168778Y158050D01*
X168860Y158128D01*
X168946Y158201D01*
X168962Y158226D01*
X168984Y158246D01*
X169041Y158344D01*
X169104Y158438D01*
X169113Y158466D01*
X169127Y158491D01*
X169155Y158601D01*
X169189Y158709D01*
X169190Y158739D01*
X169197Y158767D01*
X169194Y158880D01*
X169197Y158993D01*
X169189Y159022D01*
X169188Y159051D01*
X169154Y159159D01*
X169125Y159268D01*
X169110Y159294D01*
X169101Y159322D01*
X169055Y159385D01*
X168980Y159513D01*
X168934Y159556D01*
X168906Y159595D01*
X166862Y161639D01*
X165663Y164534D01*
X165663Y167540D01*
X165659Y167569D01*
X165661Y167598D01*
X165639Y167709D01*
X165623Y167821D01*
X165611Y167848D01*
X165605Y167877D01*
X165553Y167977D01*
X165507Y168081D01*
X165488Y168103D01*
X165474Y168129D01*
X165396Y168211D01*
X165323Y168298D01*
X165299Y168314D01*
X165278Y168335D01*
X165181Y168393D01*
X165086Y168455D01*
X165058Y168464D01*
X165033Y168479D01*
X164924Y168507D01*
X164815Y168541D01*
X164786Y168542D01*
X164758Y168549D01*
X164645Y168546D01*
X164531Y168548D01*
X164503Y168541D01*
X164473Y168540D01*
X164366Y168505D01*
X164256Y168477D01*
X164231Y168462D01*
X164203Y168453D01*
X164139Y168407D01*
X164012Y168331D01*
X163969Y168286D01*
X163930Y168258D01*
X107939Y112267D01*
X84378Y112267D01*
X52812Y143834D01*
X52743Y143885D01*
X52681Y143945D01*
X52630Y143971D01*
X52585Y144005D01*
X52504Y144035D01*
X52428Y144075D01*
X52372Y144086D01*
X52319Y144106D01*
X52233Y144113D01*
X52149Y144130D01*
X52092Y144125D01*
X52036Y144130D01*
X51951Y144113D01*
X51866Y144105D01*
X51813Y144085D01*
X51757Y144074D01*
X51681Y144034D01*
X51600Y144003D01*
X51555Y143969D01*
X51505Y143943D01*
X51442Y143884D01*
X51374Y143832D01*
X51340Y143786D01*
X51298Y143747D01*
X51255Y143673D01*
X51204Y143604D01*
X51183Y143551D01*
X51155Y143502D01*
X51134Y143418D01*
X51103Y143338D01*
X51099Y143281D01*
X51085Y143226D01*
X51087Y143140D01*
X51080Y143055D01*
X51092Y143006D01*
X51094Y142942D01*
X51138Y142804D01*
X51156Y142727D01*
X51435Y142053D01*
X51435Y139347D01*
X50400Y136846D01*
X48486Y134933D01*
X45986Y133897D01*
X43279Y133897D01*
X40779Y134933D01*
X38865Y136846D01*
X37830Y139347D01*
X37830Y142053D01*
X38865Y144554D01*
X40779Y146467D01*
X43279Y147503D01*
X45986Y147503D01*
X46660Y147223D01*
X46743Y147202D01*
X46823Y147171D01*
X46880Y147167D01*
X46935Y147152D01*
X47021Y147155D01*
X47107Y147148D01*
X47163Y147159D01*
X47219Y147161D01*
X47301Y147187D01*
X47386Y147204D01*
X47436Y147230D01*
X47490Y147247D01*
X47562Y147295D01*
X47638Y147335D01*
X47679Y147374D01*
X47726Y147406D01*
X47782Y147471D01*
X47844Y147530D01*
X47873Y147580D01*
X47909Y147623D01*
X47944Y147702D01*
X47988Y147776D01*
X48002Y147831D01*
X48025Y147883D01*
X48037Y147968D01*
X48058Y148051D01*
X48056Y148108D01*
X48064Y148164D01*
X48051Y148250D01*
X48049Y148335D01*
X48031Y148389D01*
X48023Y148446D01*
X47988Y148524D01*
X47961Y148606D01*
X47933Y148646D01*
X47906Y148705D01*
X47812Y148815D01*
X47766Y148879D01*
X40060Y156586D01*
X40060Y160632D01*
X40048Y160718D01*
X40045Y160806D01*
X40028Y160858D01*
X40020Y160913D01*
X39984Y160993D01*
X39957Y161076D01*
X39929Y161115D01*
X39904Y161173D01*
X39828Y161262D01*
X39808Y161295D01*
X39787Y161315D01*
X39762Y161350D01*
X38865Y162246D01*
X37830Y164747D01*
X37830Y167453D01*
X38865Y169954D01*
X40779Y171867D01*
X43279Y172903D01*
X45986Y172903D01*
X48486Y171867D01*
X50400Y169954D01*
X51435Y167453D01*
X51435Y164747D01*
X50400Y162247D01*
X49584Y161431D01*
X49549Y161384D01*
X49507Y161344D01*
X49464Y161271D01*
X49413Y161204D01*
X49392Y161149D01*
X49363Y161099D01*
X49342Y161017D01*
X49312Y160938D01*
X49307Y160880D01*
X49293Y160823D01*
X49295Y160739D01*
X49288Y160655D01*
X49300Y160598D01*
X49302Y160539D01*
X49328Y160459D01*
X49344Y160376D01*
X49371Y160324D01*
X49389Y160269D01*
X49429Y160213D01*
X49475Y160124D01*
X49544Y160051D01*
X49584Y159995D01*
X87869Y121710D01*
X87939Y121658D01*
X88003Y121598D01*
X88052Y121572D01*
X88096Y121539D01*
X88178Y121508D01*
X88256Y121468D01*
X88304Y121460D01*
X88362Y121438D01*
X88510Y121426D01*
X88587Y121413D01*
X98806Y121413D01*
X98864Y121421D01*
X98922Y121419D01*
X99004Y121441D01*
X99088Y121453D01*
X99141Y121476D01*
X99197Y121491D01*
X99270Y121534D01*
X99347Y121569D01*
X99392Y121607D01*
X99442Y121636D01*
X99500Y121698D01*
X99564Y121752D01*
X99596Y121801D01*
X99636Y121844D01*
X99675Y121919D01*
X99722Y121989D01*
X99739Y122045D01*
X99766Y122097D01*
X99777Y122165D01*
X99807Y122260D01*
X99810Y122360D01*
X99821Y122428D01*
X99821Y125242D01*
X99853Y125273D01*
X99911Y125351D01*
X99976Y125422D01*
X99996Y125464D01*
X100024Y125501D01*
X100058Y125591D01*
X100101Y125678D01*
X100107Y125718D01*
X100125Y125766D01*
X100139Y125937D01*
X100150Y126010D01*
X98829Y198334D01*
X98826Y198354D01*
X98827Y198373D01*
X98803Y198493D01*
X98784Y198614D01*
X98776Y198633D01*
X98772Y198652D01*
X98715Y198761D01*
X98663Y198872D01*
X98650Y198887D01*
X98641Y198905D01*
X98556Y198993D01*
X98475Y199085D01*
X98459Y199096D01*
X98445Y199111D01*
X98339Y199172D01*
X98236Y199239D01*
X98217Y199244D01*
X98200Y199254D01*
X98081Y199284D01*
X97963Y199319D01*
X97943Y199320D01*
X97924Y199324D01*
X97802Y199321D01*
X97679Y199321D01*
X97660Y199316D01*
X97640Y199315D01*
X97524Y199278D01*
X97405Y199245D01*
X97388Y199234D01*
X97369Y199228D01*
X97309Y199185D01*
X97164Y199095D01*
X97129Y199057D01*
X97096Y199033D01*
X94918Y196855D01*
X91837Y195579D01*
X88503Y195579D01*
X85421Y196855D01*
X83063Y199213D01*
X82494Y200589D01*
X82435Y200688D01*
X82382Y200790D01*
X82363Y200810D01*
X82349Y200834D01*
X82266Y200913D01*
X82187Y200996D01*
X82163Y201010D01*
X82142Y201029D01*
X82040Y201082D01*
X81941Y201140D01*
X81915Y201147D01*
X81890Y201159D01*
X81777Y201182D01*
X81666Y201210D01*
X81638Y201209D01*
X81611Y201214D01*
X81496Y201204D01*
X81382Y201201D01*
X81355Y201192D01*
X81328Y201190D01*
X81221Y201149D01*
X81111Y201113D01*
X81091Y201099D01*
X81062Y201088D01*
X80850Y200928D01*
X80838Y200918D01*
X79067Y199147D01*
X55417Y175497D01*
X37422Y175497D01*
X37336Y175485D01*
X37248Y175482D01*
X37195Y175465D01*
X37141Y175457D01*
X37061Y175422D01*
X36978Y175395D01*
X36938Y175367D01*
X36881Y175341D01*
X36768Y175245D01*
X36704Y175200D01*
X29056Y167551D01*
X29003Y167481D01*
X28943Y167418D01*
X28918Y167368D01*
X28885Y167324D01*
X28854Y167242D01*
X28814Y167164D01*
X28806Y167117D01*
X28783Y167058D01*
X28771Y166911D01*
X28758Y166833D01*
X28758Y164584D01*
X27598Y161783D01*
X25454Y159639D01*
X22653Y158479D01*
X19622Y158479D01*
X16821Y159639D01*
X14677Y161783D01*
X13517Y164584D01*
X13517Y167616D01*
X14677Y170417D01*
X16821Y172561D01*
X19622Y173721D01*
X21871Y173721D01*
X21958Y173733D01*
X22045Y173736D01*
X22098Y173753D01*
X22152Y173761D01*
X22232Y173796D01*
X22315Y173823D01*
X22355Y173851D01*
X22412Y173877D01*
X22525Y173973D01*
X22589Y174018D01*
X33213Y184643D01*
X39418Y184643D01*
X39447Y184647D01*
X39477Y184644D01*
X39588Y184667D01*
X39700Y184683D01*
X39726Y184695D01*
X39755Y184700D01*
X39856Y184753D01*
X39959Y184799D01*
X39982Y184818D01*
X40008Y184831D01*
X40090Y184909D01*
X40176Y184982D01*
X40192Y185007D01*
X40214Y185027D01*
X40271Y185125D01*
X40334Y185219D01*
X40343Y185247D01*
X40357Y185272D01*
X40385Y185382D01*
X40420Y185490D01*
X40420Y185520D01*
X40427Y185548D01*
X40424Y185661D01*
X40427Y185774D01*
X40419Y185803D01*
X40418Y185832D01*
X40384Y185940D01*
X40355Y186049D01*
X40340Y186075D01*
X40331Y186103D01*
X40285Y186166D01*
X40210Y186294D01*
X40164Y186337D01*
X40136Y186376D01*
X38865Y187647D01*
X37830Y190147D01*
X37830Y192853D01*
X38865Y195354D01*
X40779Y197267D01*
X43279Y198303D01*
X45818Y198303D01*
X45905Y198315D01*
X45992Y198318D01*
X46045Y198335D01*
X46099Y198343D01*
X46179Y198378D01*
X46262Y198405D01*
X46302Y198433D01*
X46359Y198459D01*
X46472Y198555D01*
X46536Y198600D01*
X63710Y215774D01*
X63740Y215814D01*
X63750Y215822D01*
X63769Y215851D01*
X63822Y215908D01*
X63848Y215957D01*
X63881Y216001D01*
X63896Y216042D01*
X63908Y216059D01*
X63920Y216100D01*
X63952Y216161D01*
X63960Y216209D01*
X63982Y216267D01*
X63985Y216304D01*
X63993Y216330D01*
X63996Y216423D01*
X64007Y216492D01*
X64007Y474969D01*
X66250Y477212D01*
X66302Y477282D01*
X66362Y477345D01*
X66388Y477395D01*
X66421Y477439D01*
X66452Y477521D01*
X66492Y477599D01*
X66500Y477646D01*
X66522Y477705D01*
X66534Y477852D01*
X66547Y477930D01*
X66547Y487950D01*
X67823Y491032D01*
X70181Y493390D01*
X73263Y494666D01*
X76597Y494666D01*
X79679Y493390D01*
X82037Y491032D01*
X83313Y487950D01*
X83313Y470900D01*
X82037Y467818D01*
X79679Y465460D01*
X76597Y464184D01*
X74168Y464184D01*
X74110Y464176D01*
X74052Y464178D01*
X73970Y464156D01*
X73886Y464144D01*
X73833Y464121D01*
X73777Y464106D01*
X73704Y464063D01*
X73627Y464028D01*
X73582Y463990D01*
X73532Y463961D01*
X73474Y463899D01*
X73410Y463845D01*
X73378Y463796D01*
X73338Y463753D01*
X73299Y463678D01*
X73252Y463608D01*
X73235Y463552D01*
X73208Y463500D01*
X73197Y463432D01*
X73167Y463337D01*
X73164Y463237D01*
X73153Y463169D01*
X73153Y233836D01*
X73157Y233806D01*
X73154Y233777D01*
X73177Y233666D01*
X73193Y233554D01*
X73205Y233527D01*
X73210Y233499D01*
X73262Y233398D01*
X73309Y233295D01*
X73328Y233272D01*
X73341Y233246D01*
X73419Y233164D01*
X73492Y233078D01*
X73517Y233061D01*
X73537Y233040D01*
X73635Y232983D01*
X73729Y232920D01*
X73757Y232911D01*
X73782Y232896D01*
X73892Y232869D01*
X74000Y232834D01*
X74030Y232834D01*
X74058Y232826D01*
X74171Y232830D01*
X74284Y232827D01*
X74313Y232834D01*
X74342Y232835D01*
X74450Y232870D01*
X74559Y232899D01*
X74585Y232914D01*
X74613Y232923D01*
X74676Y232968D01*
X74804Y233044D01*
X74847Y233090D01*
X74886Y233118D01*
X82084Y240316D01*
X82085Y240318D01*
X82087Y240319D01*
X82173Y240434D01*
X82255Y240543D01*
X82256Y240545D01*
X82257Y240546D01*
X82307Y240679D01*
X82357Y240809D01*
X82357Y240811D01*
X82357Y240812D01*
X82369Y240957D01*
X82380Y241092D01*
X82380Y241094D01*
X82380Y241096D01*
X82376Y241111D01*
X82324Y241371D01*
X82310Y241398D01*
X82305Y241423D01*
X81152Y244205D01*
X81152Y261255D01*
X82428Y264337D01*
X84786Y266695D01*
X87868Y267971D01*
X91202Y267971D01*
X94283Y266695D01*
X95863Y265115D01*
X95894Y265092D01*
X95919Y265063D01*
X96007Y265007D01*
X96090Y264944D01*
X96126Y264931D01*
X96159Y264910D01*
X96258Y264880D01*
X96356Y264843D01*
X96394Y264840D01*
X96431Y264829D01*
X96535Y264828D01*
X96639Y264819D01*
X96677Y264827D01*
X96715Y264827D01*
X96816Y264855D01*
X96918Y264875D01*
X96952Y264893D01*
X96989Y264904D01*
X97078Y264958D01*
X97170Y265006D01*
X97198Y265033D01*
X97231Y265053D01*
X97301Y265130D01*
X97376Y265202D01*
X97396Y265236D01*
X97422Y265264D01*
X97467Y265357D01*
X97520Y265447D01*
X97529Y265485D01*
X97546Y265520D01*
X97558Y265597D01*
X97590Y265723D01*
X97588Y265797D01*
X97596Y265852D01*
X97524Y269770D01*
X97512Y269847D01*
X97509Y269926D01*
X97490Y269987D01*
X97482Y270032D01*
X97482Y272057D01*
X97481Y272067D01*
X97482Y272075D01*
X97448Y273967D01*
X98785Y275305D01*
X98792Y275313D01*
X98798Y275318D01*
X100212Y276784D01*
X100254Y276804D01*
X100353Y276891D01*
X100416Y276936D01*
X119082Y295602D01*
X119134Y295672D01*
X119194Y295735D01*
X119220Y295785D01*
X119253Y295829D01*
X119284Y295911D01*
X119324Y295989D01*
X119332Y296036D01*
X119354Y296095D01*
X119366Y296242D01*
X119379Y296320D01*
X119379Y391022D01*
X165746Y437389D01*
X168061Y437389D01*
X168090Y437393D01*
X168119Y437390D01*
X168231Y437413D01*
X168343Y437429D01*
X168369Y437441D01*
X168398Y437446D01*
X168499Y437499D01*
X168602Y437545D01*
X168624Y437564D01*
X168651Y437577D01*
X168733Y437655D01*
X168819Y437728D01*
X168835Y437753D01*
X168857Y437773D01*
X168914Y437871D01*
X168977Y437965D01*
X168986Y437993D01*
X169000Y438018D01*
X169028Y438128D01*
X169062Y438236D01*
X169063Y438266D01*
X169070Y438294D01*
X169067Y438407D01*
X169070Y438520D01*
X169062Y438549D01*
X169061Y438578D01*
X169027Y438686D01*
X168998Y438795D01*
X168983Y438821D01*
X168974Y438849D01*
X168928Y438912D01*
X168853Y439040D01*
X168807Y439083D01*
X168779Y439122D01*
X166862Y441039D01*
X165663Y443934D01*
X165663Y447066D01*
X166862Y449961D01*
X169077Y452176D01*
X171971Y453375D01*
X198599Y453375D01*
X201493Y452176D01*
X203708Y449961D01*
X204907Y447066D01*
X204907Y443949D01*
X204911Y443920D01*
X204909Y443891D01*
X204931Y443780D01*
X204947Y443668D01*
X204959Y443641D01*
X204965Y443612D01*
X205017Y443512D01*
X205063Y443408D01*
X205082Y443386D01*
X205096Y443360D01*
X205174Y443278D01*
X205247Y443191D01*
X205271Y443175D01*
X205292Y443154D01*
X205389Y443096D01*
X205484Y443034D01*
X205512Y443025D01*
X205537Y443010D01*
X205646Y442982D01*
X205755Y442948D01*
X205784Y442947D01*
X205812Y442940D01*
X205925Y442943D01*
X206039Y442941D01*
X206067Y442948D01*
X206097Y442949D01*
X206204Y442984D01*
X206314Y443012D01*
X206339Y443027D01*
X206367Y443036D01*
X206431Y443082D01*
X206558Y443158D01*
X206601Y443203D01*
X206640Y443231D01*
X228600Y465191D01*
X228601Y465192D01*
X228602Y465193D01*
X228690Y465311D01*
X228771Y465418D01*
X228771Y465419D01*
X228772Y465420D01*
X228823Y465554D01*
X228872Y465683D01*
X228872Y465685D01*
X228873Y465686D01*
X228884Y465831D01*
X228895Y465967D01*
X228895Y465968D01*
X228895Y465970D01*
X228892Y465985D01*
X228840Y466245D01*
X228825Y466273D01*
X228820Y466297D01*
X228218Y467749D01*
X228218Y470781D01*
X229378Y473582D01*
X231522Y475726D01*
X234323Y476886D01*
X249547Y476886D01*
X252348Y475726D01*
X253344Y474730D01*
X253367Y474712D01*
X253386Y474690D01*
X253480Y474627D01*
X253571Y474559D01*
X253598Y474548D01*
X253623Y474532D01*
X253731Y474498D01*
X253836Y474458D01*
X253866Y474455D01*
X253894Y474446D01*
X254007Y474443D01*
X254120Y474434D01*
X254148Y474440D01*
X254178Y474439D01*
X254287Y474468D01*
X254399Y474490D01*
X254425Y474503D01*
X254453Y474511D01*
X254550Y474569D01*
X254651Y474621D01*
X254672Y474641D01*
X254697Y474656D01*
X254775Y474739D01*
X254857Y474817D01*
X254872Y474842D01*
X254892Y474863D01*
X254943Y474964D01*
X255001Y475062D01*
X255008Y475090D01*
X255021Y475117D01*
X255034Y475194D01*
X255071Y475337D01*
X255069Y475400D01*
X255077Y475448D01*
X255077Y492500D01*
X255069Y492556D01*
X255072Y492599D01*
X254886Y494487D01*
X254819Y494763D01*
X254815Y494770D01*
X254814Y494776D01*
X253369Y498263D01*
X253353Y498290D01*
X253344Y498319D01*
X253298Y498383D01*
X253225Y498508D01*
X253178Y498552D01*
X253149Y498592D01*
X250480Y501262D01*
X250455Y501280D01*
X250435Y501304D01*
X250368Y501345D01*
X250253Y501432D01*
X250193Y501455D01*
X250151Y501482D01*
X246663Y502926D01*
X246388Y502997D01*
X246381Y502997D01*
X246374Y502999D01*
X244487Y503184D01*
X244431Y503182D01*
X244388Y503189D01*
X203731Y503189D01*
X203702Y503185D01*
X203673Y503188D01*
X203561Y503165D01*
X203449Y503149D01*
X203423Y503137D01*
X203394Y503132D01*
X203293Y503079D01*
X203190Y503033D01*
X203168Y503014D01*
X203141Y503001D01*
X203059Y502923D01*
X202973Y502850D01*
X202957Y502825D01*
X202935Y502805D01*
X202878Y502707D01*
X202815Y502613D01*
X202806Y502585D01*
X202792Y502560D01*
X202764Y502450D01*
X202730Y502342D01*
X202729Y502312D01*
X202722Y502284D01*
X202725Y502171D01*
X202722Y502058D01*
X202730Y502029D01*
X202731Y502000D01*
X202765Y501892D01*
X202794Y501783D01*
X202809Y501757D01*
X202818Y501729D01*
X202864Y501665D01*
X202939Y501538D01*
X202985Y501495D01*
X203013Y501456D01*
X203708Y500761D01*
X204907Y497866D01*
X204907Y494734D01*
X203708Y491839D01*
X201493Y489624D01*
X198599Y488425D01*
X171971Y488425D01*
X169077Y489624D01*
X166862Y491839D01*
X165663Y494734D01*
X165663Y497866D01*
X166862Y500761D01*
X167557Y501456D01*
X167575Y501480D01*
X167597Y501499D01*
X167660Y501593D01*
X167728Y501683D01*
X167738Y501711D01*
X167755Y501735D01*
X167789Y501843D01*
X167829Y501949D01*
X167832Y501978D01*
X167840Y502006D01*
X167843Y502120D01*
X167853Y502232D01*
X167847Y502261D01*
X167848Y502290D01*
X167819Y502400D01*
X167797Y502511D01*
X167783Y502537D01*
X167776Y502565D01*
X167718Y502663D01*
X167666Y502763D01*
X167646Y502785D01*
X167631Y502810D01*
X167548Y502887D01*
X167470Y502969D01*
X167445Y502984D01*
X167423Y503004D01*
X167322Y503056D01*
X167225Y503113D01*
X167196Y503120D01*
X167170Y503134D01*
X167093Y503147D01*
X166949Y503183D01*
X166887Y503181D01*
X166839Y503189D01*
X52450Y503189D01*
X52393Y503181D01*
X52334Y503183D01*
X52253Y503161D01*
X52169Y503149D01*
X52116Y503126D01*
X52059Y503111D01*
X51987Y503068D01*
X51910Y503033D01*
X51865Y502995D01*
X51815Y502966D01*
X51757Y502904D01*
X51693Y502850D01*
X51660Y502801D01*
X51620Y502758D01*
X51582Y502683D01*
X51535Y502613D01*
X51517Y502557D01*
X51491Y502505D01*
X51479Y502437D01*
X51449Y502342D01*
X51447Y502242D01*
X51435Y502174D01*
X51435Y500656D01*
X51440Y500626D01*
X51437Y500595D01*
X51455Y500518D01*
X51475Y500375D01*
X51501Y500316D01*
X51513Y500268D01*
X52507Y497866D01*
X52507Y494734D01*
X51513Y492332D01*
X51505Y492302D01*
X51491Y492275D01*
X51478Y492197D01*
X51442Y492057D01*
X51443Y491992D01*
X51435Y491944D01*
X51435Y490390D01*
X50542Y489497D01*
X48989Y489497D01*
X48958Y489493D01*
X48927Y489495D01*
X48851Y489478D01*
X48707Y489457D01*
X48649Y489431D01*
X48600Y489420D01*
X46199Y488425D01*
X19571Y488425D01*
X19144Y488602D01*
X19115Y488610D01*
X19087Y488624D01*
X19010Y488637D01*
X18869Y488673D01*
X18805Y488671D01*
X18756Y488679D01*
X14410Y488679D01*
X13517Y489572D01*
X13517Y493918D01*
X13512Y493949D01*
X13515Y493980D01*
X13497Y494057D01*
X13477Y494200D01*
X13451Y494259D01*
X13439Y494307D01*
X13263Y494734D01*
X13263Y497866D01*
X13439Y498293D01*
X13447Y498323D01*
X13461Y498350D01*
X13474Y498428D01*
X13510Y498568D01*
X13509Y498633D01*
X13517Y498682D01*
X13517Y501735D01*
X13501Y501849D01*
X13491Y501963D01*
X13481Y501989D01*
X13477Y502016D01*
X13430Y502121D01*
X13389Y502228D01*
X13372Y502251D01*
X13361Y502276D01*
X13287Y502363D01*
X13217Y502455D01*
X13195Y502472D01*
X13177Y502493D01*
X13082Y502557D01*
X12989Y502625D01*
X12964Y502635D01*
X12940Y502650D01*
X12831Y502685D01*
X12723Y502726D01*
X12696Y502728D01*
X12669Y502736D01*
X12555Y502739D01*
X12440Y502748D01*
X12416Y502743D01*
X12385Y502744D01*
X12128Y502676D01*
X12113Y502673D01*
X9237Y501482D01*
X9210Y501466D01*
X9181Y501456D01*
X9117Y501411D01*
X8992Y501337D01*
X8948Y501290D01*
X8908Y501262D01*
X6238Y498592D01*
X6220Y498568D01*
X6196Y498548D01*
X6155Y498481D01*
X6068Y498365D01*
X6045Y498305D01*
X6018Y498263D01*
X4574Y494776D01*
X4503Y494501D01*
X4503Y494493D01*
X4501Y494487D01*
X4316Y492600D01*
X4318Y492543D01*
X4311Y492500D01*
X4311Y15000D01*
X4319Y14944D01*
X4316Y14900D01*
X4501Y13013D01*
X4569Y12737D01*
X4572Y12730D01*
X4574Y12724D01*
X6018Y9237D01*
X6034Y9210D01*
X6044Y9181D01*
X6089Y9117D01*
X6163Y8992D01*
X6210Y8948D01*
X6238Y8908D01*
X8908Y6238D01*
X8932Y6220D01*
X8952Y6196D01*
X9019Y6155D01*
X9135Y6068D01*
X9195Y6045D01*
X9237Y6018D01*
X12724Y4574D01*
X12999Y4503D01*
X13007Y4503D01*
X13013Y4501D01*
X14900Y4316D01*
X14957Y4318D01*
X15000Y4311D01*
X16297Y4311D01*
X16424Y4329D01*
G37*
G36*
X226861Y202309D02*
X226861Y202309D01*
X226918Y202304D01*
X227002Y202321D01*
X227088Y202329D01*
X227141Y202349D01*
X227197Y202360D01*
X227273Y202400D01*
X227353Y202431D01*
X227399Y202465D01*
X227449Y202491D01*
X227511Y202550D01*
X227580Y202602D01*
X227614Y202648D01*
X227655Y202687D01*
X227699Y202761D01*
X227750Y202830D01*
X227770Y202883D01*
X227799Y202932D01*
X227820Y203015D01*
X227850Y203096D01*
X227855Y203153D01*
X227869Y203208D01*
X227866Y203293D01*
X227873Y203379D01*
X227862Y203428D01*
X227860Y203492D01*
X227815Y203630D01*
X227798Y203706D01*
X227583Y204224D01*
X227583Y207256D01*
X228743Y210057D01*
X230887Y212201D01*
X233688Y213361D01*
X248912Y213361D01*
X251713Y212201D01*
X253344Y210570D01*
X253367Y210552D01*
X253386Y210530D01*
X253480Y210467D01*
X253571Y210399D01*
X253598Y210388D01*
X253623Y210372D01*
X253731Y210338D01*
X253836Y210298D01*
X253866Y210295D01*
X253894Y210286D01*
X254007Y210283D01*
X254120Y210274D01*
X254148Y210280D01*
X254178Y210279D01*
X254287Y210308D01*
X254399Y210330D01*
X254425Y210343D01*
X254453Y210351D01*
X254550Y210409D01*
X254651Y210461D01*
X254672Y210481D01*
X254697Y210496D01*
X254775Y210579D01*
X254857Y210657D01*
X254872Y210682D01*
X254892Y210703D01*
X254943Y210804D01*
X255001Y210902D01*
X255008Y210930D01*
X255021Y210957D01*
X255034Y211034D01*
X255071Y211177D01*
X255069Y211240D01*
X255077Y211288D01*
X255077Y225592D01*
X255073Y225622D01*
X255075Y225651D01*
X255053Y225762D01*
X255037Y225874D01*
X255025Y225901D01*
X255019Y225929D01*
X254967Y226030D01*
X254921Y226133D01*
X254902Y226156D01*
X254888Y226182D01*
X254810Y226264D01*
X254737Y226350D01*
X254713Y226367D01*
X254692Y226388D01*
X254595Y226445D01*
X254500Y226508D01*
X254472Y226517D01*
X254447Y226532D01*
X254338Y226559D01*
X254229Y226594D01*
X254200Y226594D01*
X254172Y226602D01*
X254059Y226598D01*
X253945Y226601D01*
X253917Y226594D01*
X253887Y226593D01*
X253779Y226558D01*
X253670Y226529D01*
X253645Y226514D01*
X253617Y226505D01*
X253553Y226460D01*
X253426Y226384D01*
X253383Y226338D01*
X253344Y226310D01*
X251713Y224679D01*
X248912Y223519D01*
X233688Y223519D01*
X230887Y224679D01*
X228743Y226823D01*
X227583Y229624D01*
X227583Y232656D01*
X228743Y235457D01*
X230887Y237601D01*
X233688Y238761D01*
X248912Y238761D01*
X251713Y237601D01*
X253344Y235970D01*
X253367Y235952D01*
X253386Y235930D01*
X253480Y235867D01*
X253571Y235799D01*
X253598Y235788D01*
X253623Y235772D01*
X253731Y235738D01*
X253836Y235698D01*
X253866Y235695D01*
X253894Y235686D01*
X254007Y235683D01*
X254120Y235674D01*
X254148Y235680D01*
X254178Y235679D01*
X254287Y235708D01*
X254399Y235730D01*
X254425Y235743D01*
X254453Y235751D01*
X254550Y235809D01*
X254651Y235861D01*
X254672Y235881D01*
X254697Y235896D01*
X254775Y235979D01*
X254857Y236057D01*
X254872Y236082D01*
X254892Y236103D01*
X254943Y236204D01*
X255001Y236302D01*
X255008Y236330D01*
X255021Y236357D01*
X255034Y236434D01*
X255071Y236577D01*
X255069Y236640D01*
X255077Y236688D01*
X255077Y288331D01*
X255067Y288403D01*
X255067Y288475D01*
X255047Y288543D01*
X255037Y288613D01*
X255007Y288678D01*
X254987Y288748D01*
X254950Y288808D01*
X254921Y288872D01*
X254874Y288927D01*
X254835Y288988D01*
X254783Y289035D01*
X254737Y289089D01*
X254677Y289129D01*
X254623Y289177D01*
X254559Y289207D01*
X254500Y289247D01*
X254431Y289268D01*
X254366Y289299D01*
X254297Y289311D01*
X254229Y289332D01*
X254157Y289334D01*
X254086Y289346D01*
X254016Y289338D01*
X253945Y289340D01*
X253875Y289321D01*
X253804Y289313D01*
X253749Y289288D01*
X253670Y289268D01*
X253567Y289206D01*
X253497Y289175D01*
X252122Y288256D01*
X250550Y287605D01*
X248882Y287273D01*
X243966Y287273D01*
X243966Y294894D01*
X243958Y294952D01*
X243960Y295010D01*
X243938Y295092D01*
X243926Y295175D01*
X243902Y295229D01*
X243888Y295285D01*
X243845Y295358D01*
X243810Y295435D01*
X243772Y295479D01*
X243742Y295530D01*
X243681Y295587D01*
X243626Y295652D01*
X243578Y295684D01*
X243535Y295724D01*
X243460Y295763D01*
X243390Y295809D01*
X243334Y295827D01*
X243282Y295854D01*
X243214Y295865D01*
X243119Y295895D01*
X243019Y295898D01*
X242951Y295909D01*
X241934Y295909D01*
X241934Y295911D01*
X242951Y295911D01*
X243009Y295919D01*
X243067Y295918D01*
X243149Y295939D01*
X243232Y295951D01*
X243286Y295975D01*
X243342Y295989D01*
X243415Y296032D01*
X243492Y296067D01*
X243537Y296105D01*
X243587Y296135D01*
X243645Y296196D01*
X243709Y296251D01*
X243741Y296299D01*
X243781Y296342D01*
X243820Y296417D01*
X243866Y296487D01*
X243884Y296543D01*
X243911Y296595D01*
X243922Y296663D01*
X243952Y296758D01*
X243955Y296858D01*
X243966Y296926D01*
X243966Y304547D01*
X248882Y304547D01*
X250550Y304215D01*
X252122Y303564D01*
X253497Y302645D01*
X253563Y302613D01*
X253623Y302573D01*
X253690Y302552D01*
X253754Y302521D01*
X253825Y302509D01*
X253894Y302488D01*
X253964Y302486D01*
X254034Y302474D01*
X254106Y302482D01*
X254178Y302480D01*
X254246Y302498D01*
X254316Y302506D01*
X254383Y302534D01*
X254453Y302552D01*
X254514Y302588D01*
X254579Y302615D01*
X254635Y302661D01*
X254697Y302697D01*
X254746Y302749D01*
X254801Y302793D01*
X254842Y302852D01*
X254892Y302905D01*
X254924Y302968D01*
X254965Y303025D01*
X254988Y303093D01*
X255021Y303158D01*
X255031Y303217D01*
X255058Y303294D01*
X255064Y303414D01*
X255077Y303489D01*
X255077Y315127D01*
X255073Y315157D01*
X255075Y315186D01*
X255053Y315297D01*
X255037Y315409D01*
X255025Y315436D01*
X255019Y315464D01*
X254967Y315565D01*
X254921Y315668D01*
X254902Y315691D01*
X254888Y315717D01*
X254810Y315799D01*
X254737Y315885D01*
X254713Y315902D01*
X254692Y315923D01*
X254595Y315980D01*
X254500Y316043D01*
X254472Y316052D01*
X254447Y316067D01*
X254338Y316094D01*
X254229Y316129D01*
X254200Y316129D01*
X254172Y316137D01*
X254059Y316133D01*
X253945Y316136D01*
X253917Y316129D01*
X253887Y316128D01*
X253779Y316093D01*
X253670Y316064D01*
X253645Y316049D01*
X253617Y316040D01*
X253553Y315995D01*
X253426Y315919D01*
X253383Y315873D01*
X253344Y315845D01*
X252348Y314849D01*
X249547Y313689D01*
X234323Y313689D01*
X231522Y314849D01*
X229378Y316993D01*
X228218Y319794D01*
X228218Y322826D01*
X229378Y325627D01*
X231522Y327771D01*
X234323Y328931D01*
X249547Y328931D01*
X252348Y327771D01*
X253344Y326775D01*
X253367Y326757D01*
X253386Y326735D01*
X253480Y326672D01*
X253571Y326604D01*
X253598Y326593D01*
X253623Y326577D01*
X253731Y326543D01*
X253836Y326503D01*
X253866Y326500D01*
X253894Y326491D01*
X254007Y326488D01*
X254120Y326479D01*
X254148Y326485D01*
X254178Y326484D01*
X254287Y326513D01*
X254399Y326535D01*
X254425Y326548D01*
X254453Y326556D01*
X254550Y326614D01*
X254651Y326666D01*
X254672Y326686D01*
X254697Y326701D01*
X254775Y326784D01*
X254857Y326862D01*
X254872Y326887D01*
X254892Y326908D01*
X254943Y327009D01*
X255001Y327107D01*
X255008Y327135D01*
X255021Y327162D01*
X255034Y327239D01*
X255071Y327382D01*
X255069Y327445D01*
X255077Y327493D01*
X255077Y340527D01*
X255073Y340557D01*
X255075Y340586D01*
X255053Y340697D01*
X255037Y340809D01*
X255025Y340836D01*
X255019Y340864D01*
X254967Y340965D01*
X254921Y341068D01*
X254902Y341091D01*
X254888Y341117D01*
X254810Y341199D01*
X254737Y341285D01*
X254713Y341302D01*
X254692Y341323D01*
X254595Y341380D01*
X254500Y341443D01*
X254472Y341452D01*
X254447Y341467D01*
X254338Y341494D01*
X254229Y341529D01*
X254200Y341529D01*
X254172Y341537D01*
X254059Y341533D01*
X253945Y341536D01*
X253917Y341529D01*
X253887Y341528D01*
X253779Y341493D01*
X253670Y341464D01*
X253645Y341449D01*
X253617Y341440D01*
X253553Y341395D01*
X253426Y341319D01*
X253383Y341273D01*
X253344Y341245D01*
X252348Y340249D01*
X249547Y339089D01*
X234323Y339089D01*
X231522Y340249D01*
X229378Y342393D01*
X228218Y345194D01*
X228218Y348226D01*
X229378Y351027D01*
X231522Y353171D01*
X234323Y354331D01*
X249547Y354331D01*
X252348Y353171D01*
X253344Y352175D01*
X253367Y352157D01*
X253386Y352135D01*
X253480Y352072D01*
X253571Y352004D01*
X253598Y351993D01*
X253623Y351977D01*
X253731Y351943D01*
X253836Y351903D01*
X253866Y351900D01*
X253894Y351891D01*
X254007Y351888D01*
X254120Y351879D01*
X254148Y351885D01*
X254178Y351884D01*
X254287Y351913D01*
X254399Y351935D01*
X254425Y351948D01*
X254453Y351956D01*
X254550Y352014D01*
X254651Y352066D01*
X254672Y352086D01*
X254697Y352101D01*
X254775Y352184D01*
X254857Y352262D01*
X254872Y352287D01*
X254892Y352308D01*
X254943Y352409D01*
X255001Y352507D01*
X255008Y352535D01*
X255021Y352562D01*
X255034Y352639D01*
X255071Y352782D01*
X255069Y352845D01*
X255077Y352893D01*
X255077Y410886D01*
X255067Y410958D01*
X255067Y411030D01*
X255047Y411098D01*
X255037Y411168D01*
X255007Y411233D01*
X254987Y411303D01*
X254950Y411363D01*
X254921Y411427D01*
X254874Y411482D01*
X254835Y411543D01*
X254783Y411590D01*
X254737Y411644D01*
X254677Y411684D01*
X254623Y411732D01*
X254559Y411762D01*
X254500Y411802D01*
X254431Y411823D01*
X254366Y411854D01*
X254297Y411866D01*
X254229Y411887D01*
X254157Y411889D01*
X254086Y411901D01*
X254016Y411893D01*
X253945Y411895D01*
X253875Y411876D01*
X253804Y411868D01*
X253749Y411843D01*
X253670Y411823D01*
X253567Y411761D01*
X253497Y411730D01*
X252122Y410811D01*
X250550Y410160D01*
X248882Y409828D01*
X243966Y409828D01*
X243966Y417449D01*
X243958Y417507D01*
X243960Y417565D01*
X243938Y417647D01*
X243926Y417730D01*
X243902Y417784D01*
X243888Y417840D01*
X243845Y417913D01*
X243810Y417990D01*
X243772Y418034D01*
X243742Y418085D01*
X243681Y418142D01*
X243626Y418207D01*
X243578Y418239D01*
X243535Y418279D01*
X243460Y418318D01*
X243390Y418364D01*
X243334Y418382D01*
X243282Y418409D01*
X243214Y418420D01*
X243119Y418450D01*
X243019Y418453D01*
X242951Y418464D01*
X241934Y418464D01*
X241934Y418466D01*
X242951Y418466D01*
X243009Y418474D01*
X243067Y418473D01*
X243149Y418494D01*
X243232Y418506D01*
X243286Y418530D01*
X243342Y418544D01*
X243415Y418587D01*
X243492Y418622D01*
X243537Y418660D01*
X243587Y418690D01*
X243645Y418751D01*
X243709Y418806D01*
X243741Y418854D01*
X243781Y418897D01*
X243820Y418972D01*
X243866Y419042D01*
X243884Y419098D01*
X243911Y419150D01*
X243922Y419218D01*
X243952Y419313D01*
X243955Y419413D01*
X243966Y419481D01*
X243966Y427102D01*
X248882Y427102D01*
X250550Y426770D01*
X252122Y426119D01*
X253497Y425200D01*
X253563Y425168D01*
X253623Y425128D01*
X253690Y425107D01*
X253754Y425076D01*
X253825Y425064D01*
X253894Y425043D01*
X253964Y425041D01*
X254034Y425029D01*
X254106Y425037D01*
X254178Y425035D01*
X254246Y425053D01*
X254316Y425061D01*
X254383Y425089D01*
X254453Y425107D01*
X254514Y425143D01*
X254579Y425170D01*
X254635Y425216D01*
X254697Y425252D01*
X254746Y425304D01*
X254801Y425348D01*
X254842Y425407D01*
X254892Y425460D01*
X254924Y425523D01*
X254965Y425580D01*
X254988Y425648D01*
X255021Y425713D01*
X255031Y425772D01*
X255058Y425849D01*
X255064Y425969D01*
X255077Y426044D01*
X255077Y437682D01*
X255073Y437712D01*
X255075Y437741D01*
X255053Y437852D01*
X255037Y437964D01*
X255025Y437991D01*
X255019Y438019D01*
X254967Y438120D01*
X254921Y438223D01*
X254902Y438246D01*
X254888Y438272D01*
X254810Y438354D01*
X254737Y438440D01*
X254713Y438457D01*
X254692Y438478D01*
X254595Y438535D01*
X254500Y438598D01*
X254472Y438607D01*
X254447Y438622D01*
X254338Y438649D01*
X254229Y438684D01*
X254200Y438684D01*
X254172Y438692D01*
X254059Y438688D01*
X253945Y438691D01*
X253917Y438684D01*
X253887Y438683D01*
X253779Y438648D01*
X253670Y438619D01*
X253645Y438604D01*
X253617Y438595D01*
X253553Y438550D01*
X253426Y438474D01*
X253383Y438428D01*
X253344Y438400D01*
X252348Y437404D01*
X249547Y436244D01*
X240440Y436244D01*
X240353Y436232D01*
X240266Y436229D01*
X240213Y436212D01*
X240158Y436204D01*
X240078Y436169D01*
X239995Y436142D01*
X239956Y436114D01*
X239899Y436088D01*
X239785Y435992D01*
X239722Y435947D01*
X232191Y428417D01*
X232140Y428348D01*
X232081Y428285D01*
X232055Y428235D01*
X232021Y428189D01*
X231990Y428109D01*
X231951Y428033D01*
X231940Y427977D01*
X231919Y427924D01*
X231912Y427838D01*
X231896Y427754D01*
X231900Y427697D01*
X231896Y427640D01*
X231913Y427556D01*
X231920Y427471D01*
X231940Y427417D01*
X231952Y427362D01*
X231991Y427286D01*
X232022Y427205D01*
X232056Y427160D01*
X232083Y427109D01*
X232142Y427047D01*
X232194Y426979D01*
X232239Y426945D01*
X232278Y426903D01*
X232353Y426860D01*
X232421Y426808D01*
X232475Y426788D01*
X232524Y426760D01*
X232607Y426738D01*
X232687Y426708D01*
X232744Y426704D01*
X232799Y426689D01*
X232885Y426692D01*
X232971Y426685D01*
X233019Y426696D01*
X233083Y426699D01*
X233221Y426743D01*
X233298Y426761D01*
X233320Y426770D01*
X234988Y427102D01*
X239904Y427102D01*
X239904Y420496D01*
X227437Y420496D01*
X227534Y420984D01*
X227543Y421006D01*
X227565Y421089D01*
X227595Y421170D01*
X227600Y421226D01*
X227614Y421281D01*
X227612Y421367D01*
X227619Y421453D01*
X227608Y421509D01*
X227606Y421566D01*
X227580Y421647D01*
X227563Y421732D01*
X227537Y421782D01*
X227519Y421836D01*
X227472Y421908D01*
X227432Y421984D01*
X227393Y422025D01*
X227361Y422072D01*
X227295Y422128D01*
X227236Y422190D01*
X227187Y422219D01*
X227144Y422255D01*
X227065Y422290D01*
X226991Y422334D01*
X226936Y422348D01*
X226884Y422371D01*
X226798Y422383D01*
X226715Y422404D01*
X226659Y422402D01*
X226602Y422410D01*
X226517Y422398D01*
X226431Y422395D01*
X226377Y422377D01*
X226321Y422369D01*
X226242Y422334D01*
X226161Y422307D01*
X226120Y422279D01*
X226062Y422252D01*
X225951Y422158D01*
X225887Y422113D01*
X206110Y402335D01*
X202985Y402335D01*
X202956Y402331D01*
X202927Y402334D01*
X202815Y402311D01*
X202703Y402295D01*
X202677Y402283D01*
X202648Y402278D01*
X202547Y402225D01*
X202444Y402179D01*
X202422Y402160D01*
X202395Y402147D01*
X202313Y402069D01*
X202227Y401996D01*
X202211Y401971D01*
X202189Y401951D01*
X202132Y401853D01*
X202069Y401759D01*
X202060Y401731D01*
X202046Y401706D01*
X202018Y401596D01*
X201984Y401488D01*
X201983Y401458D01*
X201976Y401430D01*
X201979Y401317D01*
X201976Y401204D01*
X201984Y401175D01*
X201985Y401146D01*
X202019Y401038D01*
X202048Y400929D01*
X202063Y400903D01*
X202072Y400875D01*
X202118Y400811D01*
X202193Y400684D01*
X202236Y400644D01*
X202240Y400638D01*
X202245Y400633D01*
X202267Y400602D01*
X203708Y399161D01*
X204907Y396266D01*
X204907Y393134D01*
X203708Y390239D01*
X201493Y388024D01*
X198599Y386825D01*
X171971Y386825D01*
X169077Y388024D01*
X166862Y390239D01*
X165663Y393134D01*
X165663Y396013D01*
X165659Y396042D01*
X165661Y396071D01*
X165639Y396182D01*
X165623Y396294D01*
X165611Y396321D01*
X165605Y396350D01*
X165553Y396450D01*
X165507Y396554D01*
X165488Y396576D01*
X165474Y396602D01*
X165396Y396684D01*
X165323Y396771D01*
X165299Y396787D01*
X165278Y396808D01*
X165181Y396866D01*
X165086Y396928D01*
X165058Y396937D01*
X165033Y396952D01*
X164924Y396980D01*
X164815Y397014D01*
X164786Y397015D01*
X164758Y397022D01*
X164645Y397019D01*
X164531Y397021D01*
X164503Y397014D01*
X164473Y397013D01*
X164366Y396978D01*
X164256Y396950D01*
X164231Y396935D01*
X164203Y396926D01*
X164139Y396880D01*
X164012Y396804D01*
X163969Y396759D01*
X163930Y396731D01*
X142411Y375212D01*
X142359Y375143D01*
X142299Y375079D01*
X142273Y375029D01*
X142240Y374985D01*
X142209Y374903D01*
X142169Y374825D01*
X142161Y374778D01*
X142139Y374719D01*
X142127Y374572D01*
X142114Y374494D01*
X142114Y374376D01*
X139212Y371474D01*
X135108Y371474D01*
X132206Y374376D01*
X132206Y378480D01*
X135108Y381382D01*
X135226Y381382D01*
X135313Y381394D01*
X135400Y381397D01*
X135453Y381414D01*
X135508Y381422D01*
X135588Y381457D01*
X135671Y381484D01*
X135710Y381512D01*
X135767Y381538D01*
X135881Y381634D01*
X135944Y381679D01*
X162770Y408505D01*
X165746Y411481D01*
X168665Y411481D01*
X168750Y411493D01*
X168836Y411495D01*
X168890Y411513D01*
X168946Y411521D01*
X169025Y411556D01*
X169106Y411582D01*
X169154Y411614D01*
X169206Y411637D01*
X169271Y411692D01*
X169343Y411740D01*
X169379Y411784D01*
X169423Y411820D01*
X169470Y411892D01*
X169526Y411958D01*
X169549Y412010D01*
X169580Y412057D01*
X169606Y412139D01*
X169641Y412218D01*
X169649Y412274D01*
X169666Y412328D01*
X169668Y412414D01*
X169680Y412499D01*
X169672Y412556D01*
X169673Y412612D01*
X169651Y412695D01*
X169639Y412781D01*
X169616Y412833D01*
X169601Y412887D01*
X169558Y412961D01*
X169522Y413040D01*
X169485Y413083D01*
X169456Y413132D01*
X169393Y413191D01*
X169338Y413256D01*
X169296Y413282D01*
X169249Y413326D01*
X169120Y413392D01*
X169090Y413411D01*
X166862Y415639D01*
X165663Y418534D01*
X165663Y421702D01*
X165675Y421733D01*
X165679Y421790D01*
X165694Y421845D01*
X165691Y421931D01*
X165698Y422016D01*
X165687Y422072D01*
X165685Y422129D01*
X165659Y422211D01*
X165642Y422295D01*
X165616Y422346D01*
X165599Y422400D01*
X165551Y422471D01*
X165511Y422547D01*
X165472Y422589D01*
X165441Y422636D01*
X165375Y422691D01*
X165316Y422754D01*
X165267Y422782D01*
X165223Y422819D01*
X165144Y422854D01*
X165070Y422897D01*
X165015Y422911D01*
X164963Y422934D01*
X164878Y422946D01*
X164795Y422967D01*
X164738Y422966D01*
X164682Y422973D01*
X164596Y422961D01*
X164511Y422958D01*
X164457Y422941D01*
X164400Y422933D01*
X164322Y422897D01*
X164240Y422871D01*
X164200Y422842D01*
X164141Y422816D01*
X164031Y422721D01*
X163967Y422676D01*
X128822Y387531D01*
X128770Y387461D01*
X128710Y387398D01*
X128684Y387348D01*
X128651Y387304D01*
X128620Y387222D01*
X128580Y387144D01*
X128572Y387097D01*
X128550Y387038D01*
X128538Y386891D01*
X128525Y386813D01*
X128525Y292111D01*
X106968Y270554D01*
X106910Y270477D01*
X106845Y270405D01*
X106824Y270363D01*
X106797Y270327D01*
X106762Y270236D01*
X106720Y270149D01*
X106714Y270109D01*
X106695Y270061D01*
X106681Y269891D01*
X106670Y269817D01*
X106746Y265686D01*
X106749Y265666D01*
X106747Y265646D01*
X106771Y265527D01*
X106791Y265405D01*
X106799Y265387D01*
X106803Y265368D01*
X106860Y265259D01*
X106912Y265148D01*
X106925Y265133D01*
X106934Y265115D01*
X107019Y265027D01*
X107099Y264935D01*
X107116Y264924D01*
X107130Y264909D01*
X107235Y264847D01*
X107339Y264781D01*
X107358Y264776D01*
X107375Y264765D01*
X107494Y264735D01*
X107611Y264700D01*
X107631Y264700D01*
X107651Y264695D01*
X107773Y264699D01*
X107896Y264698D01*
X107915Y264704D01*
X107935Y264704D01*
X108051Y264742D01*
X108169Y264775D01*
X108186Y264786D01*
X108205Y264792D01*
X108265Y264835D01*
X108411Y264925D01*
X108446Y264963D01*
X108479Y264987D01*
X110187Y266695D01*
X113268Y267971D01*
X116602Y267971D01*
X119684Y266695D01*
X122042Y264337D01*
X123318Y261255D01*
X123318Y245550D01*
X123322Y245521D01*
X123319Y245492D01*
X123342Y245381D01*
X123358Y245269D01*
X123370Y245242D01*
X123375Y245213D01*
X123428Y245113D01*
X123474Y245009D01*
X123493Y244987D01*
X123506Y244961D01*
X123584Y244879D01*
X123657Y244792D01*
X123682Y244776D01*
X123702Y244755D01*
X123800Y244698D01*
X123894Y244635D01*
X123922Y244626D01*
X123947Y244611D01*
X124057Y244583D01*
X124165Y244549D01*
X124195Y244548D01*
X124223Y244541D01*
X124336Y244545D01*
X124449Y244542D01*
X124478Y244549D01*
X124507Y244550D01*
X124615Y244585D01*
X124724Y244614D01*
X124750Y244629D01*
X124778Y244638D01*
X124842Y244683D01*
X124969Y244759D01*
X125012Y244805D01*
X125051Y244833D01*
X125964Y245746D01*
X126082Y245746D01*
X126169Y245758D01*
X126256Y245761D01*
X126309Y245778D01*
X126364Y245786D01*
X126444Y245821D01*
X126527Y245848D01*
X126566Y245876D01*
X126623Y245902D01*
X126737Y245998D01*
X126800Y246043D01*
X165746Y284989D01*
X168061Y284989D01*
X168090Y284993D01*
X168119Y284990D01*
X168231Y285013D01*
X168343Y285029D01*
X168369Y285041D01*
X168398Y285046D01*
X168499Y285099D01*
X168602Y285145D01*
X168624Y285164D01*
X168651Y285177D01*
X168733Y285255D01*
X168819Y285328D01*
X168835Y285353D01*
X168857Y285373D01*
X168914Y285471D01*
X168977Y285565D01*
X168986Y285593D01*
X169000Y285618D01*
X169028Y285728D01*
X169062Y285836D01*
X169063Y285866D01*
X169070Y285894D01*
X169067Y286007D01*
X169070Y286120D01*
X169062Y286149D01*
X169061Y286178D01*
X169027Y286286D01*
X168998Y286395D01*
X168983Y286421D01*
X168974Y286449D01*
X168928Y286512D01*
X168853Y286640D01*
X168807Y286683D01*
X168779Y286722D01*
X166862Y288639D01*
X165663Y291534D01*
X165663Y294666D01*
X166862Y297561D01*
X169077Y299776D01*
X171971Y300975D01*
X198599Y300975D01*
X201493Y299776D01*
X203708Y297561D01*
X204907Y294666D01*
X204907Y291534D01*
X203708Y288639D01*
X203696Y288627D01*
X203678Y288603D01*
X203656Y288584D01*
X203593Y288490D01*
X203525Y288400D01*
X203515Y288372D01*
X203498Y288348D01*
X203464Y288240D01*
X203424Y288134D01*
X203421Y288105D01*
X203413Y288077D01*
X203410Y287964D01*
X203400Y287851D01*
X203406Y287822D01*
X203405Y287793D01*
X203434Y287683D01*
X203456Y287572D01*
X203470Y287546D01*
X203477Y287518D01*
X203535Y287420D01*
X203587Y287320D01*
X203607Y287298D01*
X203622Y287273D01*
X203705Y287196D01*
X203783Y287114D01*
X203808Y287099D01*
X203830Y287079D01*
X203930Y287027D01*
X204028Y286970D01*
X204057Y286963D01*
X204083Y286949D01*
X204160Y286936D01*
X204304Y286900D01*
X204366Y286902D01*
X204414Y286894D01*
X204744Y286894D01*
X207646Y283992D01*
X207646Y279888D01*
X204744Y276986D01*
X204626Y276986D01*
X204539Y276974D01*
X204452Y276971D01*
X204399Y276954D01*
X204344Y276946D01*
X204264Y276911D01*
X204181Y276884D01*
X204142Y276856D01*
X204085Y276830D01*
X203971Y276734D01*
X203908Y276689D01*
X203062Y275843D01*
X202477Y275843D01*
X202448Y275839D01*
X202419Y275842D01*
X202307Y275819D01*
X202195Y275803D01*
X202169Y275791D01*
X202140Y275786D01*
X202039Y275733D01*
X201936Y275687D01*
X201914Y275668D01*
X201887Y275655D01*
X201805Y275577D01*
X201719Y275504D01*
X201703Y275479D01*
X201681Y275459D01*
X201624Y275361D01*
X201561Y275267D01*
X201552Y275239D01*
X201538Y275214D01*
X201510Y275104D01*
X201476Y274996D01*
X201475Y274966D01*
X201468Y274938D01*
X201471Y274825D01*
X201468Y274712D01*
X201476Y274683D01*
X201477Y274654D01*
X201511Y274546D01*
X201540Y274437D01*
X201555Y274411D01*
X201564Y274383D01*
X201610Y274320D01*
X201685Y274192D01*
X201731Y274149D01*
X201759Y274110D01*
X203708Y272161D01*
X204907Y269266D01*
X204907Y266134D01*
X203708Y263239D01*
X201493Y261024D01*
X198599Y259825D01*
X171971Y259825D01*
X169077Y261024D01*
X166862Y263239D01*
X165663Y266134D01*
X165663Y269302D01*
X165675Y269333D01*
X165679Y269390D01*
X165694Y269445D01*
X165691Y269531D01*
X165698Y269616D01*
X165687Y269672D01*
X165686Y269729D01*
X165659Y269811D01*
X165642Y269895D01*
X165616Y269945D01*
X165599Y270000D01*
X165551Y270071D01*
X165511Y270147D01*
X165472Y270189D01*
X165441Y270236D01*
X165375Y270291D01*
X165316Y270354D01*
X165267Y270382D01*
X165223Y270419D01*
X165145Y270454D01*
X165070Y270497D01*
X165015Y270511D01*
X164963Y270534D01*
X164878Y270546D01*
X164795Y270567D01*
X164738Y270566D01*
X164682Y270573D01*
X164597Y270561D01*
X164511Y270558D01*
X164457Y270541D01*
X164401Y270533D01*
X164322Y270497D01*
X164240Y270471D01*
X164200Y270442D01*
X164141Y270416D01*
X164031Y270321D01*
X163967Y270276D01*
X133267Y239576D01*
X133215Y239506D01*
X133155Y239443D01*
X133129Y239393D01*
X133096Y239349D01*
X133065Y239267D01*
X133025Y239189D01*
X133017Y239142D01*
X132995Y239083D01*
X132990Y239020D01*
X132984Y239001D01*
X132982Y238931D01*
X132970Y238858D01*
X132970Y238740D01*
X130068Y235838D01*
X128680Y235838D01*
X128650Y235834D01*
X128621Y235837D01*
X128510Y235814D01*
X128398Y235798D01*
X128371Y235786D01*
X128343Y235781D01*
X128242Y235729D01*
X128139Y235682D01*
X128116Y235663D01*
X128090Y235650D01*
X128008Y235572D01*
X127922Y235499D01*
X127905Y235474D01*
X127884Y235454D01*
X127827Y235356D01*
X127764Y235262D01*
X127755Y235234D01*
X127740Y235209D01*
X127713Y235099D01*
X127678Y234991D01*
X127678Y234961D01*
X127670Y234933D01*
X127674Y234820D01*
X127671Y234707D01*
X127678Y234678D01*
X127679Y234649D01*
X127714Y234541D01*
X127743Y234432D01*
X127758Y234406D01*
X127767Y234378D01*
X127812Y234315D01*
X127888Y234187D01*
X127934Y234144D01*
X127936Y234142D01*
X127939Y234137D01*
X127940Y234135D01*
X127962Y234105D01*
X153997Y208070D01*
X154067Y208018D01*
X154130Y207958D01*
X154180Y207932D01*
X154224Y207899D01*
X154306Y207868D01*
X154384Y207828D01*
X154431Y207820D01*
X154490Y207798D01*
X154637Y207786D01*
X154715Y207773D01*
X169891Y207773D01*
X169976Y207785D01*
X170062Y207787D01*
X170116Y207805D01*
X170173Y207813D01*
X170251Y207848D01*
X170333Y207874D01*
X170380Y207906D01*
X170432Y207929D01*
X170497Y207984D01*
X170569Y208032D01*
X170605Y208076D01*
X170649Y208112D01*
X170697Y208184D01*
X170752Y208250D01*
X170775Y208302D01*
X170807Y208349D01*
X170832Y208431D01*
X170867Y208510D01*
X170875Y208566D01*
X170892Y208620D01*
X170894Y208706D01*
X170906Y208791D01*
X170898Y208847D01*
X170900Y208904D01*
X170878Y208987D01*
X170866Y209073D01*
X170842Y209124D01*
X170828Y209179D01*
X170784Y209253D01*
X170748Y209332D01*
X170712Y209375D01*
X170683Y209424D01*
X170620Y209483D01*
X170564Y209548D01*
X170522Y209574D01*
X170475Y209618D01*
X170346Y209684D01*
X170280Y209726D01*
X169077Y210224D01*
X166862Y212439D01*
X165663Y215334D01*
X165663Y218466D01*
X166862Y221361D01*
X169077Y223576D01*
X171971Y224775D01*
X198599Y224775D01*
X201493Y223576D01*
X203708Y221361D01*
X204907Y218466D01*
X204907Y215334D01*
X203708Y212439D01*
X201493Y210224D01*
X200290Y209726D01*
X200217Y209682D01*
X200138Y209647D01*
X200095Y209610D01*
X200046Y209581D01*
X199987Y209519D01*
X199921Y209463D01*
X199890Y209416D01*
X199850Y209375D01*
X199811Y209298D01*
X199763Y209227D01*
X199746Y209173D01*
X199720Y209122D01*
X199704Y209038D01*
X199678Y208956D01*
X199676Y208899D01*
X199665Y208843D01*
X199673Y208758D01*
X199670Y208672D01*
X199685Y208617D01*
X199690Y208560D01*
X199721Y208479D01*
X199742Y208397D01*
X199771Y208348D01*
X199792Y208295D01*
X199844Y208226D01*
X199887Y208152D01*
X199929Y208113D01*
X199963Y208068D01*
X200032Y208016D01*
X200095Y207958D01*
X200146Y207932D01*
X200191Y207898D01*
X200271Y207867D01*
X200348Y207828D01*
X200397Y207820D01*
X200457Y207797D01*
X200602Y207786D01*
X200679Y207773D01*
X220969Y207773D01*
X223945Y204797D01*
X226142Y202600D01*
X226211Y202548D01*
X226273Y202489D01*
X226324Y202463D01*
X226369Y202429D01*
X226449Y202398D01*
X226526Y202359D01*
X226582Y202348D01*
X226635Y202328D01*
X226720Y202321D01*
X226805Y202304D01*
X226861Y202309D01*
G37*
%LPC*%
G36*
X19571Y463025D02*
X19571Y463025D01*
X16677Y464224D01*
X14462Y466439D01*
X13263Y469334D01*
X13263Y472466D01*
X14462Y475361D01*
X16677Y477576D01*
X19571Y478775D01*
X46199Y478775D01*
X49093Y477576D01*
X51308Y475361D01*
X52507Y472466D01*
X52507Y469334D01*
X51308Y466439D01*
X49093Y464224D01*
X46199Y463025D01*
X19571Y463025D01*
G37*
%LPD*%
%LPC*%
G36*
X171971Y463025D02*
X171971Y463025D01*
X169077Y464224D01*
X166862Y466439D01*
X165663Y469334D01*
X165663Y472466D01*
X166862Y475361D01*
X169077Y477576D01*
X171971Y478775D01*
X198599Y478775D01*
X201493Y477576D01*
X203708Y475361D01*
X204907Y472466D01*
X204907Y469334D01*
X203708Y466439D01*
X201493Y464224D01*
X198599Y463025D01*
X171971Y463025D01*
G37*
%LPD*%
%LPC*%
G36*
X19571Y437625D02*
X19571Y437625D01*
X16677Y438824D01*
X14462Y441039D01*
X13263Y443934D01*
X13263Y447066D01*
X14462Y449961D01*
X16677Y452176D01*
X19571Y453375D01*
X46199Y453375D01*
X49093Y452176D01*
X51308Y449961D01*
X52507Y447066D01*
X52507Y443934D01*
X51308Y441039D01*
X49093Y438824D01*
X46199Y437625D01*
X19571Y437625D01*
G37*
%LPD*%
%LPC*%
G36*
X19571Y412225D02*
X19571Y412225D01*
X16677Y413424D01*
X14462Y415639D01*
X13263Y418534D01*
X13263Y421666D01*
X14462Y424561D01*
X16677Y426776D01*
X19571Y427975D01*
X46199Y427975D01*
X49093Y426776D01*
X51308Y424561D01*
X52507Y421666D01*
X52507Y418534D01*
X51308Y415639D01*
X49093Y413424D01*
X46199Y412225D01*
X19571Y412225D01*
G37*
%LPD*%
%LPC*%
G36*
X19571Y285225D02*
X19571Y285225D01*
X16677Y286424D01*
X14462Y288639D01*
X13263Y291534D01*
X13263Y294666D01*
X14462Y297561D01*
X16677Y299776D01*
X19571Y300975D01*
X46199Y300975D01*
X49093Y299776D01*
X51308Y297561D01*
X52507Y294666D01*
X52507Y291534D01*
X51308Y288639D01*
X49093Y286424D01*
X46199Y285225D01*
X19571Y285225D01*
G37*
%LPD*%
%LPC*%
G36*
X19571Y386825D02*
X19571Y386825D01*
X16677Y388024D01*
X14462Y390239D01*
X13263Y393134D01*
X13263Y396266D01*
X14462Y399161D01*
X16677Y401376D01*
X19571Y402575D01*
X46199Y402575D01*
X49093Y401376D01*
X51308Y399161D01*
X52507Y396266D01*
X52507Y393134D01*
X51308Y390239D01*
X49093Y388024D01*
X46199Y386825D01*
X19571Y386825D01*
G37*
%LPD*%
%LPC*%
G36*
X19571Y361425D02*
X19571Y361425D01*
X16677Y362624D01*
X14462Y364839D01*
X13263Y367734D01*
X13263Y370866D01*
X14462Y373761D01*
X16677Y375976D01*
X19571Y377175D01*
X46199Y377175D01*
X49093Y375976D01*
X51308Y373761D01*
X52507Y370866D01*
X52507Y367734D01*
X51308Y364839D01*
X49093Y362624D01*
X46199Y361425D01*
X19571Y361425D01*
G37*
%LPD*%
%LPC*%
G36*
X171971Y361425D02*
X171971Y361425D01*
X169077Y362624D01*
X166862Y364839D01*
X165663Y367734D01*
X165663Y370866D01*
X166862Y373761D01*
X169077Y375976D01*
X171971Y377175D01*
X198599Y377175D01*
X201493Y375976D01*
X203708Y373761D01*
X204907Y370866D01*
X204907Y367734D01*
X203708Y364839D01*
X201493Y362624D01*
X198599Y361425D01*
X171971Y361425D01*
G37*
%LPD*%
%LPC*%
G36*
X19571Y336025D02*
X19571Y336025D01*
X16677Y337224D01*
X14462Y339439D01*
X13263Y342334D01*
X13263Y345466D01*
X14462Y348361D01*
X16677Y350576D01*
X19571Y351775D01*
X46199Y351775D01*
X49093Y350576D01*
X51308Y348361D01*
X52507Y345466D01*
X52507Y342334D01*
X51308Y339439D01*
X49093Y337224D01*
X46199Y336025D01*
X19571Y336025D01*
G37*
%LPD*%
%LPC*%
G36*
X171971Y336025D02*
X171971Y336025D01*
X169077Y337224D01*
X166862Y339439D01*
X165663Y342334D01*
X165663Y345466D01*
X166862Y348361D01*
X169077Y350576D01*
X171971Y351775D01*
X198599Y351775D01*
X201493Y350576D01*
X203708Y348361D01*
X204907Y345466D01*
X204907Y342334D01*
X203708Y339439D01*
X201493Y337224D01*
X198599Y336025D01*
X171971Y336025D01*
G37*
%LPD*%
%LPC*%
G36*
X171971Y310625D02*
X171971Y310625D01*
X169077Y311824D01*
X166862Y314039D01*
X165663Y316934D01*
X165663Y320066D01*
X166862Y322961D01*
X169077Y325176D01*
X171971Y326375D01*
X198599Y326375D01*
X201493Y325176D01*
X203708Y322961D01*
X204907Y320066D01*
X204907Y316934D01*
X203708Y314039D01*
X201493Y311824D01*
X198599Y310625D01*
X171971Y310625D01*
G37*
%LPD*%
%LPC*%
G36*
X19571Y310625D02*
X19571Y310625D01*
X16677Y311824D01*
X14462Y314039D01*
X13263Y316934D01*
X13263Y320066D01*
X14462Y322961D01*
X16677Y325176D01*
X19571Y326375D01*
X46199Y326375D01*
X49093Y325176D01*
X51308Y322961D01*
X52507Y320066D01*
X52507Y316934D01*
X51308Y314039D01*
X49093Y311824D01*
X46199Y310625D01*
X19571Y310625D01*
G37*
%LPD*%
%LPC*%
G36*
X19571Y259825D02*
X19571Y259825D01*
X16677Y261024D01*
X14462Y263239D01*
X13263Y266134D01*
X13263Y269266D01*
X14462Y272161D01*
X16677Y274376D01*
X19571Y275575D01*
X46199Y275575D01*
X49093Y274376D01*
X51308Y272161D01*
X52507Y269266D01*
X52507Y266134D01*
X51308Y263239D01*
X49093Y261024D01*
X46199Y259825D01*
X19571Y259825D01*
G37*
%LPD*%
%LPC*%
G36*
X19571Y234425D02*
X19571Y234425D01*
X16677Y235624D01*
X14462Y237839D01*
X13263Y240734D01*
X13263Y243866D01*
X14462Y246761D01*
X16677Y248976D01*
X19571Y250175D01*
X46199Y250175D01*
X49093Y248976D01*
X51308Y246761D01*
X52507Y243866D01*
X52507Y240734D01*
X51308Y237839D01*
X49093Y235624D01*
X46199Y234425D01*
X19571Y234425D01*
G37*
%LPD*%
%LPC*%
G36*
X171971Y234425D02*
X171971Y234425D01*
X169077Y235624D01*
X166862Y237839D01*
X165663Y240734D01*
X165663Y243866D01*
X166862Y246761D01*
X169077Y248976D01*
X171971Y250175D01*
X198599Y250175D01*
X201493Y248976D01*
X203708Y246761D01*
X204907Y243866D01*
X204907Y240734D01*
X203708Y237839D01*
X201493Y235624D01*
X198599Y234425D01*
X171971Y234425D01*
G37*
%LPD*%
%LPC*%
G36*
X19571Y209025D02*
X19571Y209025D01*
X16677Y210224D01*
X14462Y212439D01*
X13263Y215334D01*
X13263Y218466D01*
X14462Y221361D01*
X16677Y223576D01*
X19571Y224775D01*
X46199Y224775D01*
X49093Y223576D01*
X51308Y221361D01*
X52507Y218466D01*
X52507Y215334D01*
X51308Y212439D01*
X49093Y210224D01*
X46199Y209025D01*
X19571Y209025D01*
G37*
%LPD*%
%LPC*%
G36*
X19571Y107425D02*
X19571Y107425D01*
X16677Y108624D01*
X14462Y110839D01*
X13263Y113734D01*
X13263Y116866D01*
X14462Y119761D01*
X16677Y121976D01*
X19571Y123175D01*
X46199Y123175D01*
X49093Y121976D01*
X51308Y119761D01*
X52507Y116866D01*
X52507Y113734D01*
X51308Y110839D01*
X49093Y108624D01*
X46199Y107425D01*
X19571Y107425D01*
G37*
%LPD*%
%LPC*%
G36*
X171971Y107425D02*
X171971Y107425D01*
X169077Y108624D01*
X166862Y110839D01*
X165663Y113734D01*
X165663Y116866D01*
X166862Y119761D01*
X169077Y121976D01*
X171971Y123175D01*
X198599Y123175D01*
X201493Y121976D01*
X203708Y119761D01*
X204907Y116866D01*
X204907Y113734D01*
X203708Y110839D01*
X201493Y108624D01*
X198599Y107425D01*
X171971Y107425D01*
G37*
%LPD*%
%LPC*%
G36*
X171971Y82025D02*
X171971Y82025D01*
X169077Y83224D01*
X166862Y85439D01*
X165663Y88334D01*
X165663Y91466D01*
X166862Y94361D01*
X169077Y96576D01*
X171971Y97775D01*
X198599Y97775D01*
X201493Y96576D01*
X203708Y94361D01*
X204907Y91466D01*
X204907Y88334D01*
X203708Y85439D01*
X201493Y83224D01*
X198599Y82025D01*
X171971Y82025D01*
G37*
%LPD*%
%LPC*%
G36*
X19571Y82025D02*
X19571Y82025D01*
X16677Y83224D01*
X14462Y85439D01*
X13263Y88334D01*
X13263Y91466D01*
X14462Y94361D01*
X16677Y96576D01*
X19571Y97775D01*
X46199Y97775D01*
X49093Y96576D01*
X51308Y94361D01*
X52507Y91466D01*
X52507Y88334D01*
X51308Y85439D01*
X49093Y83224D01*
X46199Y82025D01*
X19571Y82025D01*
G37*
%LPD*%
%LPC*%
G36*
X19571Y56625D02*
X19571Y56625D01*
X16677Y57824D01*
X14462Y60039D01*
X13263Y62934D01*
X13263Y66066D01*
X14462Y68961D01*
X16677Y71176D01*
X19571Y72375D01*
X46199Y72375D01*
X49093Y71176D01*
X51308Y68961D01*
X52507Y66066D01*
X52507Y62934D01*
X51308Y60039D01*
X49093Y57824D01*
X46199Y56625D01*
X19571Y56625D01*
G37*
%LPD*%
%LPC*%
G36*
X171971Y56625D02*
X171971Y56625D01*
X169077Y57824D01*
X166862Y60039D01*
X165663Y62934D01*
X165663Y66066D01*
X166862Y68961D01*
X169077Y71176D01*
X171971Y72375D01*
X198599Y72375D01*
X201493Y71176D01*
X203708Y68961D01*
X204907Y66066D01*
X204907Y62934D01*
X203708Y60039D01*
X201493Y57824D01*
X198599Y56625D01*
X171971Y56625D01*
G37*
%LPD*%
%LPC*%
G36*
X171971Y31225D02*
X171971Y31225D01*
X169077Y32424D01*
X166862Y34639D01*
X165663Y37534D01*
X165663Y40666D01*
X166862Y43561D01*
X169077Y45776D01*
X171971Y46975D01*
X198599Y46975D01*
X201493Y45776D01*
X203708Y43561D01*
X204907Y40666D01*
X204907Y37534D01*
X203708Y34639D01*
X201493Y32424D01*
X198599Y31225D01*
X171971Y31225D01*
G37*
%LPD*%
%LPC*%
G36*
X19571Y31225D02*
X19571Y31225D01*
X16677Y32424D01*
X14462Y34639D01*
X13263Y37534D01*
X13263Y40666D01*
X14462Y43561D01*
X16677Y45776D01*
X19571Y46975D01*
X46199Y46975D01*
X49093Y45776D01*
X51308Y43561D01*
X52507Y40666D01*
X52507Y37534D01*
X51308Y34639D01*
X49093Y32424D01*
X46199Y31225D01*
X19571Y31225D01*
G37*
%LPD*%
%LPC*%
G36*
X124063Y464184D02*
X124063Y464184D01*
X120981Y465460D01*
X118623Y467818D01*
X117347Y470900D01*
X117347Y487950D01*
X118623Y491032D01*
X120981Y493390D01*
X124063Y494666D01*
X127397Y494666D01*
X130479Y493390D01*
X132837Y491032D01*
X134113Y487950D01*
X134113Y470900D01*
X132837Y467818D01*
X130479Y465460D01*
X127397Y464184D01*
X124063Y464184D01*
G37*
%LPD*%
%LPC*%
G36*
X98663Y464184D02*
X98663Y464184D01*
X95581Y465460D01*
X93223Y467818D01*
X91947Y470900D01*
X91947Y487950D01*
X93223Y491032D01*
X95581Y493390D01*
X98663Y494666D01*
X101997Y494666D01*
X105079Y493390D01*
X107437Y491032D01*
X108713Y487950D01*
X108713Y470900D01*
X107437Y467818D01*
X105079Y465460D01*
X101997Y464184D01*
X98663Y464184D01*
G37*
%LPD*%
%LPC*%
G36*
X19622Y183879D02*
X19622Y183879D01*
X16821Y185039D01*
X14677Y187183D01*
X13517Y189984D01*
X13517Y193016D01*
X14677Y195817D01*
X16821Y197961D01*
X19622Y199121D01*
X22653Y199121D01*
X25454Y197961D01*
X27598Y195817D01*
X28758Y193016D01*
X28758Y189984D01*
X27598Y187183D01*
X25454Y185039D01*
X22653Y183879D01*
X19622Y183879D01*
G37*
%LPD*%
%LPC*%
G36*
X19622Y133079D02*
X19622Y133079D01*
X16821Y134239D01*
X14677Y136383D01*
X13517Y139184D01*
X13517Y142216D01*
X14677Y145017D01*
X16821Y147161D01*
X19622Y148321D01*
X22653Y148321D01*
X25454Y147161D01*
X27598Y145017D01*
X28758Y142216D01*
X28758Y139184D01*
X27598Y136383D01*
X25454Y134239D01*
X22653Y133079D01*
X19622Y133079D01*
G37*
%LPD*%
%LPC*%
G36*
X227437Y297941D02*
X227437Y297941D01*
X227534Y298429D01*
X228185Y300001D01*
X229130Y301416D01*
X230333Y302619D01*
X231748Y303564D01*
X233320Y304215D01*
X234988Y304547D01*
X239904Y304547D01*
X239904Y297941D01*
X227437Y297941D01*
G37*
%LPD*%
%LPC*%
G36*
X234988Y409828D02*
X234988Y409828D01*
X233320Y410160D01*
X231748Y410811D01*
X230333Y411756D01*
X229130Y412959D01*
X228185Y414374D01*
X227534Y415946D01*
X227437Y416434D01*
X239904Y416434D01*
X239904Y409828D01*
X234988Y409828D01*
G37*
%LPD*%
%LPC*%
G36*
X234988Y287273D02*
X234988Y287273D01*
X233320Y287605D01*
X231748Y288256D01*
X230333Y289201D01*
X229130Y290404D01*
X228185Y291819D01*
X227534Y293391D01*
X227437Y293879D01*
X239904Y293879D01*
X239904Y287273D01*
X234988Y287273D01*
G37*
%LPD*%
%LPC*%
G36*
X23169Y15731D02*
X23169Y15731D01*
X23169Y22102D01*
X23657Y22005D01*
X25229Y21354D01*
X26643Y20409D01*
X27846Y19206D01*
X28791Y17791D01*
X29442Y16219D01*
X29539Y15731D01*
X23169Y15731D01*
G37*
%LPD*%
%LPC*%
G36*
X12736Y15731D02*
X12736Y15731D01*
X12833Y16219D01*
X13484Y17791D01*
X14429Y19206D01*
X15632Y20409D01*
X17046Y21354D01*
X18618Y22005D01*
X19106Y22102D01*
X19106Y15731D01*
X12736Y15731D01*
G37*
%LPD*%
%LPC*%
G36*
X46382Y15449D02*
X46382Y15449D01*
X46382Y21324D01*
X46913Y21218D01*
X48336Y20629D01*
X49617Y19773D01*
X50706Y18684D01*
X51561Y17403D01*
X52151Y15981D01*
X52256Y15449D01*
X46382Y15449D01*
G37*
%LPD*%
%LPC*%
G36*
X37009Y15449D02*
X37009Y15449D01*
X37114Y15981D01*
X37704Y17403D01*
X38559Y18684D01*
X39648Y19773D01*
X40929Y20629D01*
X42352Y21218D01*
X42883Y21324D01*
X42883Y15449D01*
X37009Y15449D01*
G37*
%LPD*%
D10*
X229498Y-28784D02*
X218821Y-28784D01*
X218821Y-21666D01*
X220601Y-17090D02*
X225939Y-17090D01*
X220601Y-17090D02*
X218821Y-15310D01*
X218821Y-9972D01*
X225939Y-9972D01*
X225939Y-5396D02*
X218821Y-5396D01*
X225939Y-5396D02*
X225939Y-3616D01*
X224160Y-1837D01*
X218821Y-1837D01*
X224160Y-1837D02*
X225939Y-57D01*
X224160Y1722D01*
X218821Y1722D01*
X225939Y8078D02*
X225939Y11637D01*
X224160Y13416D01*
X218821Y13416D01*
X218821Y8078D01*
X220601Y6298D01*
X222380Y8078D01*
X222380Y13416D01*
X218821Y17992D02*
X229498Y17992D01*
X229498Y25110D01*
X224160Y21551D02*
X224160Y17992D01*
X225939Y29686D02*
X225939Y31465D01*
X218821Y31465D01*
X218821Y29686D02*
X218821Y33245D01*
X229498Y31465D02*
X231278Y31465D01*
X225939Y37482D02*
X218821Y44600D01*
X218821Y37482D02*
X225939Y44600D01*
X224160Y49176D02*
X224160Y56294D01*
X227719Y52735D02*
X220601Y52735D01*
X222380Y60870D02*
X229498Y60870D01*
X222380Y60870D02*
X218821Y64429D01*
X222380Y67988D01*
X229498Y67988D01*
X218821Y72564D02*
X218821Y76123D01*
X218821Y74343D02*
X229498Y74343D01*
X229498Y72564D02*
X229498Y76123D01*
X229498Y85698D02*
X227719Y87478D01*
X229498Y85698D02*
X229498Y82139D01*
X227719Y80360D01*
X220601Y80360D01*
X218821Y82139D01*
X218821Y85698D01*
X220601Y87478D01*
X224160Y92054D02*
X224160Y99172D01*
X218821Y103748D02*
X218821Y109086D01*
X220601Y110866D01*
X222380Y109086D01*
X222380Y105527D01*
X224160Y103748D01*
X225939Y105527D01*
X225939Y110866D01*
X218821Y117221D02*
X218821Y120780D01*
X218821Y117221D02*
X220601Y115442D01*
X224160Y115442D01*
X225939Y117221D01*
X225939Y120780D01*
X224160Y122560D01*
X222380Y122560D01*
X222380Y115442D01*
X229498Y127136D02*
X229498Y128915D01*
X218821Y128915D01*
X218821Y127136D02*
X218821Y130695D01*
X218821Y136711D02*
X218821Y140270D01*
X218821Y136711D02*
X220601Y134932D01*
X224160Y134932D01*
X225939Y136711D01*
X225939Y140270D01*
X224160Y142050D01*
X222380Y142050D01*
X222380Y134932D01*
X225939Y148405D02*
X225939Y153744D01*
X225939Y148405D02*
X224160Y146626D01*
X220601Y146626D01*
X218821Y148405D01*
X218821Y153744D01*
X220601Y160099D02*
X227719Y160099D01*
X220601Y160099D02*
X218821Y161879D01*
X225939Y161879D02*
X225939Y158320D01*
D11*
X21138Y496300D03*
D12*
X21138Y470900D03*
X21138Y445500D03*
X21138Y420100D03*
X21138Y394700D03*
X21138Y369300D03*
X21138Y343900D03*
X21138Y318500D03*
X21138Y293100D03*
X21138Y267700D03*
X21138Y242300D03*
X21138Y216900D03*
X21138Y191500D03*
X21138Y166100D03*
X21138Y140700D03*
X21138Y115300D03*
X21138Y89900D03*
X21138Y64500D03*
X21138Y39100D03*
X21138Y13700D03*
X173538Y13700D03*
X173538Y39100D03*
X173538Y64500D03*
X173538Y89900D03*
X173538Y115300D03*
X173538Y140700D03*
X173538Y166100D03*
X173538Y191500D03*
X173538Y216900D03*
X173538Y242300D03*
X173538Y267700D03*
X173538Y293100D03*
X173538Y318500D03*
X173538Y343900D03*
X173538Y369300D03*
X173538Y394700D03*
X173538Y420100D03*
X173538Y445500D03*
X173538Y470900D03*
X173538Y496300D03*
D13*
X44633Y496300D03*
D14*
X44633Y470900D03*
X44633Y445500D03*
X44633Y420100D03*
X44633Y394700D03*
X44633Y369300D03*
X44633Y343900D03*
X44633Y318500D03*
X44633Y293100D03*
X44633Y267700D03*
X44633Y242300D03*
X44633Y216900D03*
X44633Y191500D03*
X44633Y166100D03*
X44633Y140700D03*
X44633Y115300D03*
X44633Y89900D03*
X44633Y64500D03*
X44633Y39100D03*
X44633Y13700D03*
X197033Y13700D03*
X197033Y39100D03*
X197033Y64500D03*
X197033Y89900D03*
X197033Y115300D03*
X197033Y140700D03*
X197033Y166100D03*
X197033Y191500D03*
X197033Y216900D03*
X197033Y242300D03*
X197033Y267700D03*
X197033Y293100D03*
X197033Y318500D03*
X197033Y343900D03*
X197033Y369300D03*
X197033Y394700D03*
X197033Y420100D03*
X197033Y445500D03*
X197033Y470900D03*
X197033Y496300D03*
D15*
X314671Y552704D02*
X314671Y566178D01*
X314671Y552704D02*
X307935Y552704D01*
X305689Y554950D01*
X305689Y559441D01*
X307935Y561686D01*
X314671Y561686D01*
X319722Y561686D02*
X319722Y552704D01*
X319722Y557195D02*
X324213Y561686D01*
X326459Y561686D01*
X331416Y561686D02*
X333661Y561686D01*
X333661Y552704D01*
X331416Y552704D02*
X335907Y552704D01*
X333661Y566178D02*
X333661Y568423D01*
X340771Y566178D02*
X343017Y566178D01*
X343017Y552704D01*
X345262Y552704D02*
X340771Y552704D01*
X350126Y566178D02*
X352372Y566178D01*
X352372Y552704D01*
X354617Y552704D02*
X350126Y552704D01*
X375760Y554950D02*
X375760Y563932D01*
X375760Y554950D02*
X378005Y552704D01*
X378005Y561686D02*
X373514Y561686D01*
X385115Y561686D02*
X389606Y561686D01*
X391852Y559441D01*
X391852Y552704D01*
X385115Y552704D01*
X382869Y554950D01*
X385115Y557195D01*
X391852Y557195D01*
X396902Y552704D02*
X396902Y566178D01*
X396902Y552704D02*
X403639Y552704D01*
X405884Y554950D01*
X405884Y559441D01*
X403639Y561686D01*
X396902Y561686D01*
X410935Y566178D02*
X413180Y566178D01*
X413180Y552704D01*
X410935Y552704D02*
X415426Y552704D01*
X422536Y552704D02*
X427027Y552704D01*
X422536Y552704D02*
X420290Y554950D01*
X420290Y559441D01*
X422536Y561686D01*
X427027Y561686D01*
X429272Y559441D01*
X429272Y557195D01*
X420290Y557195D01*
X13589Y552704D02*
X13589Y566178D01*
X13589Y552704D02*
X20326Y552704D01*
X22571Y554950D01*
X22571Y559441D01*
X20326Y561686D01*
X13589Y561686D01*
X29867Y552704D02*
X34359Y552704D01*
X36604Y554950D01*
X36604Y559441D01*
X34359Y561686D01*
X29867Y561686D01*
X27622Y559441D01*
X27622Y554950D01*
X29867Y552704D01*
X43900Y554950D02*
X43900Y563932D01*
X43900Y554950D02*
X46146Y552704D01*
X46146Y561686D02*
X41655Y561686D01*
X53255Y563932D02*
X53255Y554950D01*
X55501Y552704D01*
X55501Y561686D02*
X51010Y561686D01*
X62611Y552704D02*
X67102Y552704D01*
X69347Y554950D01*
X69347Y559441D01*
X67102Y561686D01*
X62611Y561686D01*
X60365Y559441D01*
X60365Y554950D01*
X62611Y552704D01*
X74398Y552704D02*
X74398Y561686D01*
X76643Y561686D01*
X78889Y559441D01*
X78889Y552704D01*
X78889Y559441D02*
X81134Y561686D01*
X83380Y559441D01*
X83380Y552704D01*
D16*
X366713Y558165D03*
D10*
X142812Y20206D02*
X142812Y5461D01*
X142812Y20206D02*
X135440Y20206D01*
X132982Y17748D01*
X132982Y15291D01*
X135440Y12833D01*
X132982Y10376D01*
X132982Y7918D01*
X135440Y5461D01*
X142812Y5461D01*
X142812Y12833D02*
X135440Y12833D01*
X124919Y20206D02*
X120004Y20206D01*
X124919Y20206D02*
X127376Y17748D01*
X127376Y7918D01*
X124919Y5461D01*
X120004Y5461D01*
X117546Y7918D01*
X117546Y17748D01*
X120004Y20206D01*
X107025Y20206D02*
X107025Y5461D01*
X111940Y20206D02*
X102110Y20206D01*
D17*
X125730Y472567D02*
X125730Y486283D01*
X100330Y486283D02*
X100330Y472567D01*
X74930Y472567D02*
X74930Y486283D01*
X89535Y259588D02*
X89535Y245872D01*
X114935Y245872D02*
X114935Y259588D01*
X115570Y217678D02*
X115570Y203962D01*
X90170Y203962D02*
X90170Y217678D01*
D18*
X235839Y346710D02*
X248031Y346710D01*
X248031Y295910D02*
X235839Y295910D01*
X235839Y321310D02*
X248031Y321310D01*
X248031Y469265D02*
X235839Y469265D01*
X235839Y418465D02*
X248031Y418465D01*
X248031Y443865D02*
X235839Y443865D01*
X235204Y231140D02*
X247396Y231140D01*
X247396Y180340D02*
X235204Y180340D01*
X235204Y205740D02*
X247396Y205740D01*
D19*
X44633Y115300D02*
X21138Y115300D01*
X173538Y496300D02*
X197033Y496300D01*
X44633Y13700D02*
X21138Y13700D01*
D20*
X132715Y325755D03*
D21*
X154305Y325755D01*
X160020Y331470D01*
X209050Y331470D01*
X215900Y338320D01*
X215900Y399415D01*
X234950Y418465D01*
X209050Y331470D02*
X215900Y324620D01*
X215900Y300990D02*
X220980Y295910D01*
X241935Y295910D01*
X215900Y300990D02*
X215900Y324620D01*
D19*
X44633Y496300D02*
X21138Y496300D01*
X21138Y470900D02*
X44633Y470900D01*
X44633Y445500D02*
X21138Y445500D01*
X21138Y420100D02*
X44633Y420100D01*
X44633Y394700D02*
X21138Y394700D01*
X21138Y369300D02*
X44633Y369300D01*
X44633Y343900D02*
X21138Y343900D01*
X21138Y318500D02*
X44633Y318500D01*
X44633Y293100D02*
X21138Y293100D01*
X21138Y267700D02*
X44633Y267700D01*
X44633Y242300D02*
X21138Y242300D01*
X21138Y216900D02*
X44633Y216900D01*
D21*
X68580Y473075D02*
X74930Y479425D01*
X68580Y473075D02*
X68580Y214178D01*
X45903Y191500D01*
X44633Y191500D01*
D19*
X44633Y89900D02*
X21138Y89900D01*
D22*
X44633Y89900D02*
X45085Y90170D01*
D19*
X44633Y64500D02*
X21138Y64500D01*
X21138Y39100D02*
X44633Y39100D01*
X173538Y13700D02*
X197033Y13700D01*
X197033Y39100D02*
X173538Y39100D01*
X173538Y64500D02*
X197033Y64500D01*
X197033Y89900D02*
X173538Y89900D01*
X173538Y115300D02*
X197033Y115300D01*
X197033Y140700D02*
X173538Y140700D01*
X173538Y166100D02*
X197033Y166100D01*
X197033Y191500D02*
X173538Y191500D01*
X173538Y216900D02*
X197033Y216900D01*
X197033Y242300D02*
X173538Y242300D01*
X173538Y267700D02*
X197033Y267700D01*
X197033Y293100D02*
X173538Y293100D01*
X173538Y318500D02*
X197033Y318500D01*
X197033Y343900D02*
X173538Y343900D01*
X173538Y369300D02*
X197033Y369300D01*
X197033Y394700D02*
X173538Y394700D01*
X173538Y420100D02*
X197033Y420100D01*
X197033Y445500D02*
X173538Y445500D01*
X173538Y470900D02*
X197033Y470900D01*
D21*
X167640Y406908D02*
X137160Y376428D01*
X167640Y406908D02*
X204216Y406908D01*
X240792Y443484D01*
D23*
X241935Y443865D01*
D24*
X137160Y376428D03*
D21*
X167640Y280416D02*
X128016Y240792D01*
X167640Y280416D02*
X201168Y280416D01*
D23*
X202692Y281940D01*
D24*
X128016Y240792D03*
X202692Y281940D03*
D21*
X123952Y294005D02*
X123952Y389128D01*
X167640Y432816D01*
X202692Y432816D01*
X237744Y467868D01*
D23*
X240792Y467868D01*
X241935Y469265D01*
D21*
X102055Y272108D02*
X104775Y123190D01*
X102055Y272108D02*
X123952Y294005D01*
D24*
X104775Y123190D03*
D21*
X118872Y103632D02*
X168529Y153289D01*
X202057Y153289D01*
X207264Y158496D01*
D24*
X118872Y103632D03*
X207264Y158496D03*
D21*
X205105Y177800D02*
X167005Y177800D01*
X205105Y177800D02*
X219075Y191770D01*
X86273Y116840D02*
X44633Y158480D01*
X44633Y166100D01*
D24*
X219075Y191770D03*
D21*
X106045Y116840D02*
X86273Y116840D01*
X106045Y116840D02*
X167005Y177800D01*
X219075Y203200D02*
X241300Y180975D01*
X219075Y203200D02*
X152400Y203200D01*
X114935Y240665D01*
X114935Y252730D01*
D23*
X241300Y180975D02*
X241300Y180340D01*
D21*
X53523Y180070D02*
X35108Y180070D01*
X21138Y166100D01*
X53523Y180070D02*
X77470Y204018D01*
X77470Y229235D01*
X89535Y241300D01*
D23*
X90805Y241300D01*
D21*
X90805Y251460D01*
D23*
X89535Y252730D01*
M02*
