G04 EAGLE Gerber RS-274X export*
G75*
%MOMM*%
%FSLAX34Y34*%
%LPD*%
%INTop Copper*%
%IPPOS*%
%AMOC8*
5,1,8,0,0,1.08239X$1,22.5*%
G01*
%ADD10R,1.219200X1.219200*%
%ADD11C,1.219200*%
%ADD12R,1.055600X1.055600*%
%ADD13C,1.055600*%
%ADD14R,1.397000X1.092200*%
%ADD15R,2.032000X0.660400*%
%ADD16C,0.203200*%
%ADD17C,0.177800*%
%ADD18R,13.652500X2.540000*%
%ADD19R,1.092200X1.397000*%
%ADD20C,1.000000*%
%ADD21C,1.371600*%
%ADD22C,1.219200*%
%ADD23C,1.016000*%
%ADD24C,0.609600*%
%ADD25C,0.152400*%
%ADD26C,0.254000*%
%ADD27C,0.300000*%
%ADD28C,0.705600*%
%ADD29C,0.685800*%
%ADD30C,0.304800*%

G36*
X16424Y4329D02*
X16424Y4329D01*
X16552Y4343D01*
X16565Y4349D01*
X16579Y4351D01*
X16696Y4403D01*
X16814Y4452D01*
X16825Y4461D01*
X16838Y4467D01*
X16936Y4550D01*
X17036Y4630D01*
X17044Y4642D01*
X17055Y4650D01*
X17126Y4757D01*
X17200Y4862D01*
X17205Y4876D01*
X17213Y4887D01*
X17251Y5010D01*
X17293Y5131D01*
X17294Y5145D01*
X17298Y5158D01*
X17302Y5287D01*
X17308Y5415D01*
X17305Y5428D01*
X17306Y5442D01*
X17273Y5567D01*
X17244Y5692D01*
X17237Y5704D01*
X17234Y5717D01*
X17168Y5828D01*
X17105Y5940D01*
X17096Y5949D01*
X17089Y5962D01*
X16881Y6156D01*
X16869Y6162D01*
X16861Y6170D01*
X15632Y6991D01*
X14429Y8194D01*
X13484Y9609D01*
X12833Y11181D01*
X12736Y11669D01*
X20121Y11669D01*
X20179Y11677D01*
X20238Y11675D01*
X20319Y11697D01*
X20403Y11709D01*
X20456Y11733D01*
X20513Y11747D01*
X20585Y11790D01*
X20662Y11825D01*
X20707Y11863D01*
X20757Y11893D01*
X20815Y11954D01*
X20879Y12009D01*
X20912Y12057D01*
X20952Y12100D01*
X20990Y12175D01*
X21037Y12245D01*
X21055Y12301D01*
X21081Y12353D01*
X21093Y12421D01*
X21123Y12516D01*
X21125Y12616D01*
X21137Y12684D01*
X21137Y13701D01*
X21138Y13701D01*
X21138Y12684D01*
X21147Y12626D01*
X21145Y12568D01*
X21166Y12486D01*
X21178Y12403D01*
X21202Y12349D01*
X21217Y12293D01*
X21260Y12220D01*
X21294Y12143D01*
X21332Y12098D01*
X21362Y12048D01*
X21424Y11990D01*
X21478Y11926D01*
X21527Y11894D01*
X21569Y11854D01*
X21645Y11815D01*
X21715Y11769D01*
X21771Y11751D01*
X21823Y11724D01*
X21891Y11713D01*
X21986Y11683D01*
X22086Y11680D01*
X22154Y11669D01*
X29539Y11669D01*
X29442Y11181D01*
X28791Y9609D01*
X27846Y8194D01*
X26643Y6991D01*
X25414Y6170D01*
X25318Y6084D01*
X25220Y6001D01*
X25212Y5990D01*
X25202Y5981D01*
X25134Y5872D01*
X25062Y5765D01*
X25058Y5752D01*
X25051Y5740D01*
X25015Y5616D01*
X24977Y5494D01*
X24976Y5480D01*
X24973Y5467D01*
X24973Y5338D01*
X24969Y5210D01*
X24973Y5196D01*
X24973Y5182D01*
X25009Y5059D01*
X25041Y4935D01*
X25048Y4923D01*
X25052Y4909D01*
X25121Y4801D01*
X25186Y4690D01*
X25197Y4681D01*
X25204Y4669D01*
X25300Y4584D01*
X25394Y4496D01*
X25406Y4489D01*
X25417Y4480D01*
X25532Y4425D01*
X25647Y4366D01*
X25659Y4364D01*
X25673Y4358D01*
X25954Y4311D01*
X25967Y4313D01*
X25978Y4311D01*
X41765Y4311D01*
X41850Y4323D01*
X41936Y4325D01*
X41990Y4343D01*
X42046Y4351D01*
X42125Y4386D01*
X42207Y4412D01*
X42254Y4444D01*
X42306Y4467D01*
X42371Y4522D01*
X42443Y4570D01*
X42479Y4614D01*
X42523Y4650D01*
X42570Y4722D01*
X42626Y4788D01*
X42649Y4840D01*
X42680Y4887D01*
X42706Y4969D01*
X42741Y5048D01*
X42749Y5104D01*
X42766Y5158D01*
X42768Y5244D01*
X42780Y5329D01*
X42772Y5385D01*
X42773Y5442D01*
X42752Y5525D01*
X42739Y5611D01*
X42716Y5662D01*
X42702Y5717D01*
X42658Y5791D01*
X42622Y5870D01*
X42585Y5913D01*
X42556Y5962D01*
X42494Y6021D01*
X42438Y6086D01*
X42396Y6112D01*
X42349Y6156D01*
X42220Y6222D01*
X42153Y6264D01*
X40929Y6771D01*
X39648Y7627D01*
X38559Y8716D01*
X37704Y9997D01*
X37114Y11419D01*
X37009Y11951D01*
X43898Y11951D01*
X43956Y11959D01*
X44015Y11957D01*
X44096Y11979D01*
X44180Y11991D01*
X44233Y12014D01*
X44290Y12029D01*
X44362Y12072D01*
X44439Y12107D01*
X44484Y12145D01*
X44534Y12174D01*
X44592Y12236D01*
X44636Y12273D01*
X44637Y12272D01*
X44691Y12208D01*
X44740Y12176D01*
X44783Y12136D01*
X44858Y12097D01*
X44928Y12050D01*
X44984Y12033D01*
X45036Y12006D01*
X45104Y11995D01*
X45199Y11965D01*
X45299Y11962D01*
X45367Y11951D01*
X52256Y11951D01*
X52151Y11419D01*
X51561Y9997D01*
X50706Y8716D01*
X49617Y7627D01*
X48336Y6771D01*
X47112Y6264D01*
X47038Y6220D01*
X46959Y6185D01*
X46916Y6148D01*
X46867Y6119D01*
X46808Y6057D01*
X46742Y6001D01*
X46711Y5954D01*
X46672Y5913D01*
X46632Y5836D01*
X46585Y5765D01*
X46567Y5711D01*
X46541Y5660D01*
X46525Y5576D01*
X46499Y5494D01*
X46497Y5437D01*
X46486Y5381D01*
X46494Y5296D01*
X46492Y5210D01*
X46506Y5155D01*
X46511Y5098D01*
X46542Y5018D01*
X46563Y4935D01*
X46592Y4886D01*
X46613Y4833D01*
X46665Y4764D01*
X46709Y4690D01*
X46750Y4651D01*
X46784Y4606D01*
X46853Y4554D01*
X46916Y4496D01*
X46967Y4470D01*
X47012Y4436D01*
X47092Y4405D01*
X47169Y4366D01*
X47218Y4358D01*
X47278Y4335D01*
X47423Y4324D01*
X47500Y4311D01*
X98362Y4311D01*
X98419Y4319D01*
X98478Y4317D01*
X98559Y4339D01*
X98643Y4351D01*
X98696Y4374D01*
X98753Y4389D01*
X98825Y4432D01*
X98902Y4467D01*
X98947Y4505D01*
X98997Y4534D01*
X99055Y4596D01*
X99119Y4650D01*
X99152Y4699D01*
X99192Y4742D01*
X99230Y4817D01*
X99277Y4887D01*
X99295Y4943D01*
X99321Y4995D01*
X99333Y5063D01*
X99363Y5158D01*
X99365Y5258D01*
X99377Y5326D01*
X99377Y23495D01*
X99377Y23496D01*
X145415Y23496D01*
X145416Y23495D01*
X145416Y5326D01*
X145424Y5268D01*
X145422Y5210D01*
X145444Y5128D01*
X145456Y5044D01*
X145479Y4991D01*
X145494Y4935D01*
X145537Y4862D01*
X145572Y4785D01*
X145610Y4740D01*
X145639Y4690D01*
X145701Y4632D01*
X145755Y4568D01*
X145804Y4536D01*
X145847Y4496D01*
X145922Y4457D01*
X145992Y4410D01*
X146048Y4393D01*
X146100Y4366D01*
X146168Y4355D01*
X146263Y4325D01*
X146363Y4322D01*
X146431Y4311D01*
X171187Y4311D01*
X171272Y4323D01*
X171358Y4325D01*
X171412Y4343D01*
X171469Y4351D01*
X171547Y4386D01*
X171629Y4412D01*
X171676Y4444D01*
X171728Y4467D01*
X171794Y4522D01*
X171865Y4570D01*
X171902Y4614D01*
X171945Y4650D01*
X171993Y4722D01*
X172048Y4788D01*
X172071Y4840D01*
X172103Y4887D01*
X172129Y4969D01*
X172164Y5048D01*
X172171Y5104D01*
X172189Y5158D01*
X172191Y5244D01*
X172203Y5329D01*
X172194Y5385D01*
X172196Y5442D01*
X172174Y5525D01*
X172162Y5610D01*
X172138Y5662D01*
X172124Y5717D01*
X172080Y5791D01*
X172045Y5870D01*
X172008Y5913D01*
X171979Y5962D01*
X171916Y6021D01*
X171860Y6086D01*
X171818Y6112D01*
X171771Y6156D01*
X171642Y6222D01*
X171576Y6264D01*
X169221Y7239D01*
X167077Y9383D01*
X165917Y12184D01*
X165917Y15216D01*
X167077Y18017D01*
X169221Y20161D01*
X172022Y21321D01*
X175053Y21321D01*
X177854Y20161D01*
X179998Y18017D01*
X181158Y15216D01*
X181158Y12184D01*
X179998Y9383D01*
X177854Y7239D01*
X175499Y6264D01*
X175425Y6220D01*
X175347Y6185D01*
X175303Y6148D01*
X175254Y6119D01*
X175195Y6057D01*
X175130Y6001D01*
X175098Y5954D01*
X175059Y5913D01*
X175020Y5836D01*
X174972Y5765D01*
X174955Y5711D01*
X174929Y5660D01*
X174912Y5576D01*
X174886Y5494D01*
X174885Y5437D01*
X174874Y5381D01*
X174881Y5296D01*
X174879Y5210D01*
X174894Y5155D01*
X174898Y5098D01*
X174929Y5018D01*
X174951Y4935D01*
X174980Y4886D01*
X175000Y4833D01*
X175052Y4764D01*
X175096Y4690D01*
X175138Y4651D01*
X175172Y4606D01*
X175241Y4554D01*
X175304Y4496D01*
X175354Y4470D01*
X175400Y4436D01*
X175480Y4405D01*
X175557Y4366D01*
X175605Y4358D01*
X175666Y4335D01*
X175810Y4324D01*
X175888Y4311D01*
X244388Y4311D01*
X244443Y4319D01*
X244487Y4316D01*
X246374Y4501D01*
X246651Y4569D01*
X246657Y4572D01*
X246663Y4574D01*
X250151Y6018D01*
X250177Y6034D01*
X250207Y6044D01*
X250270Y6089D01*
X250395Y6163D01*
X250440Y6210D01*
X250480Y6238D01*
X253149Y8908D01*
X253168Y8932D01*
X253191Y8952D01*
X253233Y9019D01*
X253320Y9135D01*
X253343Y9195D01*
X253369Y9237D01*
X254814Y12724D01*
X254885Y12999D01*
X254884Y13007D01*
X254886Y13013D01*
X255072Y14900D01*
X255070Y14957D01*
X255077Y15000D01*
X255077Y174792D01*
X255073Y174822D01*
X255075Y174851D01*
X255053Y174962D01*
X255037Y175074D01*
X255025Y175101D01*
X255019Y175129D01*
X254967Y175230D01*
X254921Y175333D01*
X254902Y175356D01*
X254888Y175382D01*
X254810Y175464D01*
X254737Y175550D01*
X254713Y175567D01*
X254692Y175588D01*
X254595Y175645D01*
X254500Y175708D01*
X254472Y175717D01*
X254447Y175732D01*
X254338Y175759D01*
X254229Y175794D01*
X254200Y175794D01*
X254172Y175802D01*
X254059Y175798D01*
X253945Y175801D01*
X253917Y175794D01*
X253887Y175793D01*
X253779Y175758D01*
X253670Y175729D01*
X253645Y175714D01*
X253617Y175705D01*
X253553Y175660D01*
X253426Y175584D01*
X253383Y175538D01*
X253344Y175510D01*
X251713Y173879D01*
X248912Y172719D01*
X233688Y172719D01*
X230887Y173879D01*
X228743Y176023D01*
X227583Y178824D01*
X227583Y181856D01*
X228743Y184657D01*
X230887Y186801D01*
X233688Y187961D01*
X248912Y187961D01*
X251713Y186801D01*
X253344Y185170D01*
X253367Y185152D01*
X253386Y185130D01*
X253480Y185067D01*
X253571Y184999D01*
X253598Y184988D01*
X253623Y184972D01*
X253731Y184938D01*
X253836Y184898D01*
X253866Y184895D01*
X253894Y184886D01*
X254007Y184883D01*
X254120Y184874D01*
X254148Y184880D01*
X254178Y184879D01*
X254287Y184908D01*
X254399Y184930D01*
X254425Y184943D01*
X254453Y184951D01*
X254550Y185009D01*
X254651Y185061D01*
X254672Y185081D01*
X254697Y185096D01*
X254775Y185179D01*
X254857Y185257D01*
X254872Y185282D01*
X254892Y185303D01*
X254943Y185404D01*
X255001Y185502D01*
X255008Y185530D01*
X255021Y185557D01*
X255034Y185634D01*
X255071Y185777D01*
X255069Y185840D01*
X255077Y185888D01*
X255077Y200192D01*
X255073Y200222D01*
X255075Y200251D01*
X255053Y200362D01*
X255037Y200474D01*
X255025Y200501D01*
X255019Y200529D01*
X254967Y200630D01*
X254921Y200733D01*
X254902Y200756D01*
X254888Y200782D01*
X254810Y200864D01*
X254737Y200950D01*
X254713Y200967D01*
X254692Y200988D01*
X254595Y201045D01*
X254500Y201108D01*
X254472Y201117D01*
X254447Y201132D01*
X254338Y201159D01*
X254229Y201194D01*
X254200Y201194D01*
X254172Y201202D01*
X254059Y201198D01*
X253945Y201201D01*
X253917Y201194D01*
X253887Y201193D01*
X253779Y201158D01*
X253670Y201129D01*
X253645Y201114D01*
X253617Y201105D01*
X253553Y201060D01*
X253426Y200984D01*
X253383Y200938D01*
X253344Y200910D01*
X251713Y199279D01*
X248912Y198119D01*
X233688Y198119D01*
X233044Y198386D01*
X233043Y198386D01*
X233041Y198387D01*
X232908Y198421D01*
X232769Y198457D01*
X232767Y198457D01*
X232766Y198457D01*
X232625Y198453D01*
X232485Y198449D01*
X232483Y198448D01*
X232482Y198448D01*
X232347Y198405D01*
X232214Y198362D01*
X232213Y198361D01*
X232211Y198361D01*
X232199Y198352D01*
X231978Y198204D01*
X231958Y198180D01*
X231938Y198166D01*
X224326Y190554D01*
X224274Y190485D01*
X224214Y190421D01*
X224188Y190371D01*
X224155Y190327D01*
X224124Y190245D01*
X224084Y190167D01*
X224076Y190120D01*
X224054Y190061D01*
X224042Y189914D01*
X224029Y189836D01*
X224029Y189718D01*
X221127Y186816D01*
X217023Y186816D01*
X216110Y187729D01*
X216086Y187747D01*
X216067Y187770D01*
X215973Y187832D01*
X215883Y187900D01*
X215855Y187911D01*
X215831Y187927D01*
X215723Y187961D01*
X215617Y188002D01*
X215588Y188004D01*
X215560Y188013D01*
X215446Y188016D01*
X215334Y188025D01*
X215305Y188019D01*
X215276Y188020D01*
X215166Y187992D01*
X215055Y187969D01*
X215029Y187956D01*
X215001Y187948D01*
X214903Y187891D01*
X214803Y187838D01*
X214781Y187818D01*
X214756Y187803D01*
X214679Y187721D01*
X214597Y187643D01*
X214582Y187617D01*
X214562Y187596D01*
X214510Y187495D01*
X214453Y187397D01*
X214446Y187369D01*
X214432Y187343D01*
X214419Y187265D01*
X214383Y187122D01*
X214385Y187059D01*
X214377Y187012D01*
X214377Y159142D01*
X212515Y157280D01*
X212463Y157210D01*
X212403Y157147D01*
X212377Y157097D01*
X212344Y157053D01*
X212313Y156971D01*
X212273Y156893D01*
X212265Y156846D01*
X212243Y156787D01*
X212231Y156640D01*
X212218Y156562D01*
X212218Y156444D01*
X209316Y153542D01*
X205212Y153542D01*
X202310Y156444D01*
X202310Y159403D01*
X202294Y159517D01*
X202284Y159632D01*
X202274Y159657D01*
X202270Y159685D01*
X202223Y159790D01*
X202182Y159897D01*
X202166Y159919D01*
X202154Y159944D01*
X202080Y160032D01*
X202011Y160124D01*
X201988Y160140D01*
X201971Y160161D01*
X201875Y160225D01*
X201783Y160294D01*
X201757Y160304D01*
X201734Y160319D01*
X201624Y160354D01*
X201517Y160394D01*
X201489Y160396D01*
X201463Y160405D01*
X201348Y160408D01*
X201234Y160417D01*
X201209Y160411D01*
X201179Y160412D01*
X200922Y160345D01*
X200906Y160341D01*
X198386Y159297D01*
X195679Y159297D01*
X193179Y160333D01*
X191265Y162246D01*
X190230Y164747D01*
X190230Y167453D01*
X191265Y169954D01*
X193179Y171867D01*
X195679Y172903D01*
X198386Y172903D01*
X200886Y171867D01*
X202800Y169953D01*
X203278Y168798D01*
X203322Y168724D01*
X203357Y168646D01*
X203394Y168602D01*
X203423Y168553D01*
X203485Y168494D01*
X203541Y168429D01*
X203588Y168397D01*
X203629Y168358D01*
X203706Y168319D01*
X203777Y168271D01*
X203831Y168254D01*
X203882Y168228D01*
X203966Y168211D01*
X204048Y168186D01*
X204105Y168184D01*
X204161Y168173D01*
X204246Y168180D01*
X204332Y168178D01*
X204387Y168193D01*
X204444Y168197D01*
X204525Y168228D01*
X204607Y168250D01*
X204656Y168279D01*
X204709Y168300D01*
X204778Y168351D01*
X204852Y168395D01*
X204891Y168437D01*
X204936Y168471D01*
X204988Y168540D01*
X205046Y168603D01*
X205072Y168653D01*
X205106Y168699D01*
X205137Y168779D01*
X205176Y168856D01*
X205184Y168905D01*
X205207Y168965D01*
X205218Y169109D01*
X205231Y169187D01*
X205231Y188413D01*
X205219Y188498D01*
X205217Y188584D01*
X205199Y188638D01*
X205191Y188695D01*
X205156Y188773D01*
X205130Y188855D01*
X205098Y188902D01*
X205075Y188954D01*
X205020Y189020D01*
X204972Y189091D01*
X204928Y189128D01*
X204892Y189171D01*
X204820Y189219D01*
X204754Y189274D01*
X204702Y189297D01*
X204655Y189329D01*
X204573Y189355D01*
X204494Y189390D01*
X204438Y189397D01*
X204384Y189414D01*
X204298Y189417D01*
X204213Y189428D01*
X204157Y189420D01*
X204100Y189422D01*
X204017Y189400D01*
X203931Y189388D01*
X203880Y189364D01*
X203825Y189350D01*
X203751Y189306D01*
X203672Y189271D01*
X203629Y189234D01*
X203580Y189205D01*
X203521Y189142D01*
X203456Y189086D01*
X203430Y189044D01*
X203386Y188997D01*
X203320Y188868D01*
X203278Y188802D01*
X202800Y187647D01*
X200886Y185733D01*
X198386Y184697D01*
X195679Y184697D01*
X193179Y185733D01*
X191265Y187646D01*
X190230Y190147D01*
X190230Y192853D01*
X191265Y195354D01*
X193179Y197267D01*
X195679Y198303D01*
X198386Y198303D01*
X200886Y197267D01*
X202800Y195353D01*
X203278Y194198D01*
X203322Y194124D01*
X203357Y194046D01*
X203394Y194002D01*
X203423Y193953D01*
X203485Y193894D01*
X203541Y193829D01*
X203588Y193797D01*
X203629Y193758D01*
X203706Y193719D01*
X203777Y193671D01*
X203831Y193654D01*
X203882Y193628D01*
X203966Y193611D01*
X204048Y193586D01*
X204105Y193584D01*
X204161Y193573D01*
X204246Y193580D01*
X204332Y193578D01*
X204387Y193593D01*
X204444Y193597D01*
X204525Y193628D01*
X204607Y193650D01*
X204656Y193679D01*
X204709Y193700D01*
X204778Y193751D01*
X204852Y193795D01*
X204891Y193837D01*
X204936Y193871D01*
X204988Y193940D01*
X205046Y194003D01*
X205072Y194053D01*
X205106Y194099D01*
X205137Y194179D01*
X205176Y194256D01*
X205184Y194305D01*
X205207Y194365D01*
X205218Y194509D01*
X205231Y194587D01*
X205231Y213813D01*
X205219Y213898D01*
X205217Y213984D01*
X205199Y214038D01*
X205191Y214095D01*
X205156Y214173D01*
X205130Y214255D01*
X205098Y214302D01*
X205075Y214354D01*
X205020Y214420D01*
X204972Y214491D01*
X204928Y214528D01*
X204892Y214571D01*
X204820Y214619D01*
X204754Y214674D01*
X204702Y214697D01*
X204655Y214729D01*
X204573Y214755D01*
X204494Y214790D01*
X204438Y214797D01*
X204384Y214814D01*
X204298Y214817D01*
X204213Y214828D01*
X204157Y214820D01*
X204100Y214822D01*
X204017Y214800D01*
X203931Y214788D01*
X203880Y214764D01*
X203825Y214750D01*
X203751Y214706D01*
X203672Y214671D01*
X203629Y214634D01*
X203580Y214605D01*
X203521Y214542D01*
X203456Y214486D01*
X203430Y214444D01*
X203386Y214397D01*
X203320Y214268D01*
X203278Y214202D01*
X202800Y213047D01*
X200886Y211133D01*
X198386Y210097D01*
X195679Y210097D01*
X193179Y211133D01*
X191265Y213046D01*
X190230Y215547D01*
X190230Y218253D01*
X191265Y220754D01*
X193179Y222667D01*
X195679Y223703D01*
X198386Y223703D01*
X200886Y222667D01*
X202800Y220753D01*
X203278Y219598D01*
X203322Y219524D01*
X203357Y219446D01*
X203394Y219402D01*
X203423Y219353D01*
X203485Y219294D01*
X203541Y219229D01*
X203588Y219197D01*
X203629Y219158D01*
X203706Y219119D01*
X203777Y219071D01*
X203831Y219054D01*
X203882Y219028D01*
X203966Y219011D01*
X204048Y218986D01*
X204105Y218984D01*
X204161Y218973D01*
X204246Y218980D01*
X204332Y218978D01*
X204387Y218993D01*
X204444Y218997D01*
X204525Y219028D01*
X204607Y219050D01*
X204656Y219079D01*
X204709Y219100D01*
X204778Y219151D01*
X204852Y219195D01*
X204891Y219237D01*
X204936Y219271D01*
X204988Y219340D01*
X205046Y219403D01*
X205072Y219453D01*
X205106Y219499D01*
X205137Y219579D01*
X205176Y219656D01*
X205184Y219705D01*
X205207Y219765D01*
X205218Y219909D01*
X205231Y219987D01*
X205231Y239213D01*
X205219Y239298D01*
X205217Y239384D01*
X205199Y239438D01*
X205191Y239495D01*
X205156Y239573D01*
X205130Y239655D01*
X205098Y239702D01*
X205075Y239754D01*
X205020Y239820D01*
X204972Y239891D01*
X204928Y239928D01*
X204892Y239971D01*
X204820Y240019D01*
X204754Y240074D01*
X204702Y240097D01*
X204655Y240129D01*
X204573Y240155D01*
X204494Y240190D01*
X204438Y240197D01*
X204384Y240215D01*
X204298Y240217D01*
X204213Y240228D01*
X204157Y240220D01*
X204100Y240222D01*
X204017Y240200D01*
X203931Y240188D01*
X203880Y240164D01*
X203825Y240150D01*
X203751Y240106D01*
X203672Y240071D01*
X203629Y240034D01*
X203580Y240005D01*
X203521Y239942D01*
X203456Y239886D01*
X203430Y239844D01*
X203386Y239797D01*
X203320Y239668D01*
X203278Y239602D01*
X202800Y238446D01*
X200886Y236533D01*
X198386Y235497D01*
X195679Y235497D01*
X193179Y236533D01*
X191265Y238446D01*
X190230Y240947D01*
X190230Y243653D01*
X191265Y246154D01*
X193179Y248067D01*
X195679Y249103D01*
X197655Y249103D01*
X197685Y249107D01*
X197714Y249104D01*
X197825Y249127D01*
X197937Y249143D01*
X197964Y249155D01*
X197992Y249160D01*
X198093Y249212D01*
X198196Y249259D01*
X198219Y249278D01*
X198245Y249291D01*
X198327Y249369D01*
X198413Y249442D01*
X198430Y249467D01*
X198451Y249487D01*
X198508Y249585D01*
X198571Y249679D01*
X198580Y249707D01*
X198595Y249732D01*
X198623Y249842D01*
X198657Y249950D01*
X198657Y249979D01*
X198665Y250008D01*
X198661Y250121D01*
X198664Y250234D01*
X198657Y250263D01*
X198656Y250292D01*
X198621Y250400D01*
X198592Y250509D01*
X198577Y250535D01*
X198568Y250563D01*
X198523Y250626D01*
X198447Y250754D01*
X198401Y250797D01*
X198373Y250836D01*
X198047Y251162D01*
X197977Y251214D01*
X197914Y251274D01*
X197864Y251300D01*
X197820Y251333D01*
X197738Y251364D01*
X197660Y251404D01*
X197613Y251412D01*
X197554Y251434D01*
X197407Y251446D01*
X197329Y251459D01*
X190130Y251459D01*
X181355Y260234D01*
X181355Y262289D01*
X181351Y262319D01*
X181354Y262348D01*
X181331Y262459D01*
X181315Y262571D01*
X181303Y262598D01*
X181298Y262626D01*
X181245Y262727D01*
X181199Y262830D01*
X181180Y262853D01*
X181167Y262879D01*
X181089Y262961D01*
X181016Y263047D01*
X180991Y263064D01*
X180971Y263085D01*
X180873Y263142D01*
X180779Y263205D01*
X180751Y263214D01*
X180726Y263229D01*
X180616Y263256D01*
X180508Y263291D01*
X180478Y263291D01*
X180450Y263299D01*
X180337Y263295D01*
X180224Y263298D01*
X180195Y263291D01*
X180166Y263290D01*
X180058Y263255D01*
X179949Y263226D01*
X179923Y263211D01*
X179895Y263202D01*
X179832Y263157D01*
X179704Y263081D01*
X179661Y263035D01*
X179622Y263007D01*
X177854Y261239D01*
X175053Y260079D01*
X172022Y260079D01*
X169221Y261239D01*
X167077Y263383D01*
X165917Y266184D01*
X165917Y269216D01*
X167077Y272017D01*
X169221Y274161D01*
X172022Y275321D01*
X175053Y275321D01*
X177854Y274161D01*
X179622Y272393D01*
X179646Y272375D01*
X179665Y272353D01*
X179759Y272290D01*
X179849Y272222D01*
X179877Y272211D01*
X179901Y272195D01*
X180009Y272161D01*
X180115Y272121D01*
X180144Y272118D01*
X180172Y272109D01*
X180286Y272106D01*
X180398Y272097D01*
X180427Y272103D01*
X180456Y272102D01*
X180566Y272131D01*
X180677Y272153D01*
X180703Y272166D01*
X180731Y272174D01*
X180829Y272232D01*
X180929Y272284D01*
X180951Y272304D01*
X180976Y272319D01*
X181053Y272402D01*
X181135Y272480D01*
X181150Y272505D01*
X181170Y272526D01*
X181222Y272627D01*
X181279Y272725D01*
X181286Y272753D01*
X181300Y272780D01*
X181313Y272857D01*
X181349Y273000D01*
X181347Y273063D01*
X181355Y273111D01*
X181355Y287689D01*
X181351Y287719D01*
X181354Y287748D01*
X181331Y287859D01*
X181315Y287971D01*
X181303Y287998D01*
X181298Y288026D01*
X181245Y288127D01*
X181199Y288230D01*
X181180Y288253D01*
X181167Y288279D01*
X181089Y288361D01*
X181016Y288447D01*
X180991Y288464D01*
X180971Y288485D01*
X180873Y288542D01*
X180779Y288605D01*
X180751Y288614D01*
X180726Y288629D01*
X180616Y288656D01*
X180508Y288691D01*
X180478Y288691D01*
X180450Y288699D01*
X180337Y288695D01*
X180224Y288698D01*
X180195Y288691D01*
X180166Y288690D01*
X180058Y288655D01*
X179949Y288626D01*
X179923Y288611D01*
X179895Y288602D01*
X179832Y288557D01*
X179704Y288481D01*
X179661Y288435D01*
X179622Y288407D01*
X177854Y286639D01*
X175053Y285479D01*
X172022Y285479D01*
X169221Y286639D01*
X167077Y288783D01*
X165917Y291584D01*
X165917Y294616D01*
X167077Y297417D01*
X169221Y299561D01*
X172022Y300721D01*
X175053Y300721D01*
X177854Y299561D01*
X179622Y297793D01*
X179646Y297775D01*
X179665Y297753D01*
X179759Y297690D01*
X179849Y297622D01*
X179877Y297611D01*
X179901Y297595D01*
X180009Y297561D01*
X180115Y297521D01*
X180144Y297518D01*
X180172Y297509D01*
X180286Y297506D01*
X180398Y297497D01*
X180427Y297503D01*
X180456Y297502D01*
X180566Y297531D01*
X180677Y297553D01*
X180703Y297566D01*
X180731Y297574D01*
X180829Y297632D01*
X180929Y297684D01*
X180951Y297704D01*
X180976Y297719D01*
X181053Y297802D01*
X181135Y297880D01*
X181150Y297905D01*
X181170Y297926D01*
X181222Y298027D01*
X181279Y298125D01*
X181286Y298153D01*
X181300Y298180D01*
X181313Y298257D01*
X181349Y298400D01*
X181347Y298463D01*
X181355Y298511D01*
X181355Y300598D01*
X191654Y310897D01*
X192564Y310897D01*
X192593Y310901D01*
X192623Y310898D01*
X192734Y310921D01*
X192846Y310937D01*
X192872Y310949D01*
X192901Y310954D01*
X193002Y311007D01*
X193105Y311053D01*
X193128Y311072D01*
X193154Y311085D01*
X193236Y311163D01*
X193322Y311236D01*
X193338Y311261D01*
X193360Y311281D01*
X193417Y311379D01*
X193480Y311473D01*
X193489Y311501D01*
X193503Y311526D01*
X193531Y311636D01*
X193566Y311744D01*
X193566Y311774D01*
X193573Y311802D01*
X193570Y311915D01*
X193573Y312028D01*
X193565Y312057D01*
X193564Y312086D01*
X193530Y312194D01*
X193501Y312303D01*
X193486Y312329D01*
X193477Y312357D01*
X193431Y312420D01*
X193356Y312548D01*
X193338Y312565D01*
X193336Y312567D01*
X193308Y312594D01*
X193282Y312630D01*
X191265Y314647D01*
X190230Y317147D01*
X190230Y319853D01*
X191265Y322354D01*
X193179Y324267D01*
X195679Y325303D01*
X198386Y325303D01*
X200886Y324267D01*
X202800Y322354D01*
X203835Y319853D01*
X203835Y317147D01*
X203517Y316378D01*
X203495Y316295D01*
X203465Y316214D01*
X203462Y316184D01*
X203455Y316160D01*
X203454Y316135D01*
X203446Y316102D01*
X203448Y316017D01*
X203441Y315931D01*
X203448Y315897D01*
X203447Y315876D01*
X203453Y315855D01*
X203454Y315818D01*
X203480Y315736D01*
X203497Y315652D01*
X203515Y315618D01*
X203519Y315601D01*
X203528Y315586D01*
X203540Y315548D01*
X203588Y315476D01*
X203628Y315400D01*
X203657Y315369D01*
X203664Y315357D01*
X203675Y315347D01*
X203699Y315311D01*
X203765Y315256D01*
X203824Y315194D01*
X203862Y315171D01*
X203872Y315162D01*
X203883Y315156D01*
X203916Y315128D01*
X203995Y315094D01*
X204069Y315050D01*
X204113Y315039D01*
X204125Y315033D01*
X204136Y315031D01*
X204176Y315013D01*
X204261Y315001D01*
X204345Y314980D01*
X204401Y314982D01*
X204458Y314974D01*
X204543Y314986D01*
X204629Y314989D01*
X204683Y315006D01*
X204739Y315015D01*
X204817Y315050D01*
X204899Y315076D01*
X204939Y315105D01*
X204998Y315132D01*
X205109Y315226D01*
X205172Y315271D01*
X230119Y340217D01*
X230154Y340264D01*
X230196Y340304D01*
X230239Y340377D01*
X230289Y340445D01*
X230310Y340499D01*
X230340Y340550D01*
X230361Y340631D01*
X230391Y340710D01*
X230395Y340769D01*
X230410Y340825D01*
X230407Y340909D01*
X230414Y340994D01*
X230403Y341051D01*
X230401Y341109D01*
X230375Y341190D01*
X230358Y341272D01*
X230331Y341324D01*
X230313Y341380D01*
X230273Y341436D01*
X230227Y341525D01*
X230159Y341597D01*
X230119Y341653D01*
X229378Y342393D01*
X228218Y345194D01*
X228218Y348226D01*
X229378Y351027D01*
X231522Y353171D01*
X234323Y354331D01*
X249547Y354331D01*
X252348Y353171D01*
X253344Y352175D01*
X253367Y352157D01*
X253386Y352135D01*
X253480Y352072D01*
X253571Y352004D01*
X253598Y351993D01*
X253623Y351977D01*
X253731Y351943D01*
X253836Y351903D01*
X253866Y351900D01*
X253894Y351891D01*
X254007Y351888D01*
X254120Y351879D01*
X254148Y351885D01*
X254178Y351884D01*
X254287Y351913D01*
X254399Y351935D01*
X254425Y351948D01*
X254453Y351956D01*
X254550Y352014D01*
X254651Y352066D01*
X254672Y352086D01*
X254697Y352101D01*
X254775Y352184D01*
X254857Y352262D01*
X254872Y352287D01*
X254892Y352308D01*
X254943Y352409D01*
X255001Y352507D01*
X255008Y352535D01*
X255021Y352562D01*
X255034Y352639D01*
X255071Y352782D01*
X255069Y352845D01*
X255077Y352893D01*
X255077Y410886D01*
X255067Y410958D01*
X255067Y411030D01*
X255047Y411098D01*
X255037Y411168D01*
X255007Y411233D01*
X254987Y411303D01*
X254950Y411363D01*
X254921Y411427D01*
X254874Y411482D01*
X254835Y411543D01*
X254783Y411590D01*
X254737Y411644D01*
X254677Y411684D01*
X254623Y411732D01*
X254559Y411762D01*
X254500Y411802D01*
X254432Y411823D01*
X254366Y411855D01*
X254297Y411866D01*
X254229Y411887D01*
X254157Y411889D01*
X254086Y411901D01*
X254016Y411893D01*
X253945Y411895D01*
X253875Y411876D01*
X253804Y411868D01*
X253749Y411843D01*
X253670Y411823D01*
X253567Y411762D01*
X253497Y411730D01*
X252122Y410811D01*
X250550Y410160D01*
X248882Y409828D01*
X243966Y409828D01*
X243966Y417449D01*
X243958Y417507D01*
X243960Y417565D01*
X243938Y417647D01*
X243926Y417730D01*
X243902Y417784D01*
X243888Y417840D01*
X243845Y417913D01*
X243810Y417990D01*
X243772Y418034D01*
X243742Y418085D01*
X243681Y418142D01*
X243626Y418207D01*
X243578Y418239D01*
X243535Y418279D01*
X243460Y418318D01*
X243390Y418364D01*
X243334Y418382D01*
X243282Y418409D01*
X243214Y418420D01*
X243119Y418450D01*
X243019Y418453D01*
X242951Y418464D01*
X241934Y418464D01*
X241934Y418466D01*
X242951Y418466D01*
X243009Y418474D01*
X243067Y418473D01*
X243149Y418494D01*
X243232Y418506D01*
X243286Y418530D01*
X243342Y418544D01*
X243415Y418587D01*
X243492Y418622D01*
X243537Y418660D01*
X243587Y418690D01*
X243645Y418751D01*
X243709Y418806D01*
X243741Y418854D01*
X243781Y418897D01*
X243820Y418972D01*
X243866Y419042D01*
X243884Y419098D01*
X243911Y419150D01*
X243922Y419218D01*
X243952Y419313D01*
X243955Y419413D01*
X243966Y419481D01*
X243966Y427102D01*
X248882Y427102D01*
X250550Y426770D01*
X252122Y426119D01*
X253497Y425200D01*
X253563Y425168D01*
X253623Y425128D01*
X253690Y425107D01*
X253754Y425076D01*
X253825Y425064D01*
X253894Y425043D01*
X253964Y425041D01*
X254034Y425029D01*
X254106Y425037D01*
X254178Y425035D01*
X254246Y425053D01*
X254316Y425061D01*
X254383Y425089D01*
X254453Y425107D01*
X254514Y425143D01*
X254579Y425170D01*
X254635Y425215D01*
X254697Y425252D01*
X254746Y425304D01*
X254801Y425348D01*
X254842Y425407D01*
X254892Y425460D01*
X254924Y425523D01*
X254965Y425580D01*
X254988Y425648D01*
X255021Y425713D01*
X255031Y425772D01*
X255058Y425849D01*
X255064Y425969D01*
X255077Y426044D01*
X255077Y437682D01*
X255073Y437712D01*
X255075Y437741D01*
X255053Y437852D01*
X255037Y437964D01*
X255025Y437991D01*
X255019Y438019D01*
X254967Y438120D01*
X254921Y438223D01*
X254902Y438246D01*
X254888Y438272D01*
X254810Y438354D01*
X254737Y438440D01*
X254713Y438457D01*
X254692Y438478D01*
X254595Y438535D01*
X254500Y438598D01*
X254472Y438607D01*
X254447Y438622D01*
X254338Y438649D01*
X254229Y438684D01*
X254200Y438684D01*
X254172Y438692D01*
X254059Y438688D01*
X253945Y438691D01*
X253917Y438684D01*
X253887Y438683D01*
X253779Y438648D01*
X253670Y438619D01*
X253645Y438604D01*
X253617Y438595D01*
X253553Y438550D01*
X253426Y438474D01*
X253383Y438428D01*
X253344Y438400D01*
X252348Y437404D01*
X249547Y436244D01*
X234323Y436244D01*
X231522Y437404D01*
X229378Y439548D01*
X228218Y442349D01*
X228218Y445381D01*
X229378Y448182D01*
X231522Y450326D01*
X234323Y451486D01*
X249547Y451486D01*
X252348Y450326D01*
X253344Y449330D01*
X253367Y449312D01*
X253386Y449290D01*
X253480Y449227D01*
X253571Y449159D01*
X253598Y449148D01*
X253623Y449132D01*
X253731Y449098D01*
X253836Y449058D01*
X253866Y449055D01*
X253894Y449046D01*
X254007Y449043D01*
X254120Y449034D01*
X254148Y449040D01*
X254178Y449039D01*
X254287Y449068D01*
X254399Y449090D01*
X254425Y449103D01*
X254453Y449111D01*
X254550Y449169D01*
X254651Y449221D01*
X254672Y449241D01*
X254697Y449256D01*
X254775Y449339D01*
X254857Y449417D01*
X254872Y449442D01*
X254892Y449463D01*
X254943Y449564D01*
X255001Y449662D01*
X255008Y449690D01*
X255021Y449717D01*
X255034Y449794D01*
X255071Y449937D01*
X255069Y450000D01*
X255077Y450048D01*
X255077Y463082D01*
X255073Y463112D01*
X255075Y463141D01*
X255053Y463252D01*
X255037Y463364D01*
X255025Y463391D01*
X255019Y463419D01*
X254967Y463520D01*
X254921Y463623D01*
X254902Y463646D01*
X254888Y463672D01*
X254810Y463754D01*
X254737Y463840D01*
X254713Y463857D01*
X254692Y463878D01*
X254595Y463935D01*
X254500Y463998D01*
X254472Y464007D01*
X254447Y464022D01*
X254338Y464049D01*
X254229Y464084D01*
X254200Y464084D01*
X254172Y464092D01*
X254059Y464088D01*
X253945Y464091D01*
X253917Y464084D01*
X253887Y464083D01*
X253779Y464048D01*
X253670Y464019D01*
X253645Y464004D01*
X253617Y463995D01*
X253553Y463950D01*
X253426Y463874D01*
X253383Y463828D01*
X253344Y463800D01*
X252348Y462804D01*
X249547Y461644D01*
X234323Y461644D01*
X231522Y462804D01*
X229378Y464948D01*
X228218Y467749D01*
X228218Y470781D01*
X229378Y473582D01*
X231522Y475726D01*
X234323Y476886D01*
X249547Y476886D01*
X252348Y475726D01*
X253344Y474730D01*
X253367Y474712D01*
X253386Y474690D01*
X253480Y474627D01*
X253571Y474559D01*
X253598Y474548D01*
X253623Y474532D01*
X253731Y474498D01*
X253836Y474458D01*
X253866Y474455D01*
X253894Y474446D01*
X254007Y474443D01*
X254120Y474434D01*
X254148Y474440D01*
X254178Y474439D01*
X254287Y474468D01*
X254399Y474490D01*
X254425Y474503D01*
X254453Y474511D01*
X254550Y474569D01*
X254651Y474621D01*
X254672Y474641D01*
X254697Y474656D01*
X254775Y474739D01*
X254857Y474817D01*
X254872Y474842D01*
X254892Y474863D01*
X254943Y474964D01*
X255001Y475062D01*
X255008Y475090D01*
X255021Y475117D01*
X255034Y475194D01*
X255071Y475337D01*
X255069Y475400D01*
X255077Y475448D01*
X255077Y492500D01*
X255069Y492556D01*
X255072Y492599D01*
X254886Y494487D01*
X254819Y494763D01*
X254815Y494770D01*
X254814Y494776D01*
X253369Y498263D01*
X253353Y498290D01*
X253344Y498319D01*
X253298Y498383D01*
X253225Y498508D01*
X253178Y498552D01*
X253149Y498592D01*
X250480Y501262D01*
X250455Y501280D01*
X250435Y501304D01*
X250368Y501345D01*
X250253Y501432D01*
X250193Y501455D01*
X250151Y501482D01*
X246663Y502926D01*
X246388Y502997D01*
X246381Y502997D01*
X246374Y502999D01*
X244487Y503184D01*
X244431Y503182D01*
X244388Y503189D01*
X202215Y503189D01*
X202186Y503185D01*
X202156Y503188D01*
X202045Y503165D01*
X201933Y503149D01*
X201907Y503137D01*
X201878Y503132D01*
X201777Y503079D01*
X201674Y503033D01*
X201651Y503014D01*
X201625Y503001D01*
X201543Y502923D01*
X201457Y502850D01*
X201441Y502825D01*
X201419Y502805D01*
X201362Y502707D01*
X201299Y502613D01*
X201290Y502585D01*
X201276Y502560D01*
X201248Y502450D01*
X201213Y502342D01*
X201213Y502312D01*
X201206Y502284D01*
X201209Y502171D01*
X201206Y502058D01*
X201214Y502029D01*
X201215Y502000D01*
X201249Y501892D01*
X201278Y501783D01*
X201293Y501757D01*
X201302Y501729D01*
X201348Y501665D01*
X201423Y501538D01*
X201469Y501495D01*
X201497Y501456D01*
X202800Y500153D01*
X203835Y497653D01*
X203835Y494947D01*
X202800Y492446D01*
X200886Y490533D01*
X198386Y489497D01*
X195679Y489497D01*
X193179Y490533D01*
X191265Y492446D01*
X190230Y494947D01*
X190230Y497653D01*
X191265Y500153D01*
X192568Y501456D01*
X192586Y501480D01*
X192608Y501499D01*
X192671Y501593D01*
X192739Y501683D01*
X192749Y501711D01*
X192766Y501735D01*
X192800Y501843D01*
X192840Y501949D01*
X192843Y501978D01*
X192852Y502006D01*
X192854Y502120D01*
X192864Y502232D01*
X192858Y502261D01*
X192859Y502290D01*
X192830Y502400D01*
X192808Y502511D01*
X192794Y502537D01*
X192787Y502565D01*
X192729Y502663D01*
X192677Y502763D01*
X192657Y502785D01*
X192642Y502810D01*
X192559Y502887D01*
X192481Y502969D01*
X192456Y502984D01*
X192434Y503004D01*
X192334Y503056D01*
X192236Y503113D01*
X192207Y503120D01*
X192181Y503134D01*
X192104Y503147D01*
X191960Y503183D01*
X191898Y503181D01*
X191850Y503189D01*
X179877Y503189D01*
X179847Y503185D01*
X179818Y503188D01*
X179707Y503165D01*
X179595Y503149D01*
X179568Y503137D01*
X179540Y503132D01*
X179439Y503079D01*
X179336Y503033D01*
X179313Y503014D01*
X179287Y503001D01*
X179205Y502923D01*
X179119Y502850D01*
X179102Y502825D01*
X179081Y502805D01*
X179024Y502707D01*
X178961Y502613D01*
X178952Y502585D01*
X178937Y502560D01*
X178909Y502450D01*
X178875Y502342D01*
X178875Y502312D01*
X178867Y502284D01*
X178871Y502171D01*
X178868Y502058D01*
X178875Y502029D01*
X178876Y502000D01*
X178911Y501892D01*
X178940Y501783D01*
X178955Y501757D01*
X178964Y501729D01*
X179009Y501665D01*
X179085Y501538D01*
X179131Y501495D01*
X179159Y501456D01*
X179998Y500617D01*
X181158Y497816D01*
X181158Y494784D01*
X179998Y491983D01*
X177854Y489839D01*
X175053Y488679D01*
X172022Y488679D01*
X169138Y489874D01*
X169107Y489897D01*
X169052Y489918D01*
X169002Y489948D01*
X168920Y489968D01*
X168842Y489998D01*
X168783Y490003D01*
X168726Y490018D01*
X168642Y490015D01*
X168558Y490022D01*
X168501Y490010D01*
X168442Y490009D01*
X168362Y489983D01*
X168280Y489966D01*
X168227Y489939D01*
X168171Y489921D01*
X168115Y489881D01*
X168027Y489835D01*
X167954Y489766D01*
X167898Y489726D01*
X151428Y473256D01*
X151376Y473186D01*
X151316Y473123D01*
X151290Y473073D01*
X151257Y473029D01*
X151226Y472947D01*
X151186Y472869D01*
X151178Y472822D01*
X151156Y472763D01*
X151144Y472616D01*
X151131Y472538D01*
X151131Y161290D01*
X151139Y161232D01*
X151137Y161174D01*
X151159Y161092D01*
X151171Y161008D01*
X151194Y160955D01*
X151209Y160899D01*
X151252Y160826D01*
X151287Y160749D01*
X151325Y160704D01*
X151354Y160654D01*
X151416Y160596D01*
X151470Y160532D01*
X151519Y160500D01*
X151562Y160460D01*
X151637Y160421D01*
X151707Y160374D01*
X151763Y160357D01*
X151815Y160330D01*
X151883Y160319D01*
X151978Y160289D01*
X152078Y160286D01*
X152146Y160275D01*
X152651Y160275D01*
X153544Y159382D01*
X153544Y144148D01*
X152651Y143255D01*
X150622Y143255D01*
X150564Y143247D01*
X150506Y143249D01*
X150424Y143227D01*
X150340Y143215D01*
X150287Y143192D01*
X150231Y143177D01*
X150158Y143134D01*
X150081Y143099D01*
X150036Y143061D01*
X149986Y143032D01*
X149928Y142970D01*
X149864Y142916D01*
X149832Y142867D01*
X149792Y142824D01*
X149753Y142749D01*
X149706Y142679D01*
X149689Y142623D01*
X149662Y142571D01*
X149651Y142503D01*
X149621Y142408D01*
X149618Y142308D01*
X149607Y142240D01*
X149607Y137604D01*
X149615Y137547D01*
X149613Y137488D01*
X149635Y137407D01*
X149647Y137323D01*
X149670Y137270D01*
X149685Y137213D01*
X149728Y137141D01*
X149763Y137064D01*
X149801Y137019D01*
X149830Y136969D01*
X149892Y136911D01*
X149946Y136847D01*
X149995Y136814D01*
X150038Y136774D01*
X150113Y136736D01*
X150183Y136689D01*
X150239Y136671D01*
X150291Y136645D01*
X150359Y136633D01*
X150454Y136603D01*
X150554Y136601D01*
X150622Y136589D01*
X155826Y136589D01*
X156719Y135696D01*
X156719Y127829D01*
X155826Y126936D01*
X149074Y126936D01*
X149016Y126928D01*
X148958Y126929D01*
X148876Y126908D01*
X148792Y126896D01*
X148739Y126872D01*
X148683Y126857D01*
X148610Y126814D01*
X148533Y126780D01*
X148488Y126742D01*
X148438Y126712D01*
X148380Y126650D01*
X148316Y126596D01*
X148284Y126547D01*
X148244Y126505D01*
X148205Y126430D01*
X148158Y126359D01*
X148141Y126304D01*
X148114Y126252D01*
X148103Y126184D01*
X148073Y126088D01*
X148070Y125989D01*
X148059Y125921D01*
X148059Y124904D01*
X148067Y124847D01*
X148065Y124788D01*
X148087Y124707D01*
X148099Y124623D01*
X148122Y124570D01*
X148137Y124513D01*
X148180Y124441D01*
X148215Y124364D01*
X148253Y124319D01*
X148282Y124269D01*
X148344Y124211D01*
X148398Y124147D01*
X148447Y124114D01*
X148490Y124074D01*
X148565Y124036D01*
X148635Y123989D01*
X148691Y123971D01*
X148743Y123945D01*
X148811Y123933D01*
X148906Y123903D01*
X149006Y123901D01*
X149074Y123889D01*
X155826Y123889D01*
X156719Y122996D01*
X156719Y115129D01*
X155826Y114236D01*
X134242Y114236D01*
X133349Y115129D01*
X133349Y122996D01*
X134242Y123889D01*
X140994Y123889D01*
X141052Y123897D01*
X141110Y123896D01*
X141192Y123917D01*
X141276Y123929D01*
X141329Y123953D01*
X141385Y123968D01*
X141458Y124011D01*
X141535Y124045D01*
X141580Y124083D01*
X141630Y124113D01*
X141688Y124175D01*
X141752Y124229D01*
X141784Y124278D01*
X141824Y124320D01*
X141863Y124395D01*
X141910Y124466D01*
X141927Y124521D01*
X141954Y124573D01*
X141965Y124641D01*
X141995Y124737D01*
X141998Y124836D01*
X142009Y124904D01*
X142009Y125921D01*
X142001Y125978D01*
X142003Y126037D01*
X141981Y126118D01*
X141969Y126202D01*
X141946Y126255D01*
X141931Y126312D01*
X141888Y126384D01*
X141853Y126461D01*
X141815Y126506D01*
X141786Y126556D01*
X141724Y126614D01*
X141670Y126678D01*
X141621Y126711D01*
X141578Y126751D01*
X141503Y126789D01*
X141433Y126836D01*
X141377Y126854D01*
X141325Y126880D01*
X141257Y126892D01*
X141162Y126922D01*
X141062Y126924D01*
X140994Y126936D01*
X134242Y126936D01*
X133349Y127829D01*
X133349Y135696D01*
X134242Y136589D01*
X139446Y136589D01*
X139504Y136597D01*
X139562Y136596D01*
X139644Y136617D01*
X139728Y136629D01*
X139781Y136653D01*
X139837Y136668D01*
X139910Y136711D01*
X139987Y136745D01*
X140032Y136783D01*
X140082Y136813D01*
X140140Y136875D01*
X140204Y136929D01*
X140236Y136978D01*
X140276Y137020D01*
X140315Y137095D01*
X140362Y137166D01*
X140379Y137221D01*
X140406Y137273D01*
X140417Y137341D01*
X140447Y137437D01*
X140450Y137536D01*
X140461Y137604D01*
X140461Y142839D01*
X140449Y142926D01*
X140446Y143013D01*
X140429Y143066D01*
X140421Y143120D01*
X140386Y143200D01*
X140359Y143283D01*
X140331Y143323D01*
X140305Y143380D01*
X140209Y143493D01*
X140164Y143557D01*
X139572Y144148D01*
X139572Y159382D01*
X140465Y160275D01*
X140970Y160275D01*
X141028Y160283D01*
X141086Y160281D01*
X141168Y160303D01*
X141252Y160315D01*
X141305Y160338D01*
X141361Y160353D01*
X141434Y160396D01*
X141511Y160431D01*
X141556Y160469D01*
X141606Y160498D01*
X141664Y160560D01*
X141728Y160614D01*
X141760Y160663D01*
X141800Y160706D01*
X141839Y160781D01*
X141886Y160851D01*
X141903Y160907D01*
X141930Y160959D01*
X141941Y161027D01*
X141971Y161122D01*
X141974Y161222D01*
X141985Y161290D01*
X141985Y371797D01*
X141981Y371826D01*
X141984Y371855D01*
X141961Y371966D01*
X141945Y372078D01*
X141933Y372105D01*
X141928Y372134D01*
X141875Y372234D01*
X141829Y372338D01*
X141810Y372360D01*
X141797Y372386D01*
X141719Y372468D01*
X141646Y372555D01*
X141621Y372571D01*
X141601Y372592D01*
X141503Y372649D01*
X141409Y372712D01*
X141381Y372721D01*
X141356Y372736D01*
X141246Y372764D01*
X141138Y372798D01*
X141108Y372799D01*
X141080Y372806D01*
X140967Y372802D01*
X140854Y372805D01*
X140825Y372798D01*
X140796Y372797D01*
X140688Y372762D01*
X140579Y372733D01*
X140553Y372718D01*
X140525Y372709D01*
X140461Y372664D01*
X140334Y372588D01*
X140291Y372542D01*
X140252Y372514D01*
X139212Y371474D01*
X137062Y371474D01*
X136975Y371462D01*
X136888Y371459D01*
X136835Y371442D01*
X136780Y371434D01*
X136700Y371399D01*
X136617Y371372D01*
X136578Y371344D01*
X136521Y371318D01*
X136407Y371222D01*
X136344Y371177D01*
X100120Y334953D01*
X100113Y334943D01*
X100112Y334942D01*
X100109Y334939D01*
X100068Y334883D01*
X100008Y334820D01*
X99982Y334770D01*
X99949Y334726D01*
X99918Y334644D01*
X99878Y334566D01*
X99870Y334519D01*
X99848Y334460D01*
X99836Y334313D01*
X99823Y334235D01*
X99823Y304252D01*
X99770Y304195D01*
X99744Y304146D01*
X99711Y304102D01*
X99680Y304020D01*
X99640Y303942D01*
X99632Y303895D01*
X99610Y303836D01*
X99598Y303688D01*
X99585Y303611D01*
X99585Y295588D01*
X98692Y294695D01*
X83458Y294695D01*
X82565Y295588D01*
X82565Y307773D01*
X83458Y308666D01*
X89662Y308666D01*
X89720Y308674D01*
X89778Y308673D01*
X89860Y308694D01*
X89944Y308706D01*
X89997Y308730D01*
X90053Y308745D01*
X90126Y308788D01*
X90203Y308822D01*
X90248Y308860D01*
X90298Y308890D01*
X90356Y308952D01*
X90420Y309006D01*
X90452Y309055D01*
X90492Y309097D01*
X90531Y309172D01*
X90578Y309243D01*
X90595Y309298D01*
X90622Y309350D01*
X90633Y309418D01*
X90663Y309514D01*
X90666Y309613D01*
X90677Y309681D01*
X90677Y338444D01*
X134631Y382398D01*
X138419Y382398D01*
X140252Y380565D01*
X140276Y380547D01*
X140295Y380525D01*
X140389Y380462D01*
X140479Y380394D01*
X140507Y380383D01*
X140531Y380367D01*
X140639Y380333D01*
X140745Y380293D01*
X140774Y380290D01*
X140802Y380281D01*
X140916Y380278D01*
X141028Y380269D01*
X141057Y380275D01*
X141086Y380274D01*
X141196Y380303D01*
X141307Y380325D01*
X141333Y380338D01*
X141361Y380346D01*
X141459Y380404D01*
X141559Y380456D01*
X141581Y380476D01*
X141606Y380491D01*
X141683Y380574D01*
X141765Y380652D01*
X141780Y380677D01*
X141800Y380698D01*
X141852Y380799D01*
X141909Y380897D01*
X141916Y380925D01*
X141930Y380952D01*
X141943Y381029D01*
X141979Y381172D01*
X141977Y381235D01*
X141985Y381283D01*
X141985Y472538D01*
X141973Y472625D01*
X141970Y472712D01*
X141953Y472765D01*
X141945Y472820D01*
X141910Y472900D01*
X141883Y472983D01*
X141855Y473022D01*
X141829Y473079D01*
X141733Y473193D01*
X141688Y473256D01*
X140389Y474555D01*
X140319Y474607D01*
X140256Y474667D01*
X140206Y474693D01*
X140162Y474726D01*
X140080Y474757D01*
X140002Y474797D01*
X139955Y474805D01*
X139896Y474827D01*
X139749Y474839D01*
X139671Y474852D01*
X135128Y474852D01*
X135070Y474844D01*
X135012Y474846D01*
X134930Y474824D01*
X134846Y474812D01*
X134793Y474789D01*
X134737Y474774D01*
X134664Y474731D01*
X134587Y474696D01*
X134542Y474658D01*
X134492Y474629D01*
X134434Y474567D01*
X134370Y474513D01*
X134338Y474464D01*
X134298Y474421D01*
X134259Y474346D01*
X134212Y474276D01*
X134195Y474220D01*
X134168Y474168D01*
X134157Y474100D01*
X134127Y474005D01*
X134124Y473905D01*
X134113Y473837D01*
X134113Y470900D01*
X132837Y467818D01*
X130479Y465460D01*
X127397Y464184D01*
X124063Y464184D01*
X120981Y465460D01*
X118623Y467818D01*
X117347Y470900D01*
X117347Y487950D01*
X118623Y491032D01*
X120981Y493390D01*
X124063Y494666D01*
X127397Y494666D01*
X130479Y493390D01*
X132837Y491032D01*
X134113Y487950D01*
X134113Y485013D01*
X134121Y484955D01*
X134119Y484897D01*
X134141Y484815D01*
X134153Y484731D01*
X134176Y484678D01*
X134191Y484622D01*
X134234Y484549D01*
X134269Y484472D01*
X134307Y484427D01*
X134336Y484377D01*
X134398Y484319D01*
X134452Y484255D01*
X134501Y484223D01*
X134544Y484183D01*
X134619Y484144D01*
X134689Y484097D01*
X134745Y484080D01*
X134797Y484053D01*
X134865Y484042D01*
X134960Y484012D01*
X135060Y484009D01*
X135128Y483998D01*
X143880Y483998D01*
X145840Y482038D01*
X145887Y482003D01*
X145927Y481960D01*
X146000Y481917D01*
X146067Y481867D01*
X146122Y481846D01*
X146172Y481816D01*
X146254Y481796D01*
X146333Y481766D01*
X146391Y481761D01*
X146448Y481746D01*
X146532Y481749D01*
X146616Y481742D01*
X146674Y481754D01*
X146732Y481755D01*
X146812Y481781D01*
X146895Y481798D01*
X146947Y481825D01*
X147003Y481843D01*
X147059Y481883D01*
X147147Y481929D01*
X147220Y481998D01*
X147276Y482038D01*
X166111Y500873D01*
X166912Y500873D01*
X166999Y500885D01*
X167086Y500888D01*
X167139Y500905D01*
X167194Y500913D01*
X167274Y500948D01*
X167357Y500975D01*
X167396Y501003D01*
X167453Y501029D01*
X167567Y501125D01*
X167630Y501170D01*
X167916Y501456D01*
X167934Y501480D01*
X167956Y501499D01*
X168019Y501593D01*
X168087Y501683D01*
X168098Y501711D01*
X168114Y501735D01*
X168148Y501843D01*
X168188Y501949D01*
X168191Y501978D01*
X168200Y502006D01*
X168203Y502120D01*
X168212Y502232D01*
X168206Y502261D01*
X168207Y502290D01*
X168178Y502400D01*
X168156Y502511D01*
X168143Y502537D01*
X168135Y502565D01*
X168077Y502663D01*
X168025Y502763D01*
X168005Y502785D01*
X167990Y502810D01*
X167907Y502887D01*
X167829Y502969D01*
X167804Y502984D01*
X167783Y503004D01*
X167682Y503056D01*
X167584Y503113D01*
X167556Y503120D01*
X167529Y503134D01*
X167452Y503147D01*
X167309Y503183D01*
X167246Y503181D01*
X167198Y503189D01*
X52450Y503189D01*
X52393Y503181D01*
X52334Y503183D01*
X52253Y503161D01*
X52169Y503149D01*
X52116Y503126D01*
X52059Y503111D01*
X51987Y503068D01*
X51910Y503033D01*
X51865Y502995D01*
X51815Y502966D01*
X51757Y502904D01*
X51693Y502850D01*
X51660Y502801D01*
X51620Y502758D01*
X51582Y502683D01*
X51535Y502613D01*
X51517Y502557D01*
X51491Y502505D01*
X51479Y502437D01*
X51449Y502342D01*
X51447Y502242D01*
X51435Y502174D01*
X51435Y490390D01*
X50542Y489497D01*
X38723Y489497D01*
X37830Y490390D01*
X37830Y502174D01*
X37822Y502232D01*
X37823Y502290D01*
X37802Y502372D01*
X37790Y502456D01*
X37766Y502509D01*
X37751Y502565D01*
X37708Y502638D01*
X37674Y502715D01*
X37636Y502760D01*
X37606Y502810D01*
X37544Y502868D01*
X37490Y502932D01*
X37441Y502964D01*
X37399Y503004D01*
X37324Y503043D01*
X37253Y503090D01*
X37198Y503107D01*
X37146Y503134D01*
X37078Y503145D01*
X36982Y503175D01*
X36883Y503178D01*
X36815Y503189D01*
X29773Y503189D01*
X29716Y503181D01*
X29657Y503183D01*
X29576Y503161D01*
X29492Y503149D01*
X29439Y503126D01*
X29382Y503111D01*
X29310Y503068D01*
X29233Y503033D01*
X29188Y502995D01*
X29138Y502966D01*
X29080Y502904D01*
X29016Y502850D01*
X28983Y502801D01*
X28943Y502758D01*
X28905Y502683D01*
X28858Y502613D01*
X28840Y502557D01*
X28814Y502505D01*
X28802Y502437D01*
X28772Y502342D01*
X28770Y502242D01*
X28758Y502174D01*
X28758Y489572D01*
X27865Y488679D01*
X14410Y488679D01*
X13517Y489572D01*
X13517Y501735D01*
X13501Y501849D01*
X13491Y501963D01*
X13481Y501989D01*
X13477Y502016D01*
X13430Y502121D01*
X13389Y502228D01*
X13372Y502251D01*
X13361Y502276D01*
X13287Y502363D01*
X13217Y502455D01*
X13195Y502472D01*
X13177Y502493D01*
X13082Y502557D01*
X12989Y502625D01*
X12964Y502635D01*
X12940Y502650D01*
X12831Y502685D01*
X12723Y502726D01*
X12696Y502728D01*
X12669Y502736D01*
X12555Y502739D01*
X12440Y502748D01*
X12416Y502743D01*
X12385Y502744D01*
X12128Y502676D01*
X12113Y502673D01*
X9237Y501482D01*
X9210Y501466D01*
X9181Y501456D01*
X9117Y501411D01*
X8992Y501337D01*
X8948Y501290D01*
X8908Y501262D01*
X6238Y498592D01*
X6220Y498568D01*
X6196Y498548D01*
X6155Y498481D01*
X6068Y498365D01*
X6045Y498305D01*
X6018Y498263D01*
X4574Y494776D01*
X4503Y494501D01*
X4503Y494493D01*
X4501Y494487D01*
X4316Y492600D01*
X4318Y492543D01*
X4311Y492500D01*
X4311Y15000D01*
X4319Y14944D01*
X4316Y14900D01*
X4501Y13013D01*
X4569Y12737D01*
X4572Y12730D01*
X4574Y12724D01*
X6018Y9237D01*
X6034Y9210D01*
X6044Y9181D01*
X6089Y9117D01*
X6163Y8992D01*
X6210Y8948D01*
X6238Y8908D01*
X8908Y6238D01*
X8932Y6220D01*
X8952Y6196D01*
X9019Y6155D01*
X9135Y6068D01*
X9195Y6045D01*
X9237Y6018D01*
X12724Y4574D01*
X12999Y4503D01*
X13007Y4503D01*
X13013Y4501D01*
X14900Y4316D01*
X14957Y4318D01*
X15000Y4311D01*
X16297Y4311D01*
X16424Y4329D01*
G37*
%LPC*%
G36*
X19622Y133079D02*
X19622Y133079D01*
X16821Y134239D01*
X14677Y136383D01*
X13517Y139184D01*
X13517Y142216D01*
X14677Y145017D01*
X16821Y147161D01*
X19622Y148321D01*
X20783Y148321D01*
X20870Y148333D01*
X20957Y148336D01*
X21010Y148353D01*
X21065Y148361D01*
X21145Y148396D01*
X21228Y148423D01*
X21267Y148451D01*
X21324Y148477D01*
X21438Y148573D01*
X21501Y148618D01*
X29856Y156973D01*
X45310Y156973D01*
X45397Y156985D01*
X45484Y156988D01*
X45537Y157005D01*
X45592Y157013D01*
X45672Y157048D01*
X45755Y157075D01*
X45794Y157103D01*
X45851Y157129D01*
X45964Y157225D01*
X46028Y157270D01*
X46322Y157564D01*
X46340Y157588D01*
X46362Y157607D01*
X46425Y157701D01*
X46493Y157791D01*
X46504Y157819D01*
X46520Y157843D01*
X46554Y157951D01*
X46594Y158057D01*
X46597Y158086D01*
X46606Y158114D01*
X46609Y158227D01*
X46618Y158340D01*
X46612Y158369D01*
X46613Y158398D01*
X46584Y158508D01*
X46562Y158619D01*
X46549Y158645D01*
X46541Y158673D01*
X46483Y158771D01*
X46431Y158871D01*
X46411Y158893D01*
X46396Y158918D01*
X46313Y158995D01*
X46235Y159077D01*
X46210Y159092D01*
X46189Y159112D01*
X46088Y159164D01*
X45990Y159221D01*
X45962Y159228D01*
X45935Y159242D01*
X45858Y159255D01*
X45715Y159291D01*
X45652Y159289D01*
X45604Y159297D01*
X43279Y159297D01*
X40779Y160333D01*
X38865Y162246D01*
X37830Y164747D01*
X37830Y167453D01*
X38865Y169954D01*
X40779Y171867D01*
X43279Y172903D01*
X45986Y172903D01*
X48486Y171867D01*
X50400Y169954D01*
X51435Y167453D01*
X51435Y165128D01*
X51439Y165099D01*
X51437Y165070D01*
X51459Y164959D01*
X51475Y164847D01*
X51487Y164820D01*
X51493Y164791D01*
X51545Y164691D01*
X51591Y164587D01*
X51610Y164565D01*
X51624Y164539D01*
X51702Y164457D01*
X51775Y164370D01*
X51799Y164354D01*
X51820Y164333D01*
X51917Y164275D01*
X52012Y164213D01*
X52040Y164204D01*
X52065Y164189D01*
X52174Y164161D01*
X52283Y164127D01*
X52312Y164126D01*
X52340Y164119D01*
X52453Y164122D01*
X52567Y164120D01*
X52595Y164127D01*
X52625Y164128D01*
X52732Y164163D01*
X52842Y164191D01*
X52867Y164206D01*
X52895Y164215D01*
X52959Y164261D01*
X53086Y164337D01*
X53129Y164382D01*
X53168Y164410D01*
X84800Y196042D01*
X84835Y196088D01*
X84877Y196129D01*
X84920Y196201D01*
X84971Y196269D01*
X84991Y196323D01*
X85021Y196374D01*
X85042Y196455D01*
X85072Y196534D01*
X85077Y196593D01*
X85091Y196649D01*
X85088Y196734D01*
X85095Y196818D01*
X85084Y196875D01*
X85082Y196933D01*
X85056Y197014D01*
X85040Y197096D01*
X85013Y197148D01*
X84995Y197204D01*
X84954Y197260D01*
X84909Y197349D01*
X84840Y197421D01*
X84800Y197477D01*
X83063Y199214D01*
X81787Y202295D01*
X81787Y219345D01*
X83063Y222427D01*
X85421Y224785D01*
X88503Y226061D01*
X91837Y226061D01*
X94919Y224785D01*
X97277Y222427D01*
X98553Y219345D01*
X98553Y202295D01*
X97277Y199213D01*
X96945Y198882D01*
X96893Y198812D01*
X96833Y198748D01*
X96807Y198699D01*
X96774Y198655D01*
X96743Y198573D01*
X96703Y198495D01*
X96695Y198448D01*
X96673Y198389D01*
X96661Y198242D01*
X96648Y198164D01*
X96648Y194956D01*
X49517Y147825D01*
X49408Y147803D01*
X49295Y147787D01*
X49268Y147775D01*
X49240Y147770D01*
X49139Y147718D01*
X49036Y147671D01*
X49013Y147652D01*
X48987Y147639D01*
X48905Y147561D01*
X48819Y147488D01*
X48803Y147463D01*
X48781Y147443D01*
X48724Y147345D01*
X48661Y147251D01*
X48652Y147223D01*
X48638Y147198D01*
X48610Y147088D01*
X48575Y146980D01*
X48575Y146951D01*
X48567Y146922D01*
X48571Y146809D01*
X48568Y146696D01*
X48576Y146667D01*
X48577Y146638D01*
X48611Y146530D01*
X48640Y146421D01*
X48655Y146395D01*
X48664Y146367D01*
X48710Y146303D01*
X48785Y146176D01*
X48831Y146133D01*
X48859Y146094D01*
X49315Y145638D01*
X49385Y145586D01*
X49449Y145526D01*
X49498Y145501D01*
X49542Y145467D01*
X49624Y145436D01*
X49702Y145396D01*
X49749Y145388D01*
X49808Y145366D01*
X49955Y145354D01*
X50033Y145341D01*
X57808Y145341D01*
X57895Y145353D01*
X57983Y145356D01*
X58035Y145373D01*
X58090Y145381D01*
X58170Y145416D01*
X58253Y145443D01*
X58292Y145471D01*
X58349Y145497D01*
X58463Y145593D01*
X58526Y145638D01*
X109565Y196677D01*
X109600Y196723D01*
X109642Y196764D01*
X109685Y196836D01*
X109736Y196904D01*
X109756Y196958D01*
X109786Y197009D01*
X109807Y197090D01*
X109837Y197169D01*
X109842Y197228D01*
X109856Y197284D01*
X109853Y197368D01*
X109860Y197453D01*
X109849Y197510D01*
X109847Y197568D01*
X109821Y197649D01*
X109805Y197731D01*
X109778Y197783D01*
X109760Y197839D01*
X109719Y197895D01*
X109674Y197984D01*
X109605Y198056D01*
X109565Y198112D01*
X108463Y199214D01*
X107187Y202295D01*
X107187Y219345D01*
X107968Y221229D01*
X107968Y221231D01*
X107969Y221232D01*
X108003Y221366D01*
X108039Y221505D01*
X108038Y221506D01*
X108039Y221508D01*
X108034Y221645D01*
X108030Y221789D01*
X108030Y221790D01*
X108030Y221792D01*
X107987Y221925D01*
X107944Y222060D01*
X107943Y222061D01*
X107942Y222062D01*
X107934Y222074D01*
X107785Y222296D01*
X107762Y222315D01*
X107747Y222336D01*
X97027Y233056D01*
X97027Y239058D01*
X97023Y239087D01*
X97026Y239117D01*
X97003Y239228D01*
X96987Y239340D01*
X96975Y239366D01*
X96970Y239395D01*
X96917Y239496D01*
X96871Y239599D01*
X96852Y239622D01*
X96839Y239648D01*
X96761Y239730D01*
X96688Y239816D01*
X96663Y239832D01*
X96643Y239854D01*
X96545Y239911D01*
X96451Y239974D01*
X96423Y239983D01*
X96398Y239997D01*
X96288Y240025D01*
X96180Y240060D01*
X96150Y240060D01*
X96122Y240068D01*
X96009Y240064D01*
X95896Y240067D01*
X95867Y240059D01*
X95838Y240058D01*
X95730Y240024D01*
X95621Y239995D01*
X95595Y239980D01*
X95567Y239971D01*
X95503Y239925D01*
X95376Y239850D01*
X95333Y239804D01*
X95294Y239776D01*
X94283Y238765D01*
X91202Y237489D01*
X87868Y237489D01*
X84786Y238765D01*
X82428Y241123D01*
X81152Y244205D01*
X81152Y261255D01*
X82428Y264337D01*
X84786Y266695D01*
X87868Y267971D01*
X91202Y267971D01*
X94283Y266695D01*
X95294Y265684D01*
X95318Y265666D01*
X95337Y265644D01*
X95431Y265581D01*
X95521Y265513D01*
X95549Y265503D01*
X95573Y265486D01*
X95681Y265452D01*
X95787Y265412D01*
X95816Y265409D01*
X95844Y265400D01*
X95958Y265398D01*
X96070Y265388D01*
X96099Y265394D01*
X96128Y265393D01*
X96238Y265422D01*
X96349Y265444D01*
X96375Y265458D01*
X96403Y265465D01*
X96501Y265523D01*
X96601Y265575D01*
X96623Y265595D01*
X96648Y265610D01*
X96725Y265693D01*
X96807Y265771D01*
X96822Y265796D01*
X96842Y265818D01*
X96894Y265919D01*
X96951Y266016D01*
X96958Y266045D01*
X96972Y266071D01*
X96985Y266148D01*
X97021Y266292D01*
X97019Y266354D01*
X97027Y266402D01*
X97027Y274884D01*
X97019Y274941D01*
X97021Y275000D01*
X96999Y275081D01*
X96987Y275165D01*
X96964Y275218D01*
X96949Y275275D01*
X96906Y275347D01*
X96871Y275424D01*
X96833Y275469D01*
X96804Y275519D01*
X96742Y275577D01*
X96688Y275641D01*
X96639Y275674D01*
X96596Y275714D01*
X96521Y275752D01*
X96451Y275799D01*
X96395Y275817D01*
X96343Y275843D01*
X96275Y275855D01*
X96180Y275885D01*
X96080Y275887D01*
X96012Y275899D01*
X83458Y275899D01*
X82565Y276792D01*
X82565Y288977D01*
X83458Y289870D01*
X98692Y289870D01*
X98775Y289787D01*
X98845Y289734D01*
X98909Y289674D01*
X98958Y289649D01*
X99002Y289616D01*
X99084Y289585D01*
X99162Y289545D01*
X99210Y289537D01*
X99268Y289514D01*
X99416Y289502D01*
X99493Y289489D01*
X108057Y289489D01*
X108144Y289501D01*
X108231Y289504D01*
X108284Y289521D01*
X108338Y289529D01*
X108418Y289565D01*
X108501Y289592D01*
X108541Y289620D01*
X108598Y289645D01*
X108711Y289741D01*
X108775Y289787D01*
X108858Y289870D01*
X122682Y289870D01*
X122740Y289878D01*
X122798Y289877D01*
X122880Y289898D01*
X122964Y289910D01*
X123017Y289934D01*
X123073Y289949D01*
X123146Y289992D01*
X123223Y290026D01*
X123268Y290064D01*
X123318Y290094D01*
X123376Y290156D01*
X123440Y290210D01*
X123472Y290259D01*
X123512Y290301D01*
X123551Y290376D01*
X123598Y290447D01*
X123615Y290502D01*
X123642Y290554D01*
X123653Y290622D01*
X123683Y290718D01*
X123686Y290817D01*
X123697Y290885D01*
X123697Y291690D01*
X123690Y291738D01*
X123691Y291743D01*
X123689Y291749D01*
X123685Y291777D01*
X123682Y291864D01*
X123665Y291917D01*
X123657Y291972D01*
X123622Y292052D01*
X123595Y292135D01*
X123567Y292174D01*
X123541Y292231D01*
X123445Y292344D01*
X123400Y292408D01*
X121411Y294397D01*
X121341Y294450D01*
X121277Y294510D01*
X121228Y294535D01*
X121184Y294568D01*
X121102Y294599D01*
X121024Y294639D01*
X120976Y294647D01*
X120918Y294670D01*
X120770Y294682D01*
X120693Y294695D01*
X108858Y294695D01*
X107965Y295588D01*
X107965Y299418D01*
X107953Y299504D01*
X107950Y299592D01*
X107933Y299644D01*
X107925Y299699D01*
X107890Y299779D01*
X107863Y299862D01*
X107835Y299902D01*
X107809Y299959D01*
X107713Y300072D01*
X107668Y300136D01*
X107386Y300418D01*
X107386Y302943D01*
X107668Y303225D01*
X107720Y303295D01*
X107780Y303359D01*
X107806Y303408D01*
X107839Y303453D01*
X107870Y303534D01*
X107910Y303612D01*
X107918Y303660D01*
X107940Y303718D01*
X107952Y303866D01*
X107965Y303943D01*
X107965Y307773D01*
X108858Y308666D01*
X124092Y308666D01*
X124985Y307773D01*
X124985Y304178D01*
X124997Y304091D01*
X125000Y304004D01*
X125017Y303951D01*
X125025Y303896D01*
X125060Y303816D01*
X125087Y303733D01*
X125115Y303694D01*
X125141Y303637D01*
X125237Y303524D01*
X125282Y303460D01*
X129867Y298875D01*
X132843Y295899D01*
X132843Y243391D01*
X132855Y243305D01*
X132858Y243217D01*
X132875Y243165D01*
X132883Y243110D01*
X132918Y243030D01*
X132945Y242947D01*
X132970Y242912D01*
X132970Y238740D01*
X130068Y235838D01*
X125964Y235838D01*
X123062Y238740D01*
X123062Y239693D01*
X123058Y239722D01*
X123061Y239752D01*
X123038Y239863D01*
X123022Y239975D01*
X123010Y240001D01*
X123005Y240030D01*
X122952Y240131D01*
X122906Y240234D01*
X122887Y240257D01*
X122874Y240283D01*
X122796Y240365D01*
X122723Y240451D01*
X122698Y240467D01*
X122678Y240489D01*
X122580Y240546D01*
X122486Y240609D01*
X122458Y240618D01*
X122433Y240632D01*
X122323Y240660D01*
X122215Y240695D01*
X122185Y240695D01*
X122157Y240703D01*
X122044Y240699D01*
X121931Y240702D01*
X121902Y240694D01*
X121873Y240693D01*
X121765Y240659D01*
X121656Y240630D01*
X121630Y240615D01*
X121602Y240606D01*
X121538Y240560D01*
X121411Y240485D01*
X121368Y240439D01*
X121329Y240411D01*
X119683Y238765D01*
X116602Y237489D01*
X113268Y237489D01*
X110187Y238765D01*
X107906Y241046D01*
X107882Y241064D01*
X107863Y241086D01*
X107769Y241149D01*
X107679Y241217D01*
X107651Y241227D01*
X107627Y241244D01*
X107519Y241278D01*
X107413Y241318D01*
X107384Y241321D01*
X107356Y241330D01*
X107242Y241332D01*
X107130Y241342D01*
X107101Y241336D01*
X107072Y241337D01*
X106962Y241308D01*
X106851Y241286D01*
X106825Y241272D01*
X106797Y241265D01*
X106699Y241207D01*
X106599Y241155D01*
X106577Y241135D01*
X106552Y241120D01*
X106475Y241037D01*
X106393Y240959D01*
X106378Y240934D01*
X106358Y240912D01*
X106306Y240812D01*
X106249Y240714D01*
X106242Y240685D01*
X106228Y240659D01*
X106215Y240582D01*
X106179Y240438D01*
X106181Y240376D01*
X106173Y240328D01*
X106173Y237265D01*
X106185Y237178D01*
X106188Y237091D01*
X106205Y237038D01*
X106213Y236983D01*
X106248Y236903D01*
X106275Y236820D01*
X106303Y236781D01*
X106329Y236724D01*
X106425Y236610D01*
X106470Y236547D01*
X115897Y227120D01*
X116659Y226358D01*
X116729Y226306D01*
X116792Y226246D01*
X116842Y226220D01*
X116886Y226187D01*
X116968Y226156D01*
X117046Y226116D01*
X117093Y226108D01*
X117152Y226086D01*
X117183Y226083D01*
X120319Y224785D01*
X122677Y222427D01*
X123953Y219345D01*
X123953Y202295D01*
X122677Y199213D01*
X120440Y196977D01*
X120388Y196907D01*
X120328Y196843D01*
X120302Y196794D01*
X120269Y196750D01*
X120238Y196668D01*
X120198Y196590D01*
X120190Y196543D01*
X120168Y196484D01*
X120158Y196365D01*
X120157Y196361D01*
X120156Y196343D01*
X120156Y196337D01*
X120143Y196259D01*
X120143Y194321D01*
X62017Y136195D01*
X50169Y136195D01*
X50082Y136183D01*
X49995Y136180D01*
X49942Y136163D01*
X49887Y136156D01*
X49808Y136120D01*
X49724Y136093D01*
X49685Y136065D01*
X49628Y136039D01*
X49515Y135943D01*
X49451Y135898D01*
X48486Y134933D01*
X45986Y133897D01*
X43279Y133897D01*
X40779Y134933D01*
X38865Y136846D01*
X37830Y139347D01*
X37830Y142053D01*
X38865Y144553D01*
X40406Y146094D01*
X40424Y146118D01*
X40446Y146137D01*
X40509Y146231D01*
X40577Y146321D01*
X40587Y146349D01*
X40604Y146373D01*
X40638Y146481D01*
X40678Y146587D01*
X40681Y146616D01*
X40690Y146644D01*
X40692Y146758D01*
X40702Y146870D01*
X40696Y146899D01*
X40697Y146928D01*
X40668Y147038D01*
X40646Y147149D01*
X40632Y147175D01*
X40625Y147203D01*
X40567Y147301D01*
X40515Y147401D01*
X40495Y147423D01*
X40480Y147448D01*
X40397Y147525D01*
X40319Y147607D01*
X40294Y147622D01*
X40272Y147642D01*
X40172Y147694D01*
X40074Y147751D01*
X40045Y147758D01*
X40019Y147772D01*
X39942Y147785D01*
X39798Y147821D01*
X39736Y147819D01*
X39688Y147827D01*
X34065Y147827D01*
X33978Y147815D01*
X33891Y147812D01*
X33838Y147795D01*
X33783Y147787D01*
X33703Y147752D01*
X33620Y147725D01*
X33581Y147697D01*
X33524Y147671D01*
X33411Y147575D01*
X33347Y147530D01*
X29025Y143209D01*
X29024Y143207D01*
X29023Y143206D01*
X28938Y143093D01*
X28855Y142981D01*
X28854Y142980D01*
X28853Y142979D01*
X28801Y142841D01*
X28753Y142716D01*
X28753Y142714D01*
X28753Y142713D01*
X28741Y142571D01*
X28730Y142432D01*
X28730Y142431D01*
X28730Y142429D01*
X28733Y142414D01*
X28758Y142290D01*
X28758Y139184D01*
X27598Y136383D01*
X25454Y134239D01*
X22653Y133079D01*
X19622Y133079D01*
G37*
%LPD*%
%LPC*%
G36*
X19622Y183879D02*
X19622Y183879D01*
X16821Y185039D01*
X14677Y187183D01*
X13517Y189984D01*
X13517Y193016D01*
X14677Y195817D01*
X16821Y197961D01*
X19622Y199121D01*
X21871Y199121D01*
X21957Y199133D01*
X22045Y199136D01*
X22098Y199153D01*
X22152Y199161D01*
X22232Y199196D01*
X22315Y199223D01*
X22355Y199251D01*
X22412Y199277D01*
X22525Y199373D01*
X22589Y199418D01*
X30308Y207138D01*
X43405Y207138D01*
X43492Y207150D01*
X43579Y207153D01*
X43632Y207170D01*
X43687Y207178D01*
X43767Y207213D01*
X43850Y207240D01*
X43889Y207268D01*
X43946Y207294D01*
X44059Y207390D01*
X44123Y207435D01*
X45052Y208364D01*
X45070Y208388D01*
X45092Y208407D01*
X45155Y208501D01*
X45223Y208591D01*
X45234Y208619D01*
X45250Y208643D01*
X45284Y208751D01*
X45324Y208857D01*
X45327Y208886D01*
X45336Y208914D01*
X45339Y209028D01*
X45348Y209140D01*
X45342Y209169D01*
X45343Y209198D01*
X45314Y209308D01*
X45292Y209419D01*
X45279Y209445D01*
X45271Y209473D01*
X45213Y209571D01*
X45161Y209671D01*
X45141Y209693D01*
X45126Y209718D01*
X45043Y209795D01*
X44965Y209877D01*
X44940Y209892D01*
X44919Y209912D01*
X44818Y209964D01*
X44720Y210021D01*
X44692Y210028D01*
X44665Y210042D01*
X44588Y210055D01*
X44445Y210091D01*
X44382Y210089D01*
X44334Y210097D01*
X43279Y210097D01*
X40779Y211133D01*
X38865Y213046D01*
X37830Y215547D01*
X37830Y218253D01*
X38865Y220754D01*
X40779Y222667D01*
X43279Y223703D01*
X45986Y223703D01*
X48486Y222667D01*
X50400Y220754D01*
X51435Y218253D01*
X51435Y217198D01*
X51439Y217169D01*
X51437Y217140D01*
X51459Y217029D01*
X51475Y216917D01*
X51487Y216890D01*
X51493Y216861D01*
X51545Y216761D01*
X51591Y216657D01*
X51610Y216635D01*
X51624Y216609D01*
X51702Y216527D01*
X51775Y216440D01*
X51799Y216424D01*
X51820Y216403D01*
X51917Y216345D01*
X52012Y216283D01*
X52040Y216274D01*
X52065Y216259D01*
X52174Y216231D01*
X52283Y216197D01*
X52312Y216196D01*
X52340Y216189D01*
X52453Y216192D01*
X52567Y216190D01*
X52595Y216197D01*
X52625Y216198D01*
X52732Y216233D01*
X52842Y216261D01*
X52867Y216276D01*
X52895Y216285D01*
X52959Y216331D01*
X53086Y216407D01*
X53129Y216452D01*
X53168Y216480D01*
X55455Y218767D01*
X55507Y218836D01*
X55567Y218900D01*
X55593Y218950D01*
X55626Y218994D01*
X55657Y219076D01*
X55697Y219154D01*
X55705Y219201D01*
X55727Y219260D01*
X55736Y219369D01*
X55738Y219376D01*
X55739Y219404D01*
X55739Y219407D01*
X55752Y219485D01*
X55752Y423534D01*
X58728Y426510D01*
X95460Y463242D01*
X95512Y463312D01*
X95572Y463375D01*
X95598Y463425D01*
X95631Y463469D01*
X95662Y463551D01*
X95702Y463629D01*
X95710Y463676D01*
X95732Y463735D01*
X95744Y463882D01*
X95757Y463960D01*
X95757Y464864D01*
X95745Y464951D01*
X95742Y465038D01*
X95725Y465091D01*
X95717Y465146D01*
X95682Y465226D01*
X95655Y465309D01*
X95627Y465348D01*
X95601Y465405D01*
X95505Y465518D01*
X95460Y465582D01*
X93223Y467818D01*
X91947Y470900D01*
X91947Y487950D01*
X93223Y491032D01*
X95581Y493390D01*
X98663Y494666D01*
X101997Y494666D01*
X105079Y493390D01*
X107437Y491032D01*
X108713Y487950D01*
X108713Y470900D01*
X107437Y467818D01*
X105200Y465582D01*
X105148Y465512D01*
X105088Y465448D01*
X105062Y465399D01*
X105029Y465355D01*
X104998Y465273D01*
X104958Y465195D01*
X104950Y465148D01*
X104928Y465089D01*
X104916Y464942D01*
X104903Y464864D01*
X104903Y459751D01*
X65195Y420043D01*
X65143Y419973D01*
X65083Y419910D01*
X65057Y419860D01*
X65024Y419816D01*
X64993Y419734D01*
X64953Y419656D01*
X64945Y419609D01*
X64923Y419550D01*
X64911Y419403D01*
X64898Y419325D01*
X64898Y215276D01*
X61922Y212300D01*
X50590Y200968D01*
X48405Y198784D01*
X48370Y198737D01*
X48328Y198697D01*
X48285Y198624D01*
X48234Y198556D01*
X48214Y198502D01*
X48184Y198451D01*
X48163Y198370D01*
X48133Y198291D01*
X48128Y198232D01*
X48114Y198176D01*
X48117Y198091D01*
X48110Y198007D01*
X48121Y197950D01*
X48123Y197892D01*
X48149Y197811D01*
X48166Y197729D01*
X48192Y197677D01*
X48210Y197621D01*
X48251Y197565D01*
X48297Y197476D01*
X48365Y197404D01*
X48405Y197348D01*
X50400Y195354D01*
X51435Y192853D01*
X51435Y190147D01*
X50400Y187646D01*
X48486Y185733D01*
X45986Y184697D01*
X43279Y184697D01*
X40779Y185733D01*
X38865Y187646D01*
X37830Y190147D01*
X37830Y192853D01*
X38865Y195353D01*
X39771Y196259D01*
X39789Y196283D01*
X39811Y196302D01*
X39874Y196396D01*
X39942Y196486D01*
X39952Y196514D01*
X39969Y196538D01*
X40003Y196646D01*
X40043Y196752D01*
X40046Y196781D01*
X40055Y196809D01*
X40057Y196923D01*
X40067Y197035D01*
X40061Y197064D01*
X40062Y197093D01*
X40033Y197203D01*
X40011Y197314D01*
X39997Y197340D01*
X39990Y197368D01*
X39932Y197466D01*
X39880Y197566D01*
X39860Y197588D01*
X39845Y197613D01*
X39762Y197690D01*
X39684Y197772D01*
X39659Y197787D01*
X39637Y197807D01*
X39536Y197859D01*
X39439Y197916D01*
X39410Y197923D01*
X39384Y197937D01*
X39307Y197950D01*
X39163Y197986D01*
X39101Y197984D01*
X39053Y197992D01*
X34517Y197992D01*
X34431Y197980D01*
X34343Y197977D01*
X34290Y197960D01*
X34236Y197952D01*
X34156Y197917D01*
X34073Y197890D01*
X34033Y197862D01*
X33976Y197836D01*
X33863Y197740D01*
X33799Y197695D01*
X29056Y192951D01*
X29003Y192881D01*
X28943Y192818D01*
X28918Y192768D01*
X28885Y192724D01*
X28854Y192642D01*
X28814Y192564D01*
X28806Y192517D01*
X28783Y192458D01*
X28771Y192311D01*
X28758Y192233D01*
X28758Y189984D01*
X27598Y187183D01*
X25454Y185039D01*
X22653Y183879D01*
X19622Y183879D01*
G37*
%LPD*%
G36*
X215395Y195523D02*
X215395Y195523D01*
X215508Y195520D01*
X215537Y195527D01*
X215566Y195528D01*
X215674Y195563D01*
X215783Y195592D01*
X215809Y195607D01*
X215837Y195616D01*
X215901Y195661D01*
X216028Y195737D01*
X216071Y195783D01*
X216110Y195811D01*
X217023Y196724D01*
X217141Y196724D01*
X217228Y196736D01*
X217315Y196739D01*
X217368Y196756D01*
X217423Y196764D01*
X217503Y196799D01*
X217586Y196826D01*
X217625Y196854D01*
X217682Y196880D01*
X217796Y196976D01*
X217859Y197021D01*
X225635Y204797D01*
X227286Y206448D01*
X227338Y206518D01*
X227398Y206581D01*
X227424Y206631D01*
X227457Y206675D01*
X227488Y206757D01*
X227528Y206835D01*
X227536Y206882D01*
X227558Y206941D01*
X227570Y207088D01*
X227583Y207166D01*
X227583Y207256D01*
X228743Y210057D01*
X230887Y212201D01*
X233688Y213361D01*
X236728Y213361D01*
X236786Y213369D01*
X236844Y213367D01*
X236926Y213389D01*
X237010Y213401D01*
X237063Y213424D01*
X237119Y213439D01*
X237192Y213482D01*
X237269Y213517D01*
X237314Y213555D01*
X237364Y213584D01*
X237422Y213646D01*
X237486Y213700D01*
X237518Y213749D01*
X237558Y213792D01*
X237597Y213867D01*
X237644Y213937D01*
X237661Y213993D01*
X237688Y214045D01*
X237699Y214113D01*
X237729Y214208D01*
X237732Y214308D01*
X237743Y214376D01*
X237743Y222504D01*
X237735Y222562D01*
X237737Y222620D01*
X237715Y222702D01*
X237703Y222786D01*
X237680Y222839D01*
X237665Y222895D01*
X237622Y222968D01*
X237587Y223045D01*
X237549Y223090D01*
X237520Y223140D01*
X237458Y223198D01*
X237404Y223262D01*
X237355Y223294D01*
X237312Y223334D01*
X237237Y223373D01*
X237167Y223420D01*
X237111Y223437D01*
X237059Y223464D01*
X236991Y223475D01*
X236896Y223505D01*
X236796Y223508D01*
X236728Y223519D01*
X233688Y223519D01*
X230887Y224679D01*
X228743Y226823D01*
X227583Y229624D01*
X227583Y232656D01*
X228743Y235457D01*
X230887Y237601D01*
X233688Y238761D01*
X248912Y238761D01*
X251713Y237601D01*
X253344Y235970D01*
X253367Y235952D01*
X253386Y235930D01*
X253480Y235867D01*
X253571Y235799D01*
X253598Y235788D01*
X253623Y235772D01*
X253731Y235738D01*
X253836Y235698D01*
X253866Y235695D01*
X253894Y235686D01*
X254007Y235683D01*
X254120Y235674D01*
X254148Y235680D01*
X254178Y235679D01*
X254287Y235708D01*
X254399Y235730D01*
X254425Y235743D01*
X254453Y235751D01*
X254550Y235809D01*
X254651Y235861D01*
X254672Y235881D01*
X254697Y235896D01*
X254775Y235979D01*
X254857Y236057D01*
X254872Y236082D01*
X254892Y236103D01*
X254943Y236204D01*
X255001Y236302D01*
X255008Y236330D01*
X255021Y236357D01*
X255034Y236434D01*
X255071Y236577D01*
X255069Y236640D01*
X255077Y236688D01*
X255077Y288331D01*
X255067Y288403D01*
X255067Y288475D01*
X255047Y288543D01*
X255037Y288613D01*
X255007Y288678D01*
X254987Y288748D01*
X254950Y288808D01*
X254921Y288872D01*
X254874Y288927D01*
X254835Y288988D01*
X254783Y289035D01*
X254737Y289089D01*
X254677Y289129D01*
X254623Y289177D01*
X254559Y289207D01*
X254500Y289247D01*
X254431Y289268D01*
X254366Y289299D01*
X254297Y289311D01*
X254229Y289332D01*
X254157Y289334D01*
X254086Y289346D01*
X254016Y289338D01*
X253945Y289340D01*
X253875Y289321D01*
X253804Y289313D01*
X253749Y289288D01*
X253670Y289268D01*
X253567Y289206D01*
X253497Y289175D01*
X252122Y288256D01*
X250550Y287605D01*
X248882Y287273D01*
X243966Y287273D01*
X243966Y294894D01*
X243958Y294952D01*
X243960Y295010D01*
X243938Y295092D01*
X243926Y295175D01*
X243902Y295229D01*
X243888Y295285D01*
X243845Y295358D01*
X243810Y295435D01*
X243772Y295479D01*
X243742Y295530D01*
X243681Y295587D01*
X243626Y295652D01*
X243578Y295684D01*
X243535Y295724D01*
X243460Y295763D01*
X243390Y295809D01*
X243334Y295827D01*
X243282Y295854D01*
X243214Y295865D01*
X243119Y295895D01*
X243019Y295898D01*
X242951Y295909D01*
X241934Y295909D01*
X241934Y295911D01*
X242951Y295911D01*
X243009Y295919D01*
X243067Y295918D01*
X243149Y295939D01*
X243232Y295951D01*
X243286Y295975D01*
X243342Y295989D01*
X243415Y296032D01*
X243492Y296067D01*
X243537Y296105D01*
X243587Y296135D01*
X243645Y296196D01*
X243709Y296251D01*
X243741Y296299D01*
X243781Y296342D01*
X243820Y296417D01*
X243866Y296487D01*
X243884Y296543D01*
X243911Y296595D01*
X243922Y296663D01*
X243952Y296758D01*
X243955Y296858D01*
X243966Y296926D01*
X243966Y304547D01*
X248882Y304547D01*
X250550Y304215D01*
X252122Y303564D01*
X253497Y302645D01*
X253563Y302613D01*
X253623Y302573D01*
X253690Y302552D01*
X253754Y302521D01*
X253825Y302509D01*
X253894Y302488D01*
X253964Y302486D01*
X254034Y302474D01*
X254106Y302482D01*
X254178Y302480D01*
X254246Y302498D01*
X254316Y302506D01*
X254383Y302534D01*
X254453Y302552D01*
X254514Y302588D01*
X254579Y302615D01*
X254635Y302661D01*
X254697Y302697D01*
X254746Y302749D01*
X254801Y302793D01*
X254842Y302852D01*
X254892Y302905D01*
X254924Y302968D01*
X254965Y303025D01*
X254988Y303093D01*
X255021Y303158D01*
X255031Y303217D01*
X255058Y303294D01*
X255064Y303414D01*
X255077Y303489D01*
X255077Y315127D01*
X255073Y315157D01*
X255075Y315186D01*
X255053Y315297D01*
X255037Y315409D01*
X255025Y315436D01*
X255019Y315464D01*
X254967Y315565D01*
X254921Y315668D01*
X254902Y315691D01*
X254888Y315717D01*
X254810Y315799D01*
X254737Y315885D01*
X254713Y315902D01*
X254692Y315923D01*
X254595Y315980D01*
X254500Y316043D01*
X254472Y316052D01*
X254447Y316067D01*
X254338Y316094D01*
X254229Y316129D01*
X254200Y316129D01*
X254172Y316137D01*
X254059Y316133D01*
X253945Y316136D01*
X253917Y316129D01*
X253887Y316128D01*
X253779Y316093D01*
X253670Y316064D01*
X253645Y316049D01*
X253617Y316040D01*
X253553Y315995D01*
X253426Y315919D01*
X253383Y315873D01*
X253344Y315845D01*
X252348Y314849D01*
X249547Y313689D01*
X241329Y313689D01*
X241242Y313677D01*
X241155Y313674D01*
X241102Y313657D01*
X241047Y313649D01*
X240967Y313614D01*
X240884Y313587D01*
X240845Y313559D01*
X240788Y313533D01*
X240674Y313437D01*
X240611Y313392D01*
X233332Y306113D01*
X233255Y306011D01*
X233175Y305910D01*
X233169Y305897D01*
X233161Y305886D01*
X233115Y305766D01*
X233066Y305647D01*
X233065Y305633D01*
X233060Y305620D01*
X233049Y305492D01*
X233035Y305364D01*
X233037Y305351D01*
X233036Y305337D01*
X233061Y305211D01*
X233083Y305084D01*
X233089Y305072D01*
X233092Y305058D01*
X233152Y304944D01*
X233207Y304829D01*
X233217Y304818D01*
X233223Y304806D01*
X233312Y304713D01*
X233398Y304617D01*
X233409Y304610D01*
X233419Y304600D01*
X233530Y304535D01*
X233639Y304467D01*
X233652Y304463D01*
X233664Y304456D01*
X233788Y304424D01*
X233912Y304389D01*
X233925Y304390D01*
X233940Y304386D01*
X234224Y304395D01*
X234237Y304399D01*
X234248Y304399D01*
X234988Y304547D01*
X239904Y304547D01*
X239904Y297941D01*
X227331Y297941D01*
X227311Y298036D01*
X227305Y298049D01*
X227302Y298062D01*
X227239Y298175D01*
X227180Y298289D01*
X227171Y298299D01*
X227164Y298311D01*
X227073Y298401D01*
X226985Y298495D01*
X226973Y298502D01*
X226963Y298511D01*
X226850Y298573D01*
X226739Y298638D01*
X226726Y298642D01*
X226714Y298648D01*
X226588Y298677D01*
X226464Y298708D01*
X226450Y298708D01*
X226436Y298711D01*
X226308Y298703D01*
X226180Y298699D01*
X226167Y298695D01*
X226153Y298694D01*
X226031Y298651D01*
X225909Y298612D01*
X225899Y298605D01*
X225885Y298600D01*
X225653Y298434D01*
X225645Y298424D01*
X225636Y298417D01*
X207943Y280724D01*
X207891Y280655D01*
X207831Y280591D01*
X207805Y280541D01*
X207772Y280497D01*
X207741Y280415D01*
X207701Y280337D01*
X207693Y280290D01*
X207671Y280231D01*
X207659Y280084D01*
X207646Y280006D01*
X207646Y279888D01*
X204744Y276986D01*
X200640Y276986D01*
X197738Y279888D01*
X197738Y283992D01*
X198310Y284564D01*
X198328Y284588D01*
X198351Y284607D01*
X198413Y284701D01*
X198481Y284791D01*
X198492Y284819D01*
X198508Y284843D01*
X198542Y284951D01*
X198583Y285057D01*
X198585Y285086D01*
X198594Y285114D01*
X198597Y285228D01*
X198606Y285340D01*
X198600Y285369D01*
X198601Y285398D01*
X198573Y285508D01*
X198550Y285619D01*
X198537Y285645D01*
X198529Y285673D01*
X198472Y285771D01*
X198419Y285871D01*
X198399Y285893D01*
X198384Y285918D01*
X198301Y285995D01*
X198224Y286077D01*
X198198Y286092D01*
X198177Y286112D01*
X198076Y286164D01*
X197978Y286221D01*
X197950Y286228D01*
X197924Y286242D01*
X197846Y286255D01*
X197703Y286291D01*
X197640Y286289D01*
X197593Y286297D01*
X195679Y286297D01*
X193179Y287333D01*
X192234Y288278D01*
X192210Y288296D01*
X192191Y288318D01*
X192097Y288381D01*
X192007Y288449D01*
X191979Y288459D01*
X191955Y288476D01*
X191847Y288510D01*
X191741Y288550D01*
X191712Y288553D01*
X191684Y288562D01*
X191570Y288564D01*
X191458Y288574D01*
X191429Y288568D01*
X191400Y288569D01*
X191290Y288540D01*
X191179Y288518D01*
X191153Y288504D01*
X191125Y288497D01*
X191027Y288439D01*
X190927Y288387D01*
X190905Y288367D01*
X190880Y288352D01*
X190803Y288269D01*
X190721Y288191D01*
X190706Y288166D01*
X190686Y288144D01*
X190634Y288043D01*
X190577Y287946D01*
X190570Y287917D01*
X190556Y287891D01*
X190543Y287814D01*
X190507Y287670D01*
X190509Y287608D01*
X190501Y287560D01*
X190501Y273240D01*
X190505Y273211D01*
X190502Y273181D01*
X190525Y273070D01*
X190541Y272958D01*
X190553Y272932D01*
X190558Y272903D01*
X190611Y272802D01*
X190657Y272699D01*
X190676Y272676D01*
X190689Y272650D01*
X190767Y272568D01*
X190840Y272482D01*
X190865Y272466D01*
X190885Y272444D01*
X190983Y272387D01*
X191077Y272324D01*
X191105Y272315D01*
X191130Y272301D01*
X191240Y272273D01*
X191348Y272238D01*
X191378Y272238D01*
X191406Y272231D01*
X191519Y272234D01*
X191632Y272231D01*
X191661Y272239D01*
X191690Y272240D01*
X191798Y272274D01*
X191907Y272303D01*
X191933Y272318D01*
X191961Y272327D01*
X192025Y272373D01*
X192152Y272448D01*
X192195Y272494D01*
X192234Y272522D01*
X193179Y273467D01*
X195679Y274503D01*
X198386Y274503D01*
X200886Y273467D01*
X202800Y271554D01*
X203835Y269053D01*
X203835Y266347D01*
X202800Y263847D01*
X201266Y262313D01*
X201231Y262266D01*
X201188Y262226D01*
X201146Y262153D01*
X201095Y262086D01*
X201074Y262031D01*
X201045Y261981D01*
X201024Y261899D01*
X200994Y261820D01*
X200989Y261762D01*
X200974Y261705D01*
X200977Y261621D01*
X200970Y261537D01*
X200982Y261479D01*
X200983Y261421D01*
X201009Y261341D01*
X201026Y261258D01*
X201053Y261206D01*
X201071Y261150D01*
X201111Y261094D01*
X201157Y261006D01*
X201226Y260933D01*
X201266Y260877D01*
X214377Y247766D01*
X214377Y196528D01*
X214381Y196499D01*
X214378Y196470D01*
X214401Y196359D01*
X214417Y196247D01*
X214429Y196220D01*
X214434Y196191D01*
X214487Y196091D01*
X214533Y195987D01*
X214552Y195965D01*
X214565Y195939D01*
X214643Y195857D01*
X214716Y195770D01*
X214741Y195754D01*
X214761Y195733D01*
X214859Y195676D01*
X214953Y195613D01*
X214981Y195604D01*
X215006Y195589D01*
X215116Y195561D01*
X215224Y195527D01*
X215254Y195526D01*
X215282Y195519D01*
X215395Y195523D01*
G37*
%LPC*%
G36*
X81852Y88772D02*
X81852Y88772D01*
X81836Y88780D01*
X81789Y88788D01*
X81731Y88810D01*
X81583Y88823D01*
X81505Y88836D01*
X72774Y88836D01*
X71881Y89729D01*
X71881Y97596D01*
X72774Y98489D01*
X92872Y98489D01*
X92959Y98501D01*
X93046Y98504D01*
X93099Y98521D01*
X93153Y98529D01*
X93233Y98565D01*
X93316Y98592D01*
X93356Y98620D01*
X93413Y98645D01*
X93526Y98741D01*
X93590Y98787D01*
X94606Y99803D01*
X94623Y99826D01*
X94646Y99845D01*
X94709Y99940D01*
X94777Y100030D01*
X94787Y100057D01*
X94803Y100082D01*
X94838Y100190D01*
X94878Y100295D01*
X94880Y100325D01*
X94889Y100353D01*
X94892Y100466D01*
X94901Y100579D01*
X94896Y100607D01*
X94896Y100637D01*
X94868Y100746D01*
X94846Y100858D01*
X94832Y100884D01*
X94825Y100912D01*
X94767Y101009D01*
X94715Y101110D01*
X94694Y101131D01*
X94679Y101156D01*
X94597Y101234D01*
X94519Y101316D01*
X94493Y101331D01*
X94472Y101351D01*
X94371Y101402D01*
X94274Y101460D01*
X94245Y101467D01*
X94219Y101480D01*
X94142Y101493D01*
X93998Y101530D01*
X93936Y101528D01*
X93888Y101536D01*
X72760Y101536D01*
X72748Y101545D01*
X72684Y101605D01*
X72635Y101630D01*
X72591Y101663D01*
X72509Y101694D01*
X72431Y101734D01*
X72383Y101742D01*
X72325Y101765D01*
X72177Y101777D01*
X72100Y101790D01*
X51763Y101790D01*
X45353Y108200D01*
X45283Y108252D01*
X45220Y108312D01*
X45170Y108338D01*
X45126Y108371D01*
X45044Y108402D01*
X44966Y108442D01*
X44919Y108450D01*
X44860Y108472D01*
X44713Y108484D01*
X44635Y108497D01*
X43279Y108497D01*
X40779Y109533D01*
X38865Y111446D01*
X37830Y113947D01*
X37830Y116653D01*
X38865Y119154D01*
X40779Y121067D01*
X43279Y122103D01*
X45986Y122103D01*
X48486Y121067D01*
X50400Y119154D01*
X51435Y116653D01*
X51435Y115472D01*
X51447Y115386D01*
X51450Y115298D01*
X51467Y115245D01*
X51475Y115191D01*
X51511Y115111D01*
X51538Y115028D01*
X51566Y114988D01*
X51591Y114931D01*
X51687Y114818D01*
X51733Y114754D01*
X55254Y111233D01*
X55324Y111180D01*
X55388Y111120D01*
X55437Y111095D01*
X55481Y111062D01*
X55563Y111031D01*
X55641Y110991D01*
X55689Y110983D01*
X55747Y110960D01*
X55895Y110948D01*
X55972Y110935D01*
X72100Y110935D01*
X72187Y110947D01*
X72274Y110950D01*
X72327Y110967D01*
X72381Y110975D01*
X72461Y111011D01*
X72544Y111038D01*
X72584Y111066D01*
X72641Y111091D01*
X72754Y111187D01*
X72757Y111189D01*
X94358Y111189D01*
X95251Y110296D01*
X95251Y102899D01*
X95255Y102869D01*
X95252Y102840D01*
X95275Y102729D01*
X95291Y102617D01*
X95303Y102590D01*
X95308Y102562D01*
X95361Y102461D01*
X95407Y102358D01*
X95426Y102335D01*
X95439Y102309D01*
X95517Y102227D01*
X95590Y102141D01*
X95615Y102124D01*
X95635Y102103D01*
X95733Y102046D01*
X95827Y101983D01*
X95855Y101974D01*
X95880Y101959D01*
X95990Y101932D01*
X96098Y101897D01*
X96128Y101897D01*
X96156Y101889D01*
X96269Y101893D01*
X96382Y101890D01*
X96411Y101897D01*
X96440Y101898D01*
X96548Y101933D01*
X96657Y101962D01*
X96683Y101977D01*
X96711Y101986D01*
X96774Y102031D01*
X96902Y102107D01*
X96945Y102153D01*
X96984Y102181D01*
X99905Y105102D01*
X99957Y105172D01*
X100017Y105235D01*
X100043Y105285D01*
X100076Y105329D01*
X100101Y105394D01*
X100103Y105397D01*
X100107Y105410D01*
X100107Y105411D01*
X100147Y105489D01*
X100155Y105536D01*
X100177Y105595D01*
X100181Y105646D01*
X100188Y105668D01*
X100190Y105749D01*
X100202Y105820D01*
X100202Y120337D01*
X100190Y120423D01*
X100187Y120511D01*
X100170Y120563D01*
X100162Y120618D01*
X100127Y120698D01*
X100100Y120781D01*
X100072Y120820D01*
X100046Y120877D01*
X99950Y120991D01*
X99905Y121054D01*
X99821Y121138D01*
X99821Y125242D01*
X102723Y128144D01*
X106827Y128144D01*
X109729Y125242D01*
X109729Y121138D01*
X109645Y121054D01*
X109593Y120985D01*
X109533Y120921D01*
X109507Y120871D01*
X109474Y120827D01*
X109443Y120746D01*
X109403Y120668D01*
X109395Y120620D01*
X109373Y120562D01*
X109361Y120414D01*
X109348Y120337D01*
X109348Y101611D01*
X96509Y88772D01*
X81852Y88772D01*
G37*
%LPD*%
%LPC*%
G36*
X72774Y63436D02*
X72774Y63436D01*
X71881Y64329D01*
X71881Y72196D01*
X72774Y73089D01*
X81442Y73089D01*
X81529Y73101D01*
X81616Y73104D01*
X81669Y73121D01*
X81723Y73129D01*
X81776Y73153D01*
X95221Y73153D01*
X95308Y73165D01*
X95395Y73168D01*
X95448Y73185D01*
X95503Y73193D01*
X95583Y73228D01*
X95666Y73255D01*
X95705Y73283D01*
X95762Y73309D01*
X95876Y73405D01*
X95939Y73450D01*
X114002Y91513D01*
X114054Y91583D01*
X114114Y91646D01*
X114140Y91696D01*
X114173Y91740D01*
X114204Y91822D01*
X114244Y91900D01*
X114252Y91947D01*
X114274Y92006D01*
X114286Y92153D01*
X114299Y92231D01*
X114299Y100779D01*
X114291Y100833D01*
X114293Y100876D01*
X114286Y100902D01*
X114284Y100953D01*
X114267Y101005D01*
X114259Y101060D01*
X114224Y101140D01*
X114221Y101151D01*
X114219Y101153D01*
X114197Y101223D01*
X114169Y101262D01*
X114143Y101319D01*
X114047Y101433D01*
X114002Y101496D01*
X113918Y101580D01*
X113918Y105684D01*
X116820Y108586D01*
X120924Y108586D01*
X123826Y105684D01*
X123826Y101580D01*
X123742Y101496D01*
X123690Y101427D01*
X123630Y101363D01*
X123604Y101313D01*
X123571Y101269D01*
X123540Y101188D01*
X123500Y101110D01*
X123492Y101062D01*
X123470Y101004D01*
X123465Y100948D01*
X123459Y100927D01*
X123457Y100850D01*
X123445Y100779D01*
X123445Y88022D01*
X99430Y64007D01*
X95350Y64007D01*
X95263Y63995D01*
X95176Y63992D01*
X95123Y63975D01*
X95068Y63967D01*
X94988Y63932D01*
X94905Y63905D01*
X94866Y63877D01*
X94809Y63851D01*
X94695Y63755D01*
X94632Y63710D01*
X94358Y63436D01*
X72774Y63436D01*
G37*
%LPD*%
%LPC*%
G36*
X72760Y76136D02*
X72760Y76136D01*
X72748Y76145D01*
X72684Y76205D01*
X72635Y76230D01*
X72591Y76263D01*
X72509Y76294D01*
X72431Y76334D01*
X72383Y76342D01*
X72325Y76365D01*
X72177Y76377D01*
X72100Y76390D01*
X51763Y76390D01*
X45353Y82800D01*
X45283Y82852D01*
X45220Y82912D01*
X45170Y82938D01*
X45126Y82971D01*
X45044Y83002D01*
X44966Y83042D01*
X44919Y83050D01*
X44860Y83072D01*
X44713Y83084D01*
X44635Y83097D01*
X43279Y83097D01*
X40779Y84133D01*
X38865Y86046D01*
X37830Y88547D01*
X37830Y91253D01*
X38865Y93754D01*
X40779Y95667D01*
X43279Y96703D01*
X45986Y96703D01*
X48486Y95667D01*
X50400Y93754D01*
X51435Y91253D01*
X51435Y90072D01*
X51447Y89986D01*
X51450Y89898D01*
X51467Y89845D01*
X51475Y89791D01*
X51511Y89711D01*
X51538Y89628D01*
X51566Y89588D01*
X51591Y89531D01*
X51687Y89418D01*
X51733Y89354D01*
X55254Y85833D01*
X55324Y85780D01*
X55388Y85720D01*
X55437Y85695D01*
X55481Y85662D01*
X55563Y85631D01*
X55641Y85591D01*
X55689Y85583D01*
X55747Y85560D01*
X55895Y85548D01*
X55972Y85535D01*
X72100Y85535D01*
X72187Y85547D01*
X72274Y85550D01*
X72327Y85567D01*
X72381Y85575D01*
X72461Y85611D01*
X72544Y85638D01*
X72584Y85666D01*
X72641Y85691D01*
X72754Y85787D01*
X72757Y85789D01*
X94358Y85789D01*
X95251Y84896D01*
X95251Y77029D01*
X94358Y76136D01*
X72760Y76136D01*
G37*
%LPD*%
%LPC*%
G36*
X73263Y464184D02*
X73263Y464184D01*
X70181Y465460D01*
X67823Y467818D01*
X66547Y470900D01*
X66547Y487950D01*
X67823Y491032D01*
X70181Y493390D01*
X73263Y494666D01*
X76597Y494666D01*
X79679Y493390D01*
X82037Y491032D01*
X83313Y487950D01*
X83313Y470900D01*
X82037Y467818D01*
X79679Y465460D01*
X76597Y464184D01*
X73263Y464184D01*
G37*
%LPD*%
%LPC*%
G36*
X134242Y101536D02*
X134242Y101536D01*
X133349Y102429D01*
X133349Y110296D01*
X134242Y111189D01*
X155826Y111189D01*
X156719Y110296D01*
X156719Y102429D01*
X155826Y101536D01*
X134242Y101536D01*
G37*
%LPD*%
%LPC*%
G36*
X72774Y114236D02*
X72774Y114236D01*
X71881Y115129D01*
X71881Y122996D01*
X72774Y123889D01*
X94358Y123889D01*
X95251Y122996D01*
X95251Y115129D01*
X94358Y114236D01*
X72774Y114236D01*
G37*
%LPD*%
%LPC*%
G36*
X134242Y76136D02*
X134242Y76136D01*
X133349Y77029D01*
X133349Y84896D01*
X134242Y85789D01*
X155826Y85789D01*
X156719Y84896D01*
X156719Y77029D01*
X155826Y76136D01*
X134242Y76136D01*
G37*
%LPD*%
%LPC*%
G36*
X134242Y50736D02*
X134242Y50736D01*
X133349Y51629D01*
X133349Y59496D01*
X134242Y60389D01*
X155826Y60389D01*
X156719Y59496D01*
X156719Y51629D01*
X155826Y50736D01*
X134242Y50736D01*
G37*
%LPD*%
%LPC*%
G36*
X19622Y463279D02*
X19622Y463279D01*
X16821Y464439D01*
X14677Y466583D01*
X13517Y469384D01*
X13517Y472416D01*
X14677Y475217D01*
X16821Y477361D01*
X19622Y478521D01*
X22653Y478521D01*
X25454Y477361D01*
X27598Y475217D01*
X28758Y472416D01*
X28758Y469384D01*
X27598Y466583D01*
X25454Y464439D01*
X22653Y463279D01*
X19622Y463279D01*
G37*
%LPD*%
%LPC*%
G36*
X172022Y463279D02*
X172022Y463279D01*
X169221Y464439D01*
X167077Y466583D01*
X165917Y469384D01*
X165917Y472416D01*
X167077Y475217D01*
X169221Y477361D01*
X172022Y478521D01*
X175053Y478521D01*
X177854Y477361D01*
X179998Y475217D01*
X181158Y472416D01*
X181158Y469384D01*
X179998Y466583D01*
X177854Y464439D01*
X175053Y463279D01*
X172022Y463279D01*
G37*
%LPD*%
%LPC*%
G36*
X172022Y437879D02*
X172022Y437879D01*
X169221Y439039D01*
X167077Y441183D01*
X165917Y443984D01*
X165917Y447016D01*
X167077Y449817D01*
X169221Y451961D01*
X172022Y453121D01*
X175053Y453121D01*
X177854Y451961D01*
X179998Y449817D01*
X181158Y447016D01*
X181158Y443984D01*
X179998Y441183D01*
X177854Y439039D01*
X175053Y437879D01*
X172022Y437879D01*
G37*
%LPD*%
%LPC*%
G36*
X19622Y437879D02*
X19622Y437879D01*
X16821Y439039D01*
X14677Y441183D01*
X13517Y443984D01*
X13517Y447016D01*
X14677Y449817D01*
X16821Y451961D01*
X19622Y453121D01*
X22653Y453121D01*
X25454Y451961D01*
X27598Y449817D01*
X28758Y447016D01*
X28758Y443984D01*
X27598Y441183D01*
X25454Y439039D01*
X22653Y437879D01*
X19622Y437879D01*
G37*
%LPD*%
%LPC*%
G36*
X172022Y107679D02*
X172022Y107679D01*
X169221Y108839D01*
X167077Y110983D01*
X165917Y113784D01*
X165917Y116816D01*
X167077Y119617D01*
X169221Y121761D01*
X172022Y122921D01*
X175053Y122921D01*
X177854Y121761D01*
X179998Y119617D01*
X181158Y116816D01*
X181158Y113784D01*
X179998Y110983D01*
X177854Y108839D01*
X175053Y107679D01*
X172022Y107679D01*
G37*
%LPD*%
%LPC*%
G36*
X19622Y285479D02*
X19622Y285479D01*
X16821Y286639D01*
X14677Y288783D01*
X13517Y291584D01*
X13517Y294616D01*
X14677Y297417D01*
X16821Y299561D01*
X19622Y300721D01*
X22653Y300721D01*
X25454Y299561D01*
X27598Y297417D01*
X28758Y294616D01*
X28758Y291584D01*
X27598Y288783D01*
X25454Y286639D01*
X22653Y285479D01*
X19622Y285479D01*
G37*
%LPD*%
%LPC*%
G36*
X19622Y158479D02*
X19622Y158479D01*
X16821Y159639D01*
X14677Y161783D01*
X13517Y164584D01*
X13517Y167616D01*
X14677Y170417D01*
X16821Y172561D01*
X19622Y173721D01*
X22653Y173721D01*
X25454Y172561D01*
X27598Y170417D01*
X28758Y167616D01*
X28758Y164584D01*
X27598Y161783D01*
X25454Y159639D01*
X22653Y158479D01*
X19622Y158479D01*
G37*
%LPD*%
%LPC*%
G36*
X172022Y412479D02*
X172022Y412479D01*
X169221Y413639D01*
X167077Y415783D01*
X165917Y418584D01*
X165917Y421616D01*
X167077Y424417D01*
X169221Y426561D01*
X172022Y427721D01*
X175053Y427721D01*
X177854Y426561D01*
X179998Y424417D01*
X181158Y421616D01*
X181158Y418584D01*
X179998Y415783D01*
X177854Y413639D01*
X175053Y412479D01*
X172022Y412479D01*
G37*
%LPD*%
%LPC*%
G36*
X19622Y412479D02*
X19622Y412479D01*
X16821Y413639D01*
X14677Y415783D01*
X13517Y418584D01*
X13517Y421616D01*
X14677Y424417D01*
X16821Y426561D01*
X19622Y427721D01*
X22653Y427721D01*
X25454Y426561D01*
X27598Y424417D01*
X28758Y421616D01*
X28758Y418584D01*
X27598Y415783D01*
X25454Y413639D01*
X22653Y412479D01*
X19622Y412479D01*
G37*
%LPD*%
%LPC*%
G36*
X19622Y107679D02*
X19622Y107679D01*
X16821Y108839D01*
X14677Y110983D01*
X13517Y113784D01*
X13517Y116816D01*
X14677Y119617D01*
X16821Y121761D01*
X19622Y122921D01*
X22653Y122921D01*
X25454Y121761D01*
X27598Y119617D01*
X28758Y116816D01*
X28758Y113784D01*
X27598Y110983D01*
X25454Y108839D01*
X22653Y107679D01*
X19622Y107679D01*
G37*
%LPD*%
%LPC*%
G36*
X19622Y260079D02*
X19622Y260079D01*
X16821Y261239D01*
X14677Y263383D01*
X13517Y266184D01*
X13517Y269216D01*
X14677Y272017D01*
X16821Y274161D01*
X19622Y275321D01*
X22653Y275321D01*
X25454Y274161D01*
X27598Y272017D01*
X28758Y269216D01*
X28758Y266184D01*
X27598Y263383D01*
X25454Y261239D01*
X22653Y260079D01*
X19622Y260079D01*
G37*
%LPD*%
%LPC*%
G36*
X172022Y387079D02*
X172022Y387079D01*
X169221Y388239D01*
X167077Y390383D01*
X165917Y393184D01*
X165917Y396216D01*
X167077Y399017D01*
X169221Y401161D01*
X172022Y402321D01*
X175053Y402321D01*
X177854Y401161D01*
X179998Y399017D01*
X181158Y396216D01*
X181158Y393184D01*
X179998Y390383D01*
X177854Y388239D01*
X175053Y387079D01*
X172022Y387079D01*
G37*
%LPD*%
%LPC*%
G36*
X19622Y387079D02*
X19622Y387079D01*
X16821Y388239D01*
X14677Y390383D01*
X13517Y393184D01*
X13517Y396216D01*
X14677Y399017D01*
X16821Y401161D01*
X19622Y402321D01*
X22653Y402321D01*
X25454Y401161D01*
X27598Y399017D01*
X28758Y396216D01*
X28758Y393184D01*
X27598Y390383D01*
X25454Y388239D01*
X22653Y387079D01*
X19622Y387079D01*
G37*
%LPD*%
%LPC*%
G36*
X172022Y133079D02*
X172022Y133079D01*
X169221Y134239D01*
X167077Y136383D01*
X165917Y139184D01*
X165917Y142216D01*
X167077Y145017D01*
X169221Y147161D01*
X172022Y148321D01*
X175053Y148321D01*
X177854Y147161D01*
X179998Y145017D01*
X181158Y142216D01*
X181158Y139184D01*
X179998Y136383D01*
X177854Y134239D01*
X175053Y133079D01*
X172022Y133079D01*
G37*
%LPD*%
%LPC*%
G36*
X19622Y336279D02*
X19622Y336279D01*
X16821Y337439D01*
X14677Y339583D01*
X13517Y342384D01*
X13517Y345416D01*
X14677Y348217D01*
X16821Y350361D01*
X19622Y351521D01*
X22653Y351521D01*
X25454Y350361D01*
X27598Y348217D01*
X28758Y345416D01*
X28758Y342384D01*
X27598Y339583D01*
X25454Y337439D01*
X22653Y336279D01*
X19622Y336279D01*
G37*
%LPD*%
%LPC*%
G36*
X172022Y336279D02*
X172022Y336279D01*
X169221Y337439D01*
X167077Y339583D01*
X165917Y342384D01*
X165917Y345416D01*
X167077Y348217D01*
X169221Y350361D01*
X172022Y351521D01*
X175053Y351521D01*
X177854Y350361D01*
X179998Y348217D01*
X181158Y345416D01*
X181158Y342384D01*
X179998Y339583D01*
X177854Y337439D01*
X175053Y336279D01*
X172022Y336279D01*
G37*
%LPD*%
%LPC*%
G36*
X19622Y209279D02*
X19622Y209279D01*
X16821Y210439D01*
X14677Y212583D01*
X13517Y215384D01*
X13517Y218416D01*
X14677Y221217D01*
X16821Y223361D01*
X19622Y224521D01*
X22653Y224521D01*
X25454Y223361D01*
X27598Y221217D01*
X28758Y218416D01*
X28758Y215384D01*
X27598Y212583D01*
X25454Y210439D01*
X22653Y209279D01*
X19622Y209279D01*
G37*
%LPD*%
%LPC*%
G36*
X172022Y209279D02*
X172022Y209279D01*
X169221Y210439D01*
X167077Y212583D01*
X165917Y215384D01*
X165917Y218416D01*
X167077Y221217D01*
X169221Y223361D01*
X172022Y224521D01*
X175053Y224521D01*
X177854Y223361D01*
X179998Y221217D01*
X181158Y218416D01*
X181158Y215384D01*
X179998Y212583D01*
X177854Y210439D01*
X175053Y209279D01*
X172022Y209279D01*
G37*
%LPD*%
%LPC*%
G36*
X19622Y310879D02*
X19622Y310879D01*
X16821Y312039D01*
X14677Y314183D01*
X13517Y316984D01*
X13517Y320016D01*
X14677Y322817D01*
X16821Y324961D01*
X19622Y326121D01*
X22653Y326121D01*
X25454Y324961D01*
X27598Y322817D01*
X28758Y320016D01*
X28758Y316984D01*
X27598Y314183D01*
X25454Y312039D01*
X22653Y310879D01*
X19622Y310879D01*
G37*
%LPD*%
%LPC*%
G36*
X172022Y310879D02*
X172022Y310879D01*
X169221Y312039D01*
X167077Y314183D01*
X165917Y316984D01*
X165917Y320016D01*
X167077Y322817D01*
X169221Y324961D01*
X172022Y326121D01*
X175053Y326121D01*
X177854Y324961D01*
X179998Y322817D01*
X181158Y320016D01*
X181158Y316984D01*
X179998Y314183D01*
X177854Y312039D01*
X175053Y310879D01*
X172022Y310879D01*
G37*
%LPD*%
%LPC*%
G36*
X172022Y183879D02*
X172022Y183879D01*
X169221Y185039D01*
X167077Y187183D01*
X165917Y189984D01*
X165917Y193016D01*
X167077Y195817D01*
X169221Y197961D01*
X172022Y199121D01*
X175053Y199121D01*
X177854Y197961D01*
X179998Y195817D01*
X181158Y193016D01*
X181158Y189984D01*
X179998Y187183D01*
X177854Y185039D01*
X175053Y183879D01*
X172022Y183879D01*
G37*
%LPD*%
%LPC*%
G36*
X19622Y361679D02*
X19622Y361679D01*
X16821Y362839D01*
X14677Y364983D01*
X13517Y367784D01*
X13517Y370816D01*
X14677Y373617D01*
X16821Y375761D01*
X19622Y376921D01*
X22653Y376921D01*
X25454Y375761D01*
X27598Y373617D01*
X28758Y370816D01*
X28758Y367784D01*
X27598Y364983D01*
X25454Y362839D01*
X22653Y361679D01*
X19622Y361679D01*
G37*
%LPD*%
%LPC*%
G36*
X172022Y234679D02*
X172022Y234679D01*
X169221Y235839D01*
X167077Y237983D01*
X165917Y240784D01*
X165917Y243816D01*
X167077Y246617D01*
X169221Y248761D01*
X172022Y249921D01*
X175053Y249921D01*
X177854Y248761D01*
X179998Y246617D01*
X181158Y243816D01*
X181158Y240784D01*
X179998Y237983D01*
X177854Y235839D01*
X175053Y234679D01*
X172022Y234679D01*
G37*
%LPD*%
%LPC*%
G36*
X19622Y82279D02*
X19622Y82279D01*
X16821Y83439D01*
X14677Y85583D01*
X13517Y88384D01*
X13517Y91416D01*
X14677Y94217D01*
X16821Y96361D01*
X19622Y97521D01*
X22653Y97521D01*
X25454Y96361D01*
X27598Y94217D01*
X28758Y91416D01*
X28758Y88384D01*
X27598Y85583D01*
X25454Y83439D01*
X22653Y82279D01*
X19622Y82279D01*
G37*
%LPD*%
%LPC*%
G36*
X172022Y82279D02*
X172022Y82279D01*
X169221Y83439D01*
X167077Y85583D01*
X165917Y88384D01*
X165917Y91416D01*
X167077Y94217D01*
X169221Y96361D01*
X172022Y97521D01*
X175053Y97521D01*
X177854Y96361D01*
X179998Y94217D01*
X181158Y91416D01*
X181158Y88384D01*
X179998Y85583D01*
X177854Y83439D01*
X175053Y82279D01*
X172022Y82279D01*
G37*
%LPD*%
%LPC*%
G36*
X172022Y158479D02*
X172022Y158479D01*
X169221Y159639D01*
X167077Y161783D01*
X165917Y164584D01*
X165917Y167616D01*
X167077Y170417D01*
X169221Y172561D01*
X172022Y173721D01*
X175053Y173721D01*
X177854Y172561D01*
X179998Y170417D01*
X181158Y167616D01*
X181158Y164584D01*
X179998Y161783D01*
X177854Y159639D01*
X175053Y158479D01*
X172022Y158479D01*
G37*
%LPD*%
%LPC*%
G36*
X172022Y361679D02*
X172022Y361679D01*
X169221Y362839D01*
X167077Y364983D01*
X165917Y367784D01*
X165917Y370816D01*
X167077Y373617D01*
X169221Y375761D01*
X172022Y376921D01*
X175053Y376921D01*
X177854Y375761D01*
X179998Y373617D01*
X181158Y370816D01*
X181158Y367784D01*
X179998Y364983D01*
X177854Y362839D01*
X175053Y361679D01*
X172022Y361679D01*
G37*
%LPD*%
%LPC*%
G36*
X19622Y234679D02*
X19622Y234679D01*
X16821Y235839D01*
X14677Y237983D01*
X13517Y240784D01*
X13517Y243816D01*
X14677Y246617D01*
X16821Y248761D01*
X19622Y249921D01*
X22653Y249921D01*
X25454Y248761D01*
X27598Y246617D01*
X28758Y243816D01*
X28758Y240784D01*
X27598Y237983D01*
X25454Y235839D01*
X22653Y234679D01*
X19622Y234679D01*
G37*
%LPD*%
%LPC*%
G36*
X19622Y56879D02*
X19622Y56879D01*
X16821Y58039D01*
X14677Y60183D01*
X13517Y62984D01*
X13517Y66016D01*
X14677Y68817D01*
X16821Y70961D01*
X19622Y72121D01*
X22653Y72121D01*
X25454Y70961D01*
X27598Y68817D01*
X28758Y66016D01*
X28758Y62984D01*
X27598Y60183D01*
X25454Y58039D01*
X22653Y56879D01*
X19622Y56879D01*
G37*
%LPD*%
%LPC*%
G36*
X172022Y56879D02*
X172022Y56879D01*
X169221Y58039D01*
X167077Y60183D01*
X165917Y62984D01*
X165917Y66016D01*
X167077Y68817D01*
X169221Y70961D01*
X172022Y72121D01*
X175053Y72121D01*
X177854Y70961D01*
X179998Y68817D01*
X181158Y66016D01*
X181158Y62984D01*
X179998Y60183D01*
X177854Y58039D01*
X175053Y56879D01*
X172022Y56879D01*
G37*
%LPD*%
%LPC*%
G36*
X19622Y31479D02*
X19622Y31479D01*
X16821Y32639D01*
X14677Y34783D01*
X13517Y37584D01*
X13517Y40616D01*
X14677Y43417D01*
X16821Y45561D01*
X19622Y46721D01*
X22653Y46721D01*
X25454Y45561D01*
X27598Y43417D01*
X28758Y40616D01*
X28758Y37584D01*
X27598Y34783D01*
X25454Y32639D01*
X22653Y31479D01*
X19622Y31479D01*
G37*
%LPD*%
%LPC*%
G36*
X172022Y31479D02*
X172022Y31479D01*
X169221Y32639D01*
X167077Y34783D01*
X165917Y37584D01*
X165917Y40616D01*
X167077Y43417D01*
X169221Y45561D01*
X172022Y46721D01*
X175053Y46721D01*
X177854Y45561D01*
X179998Y43417D01*
X181158Y40616D01*
X181158Y37584D01*
X179998Y34783D01*
X177854Y32639D01*
X175053Y31479D01*
X172022Y31479D01*
G37*
%LPD*%
%LPC*%
G36*
X195679Y337097D02*
X195679Y337097D01*
X193179Y338133D01*
X191265Y340046D01*
X190230Y342547D01*
X190230Y345253D01*
X191265Y347754D01*
X193179Y349667D01*
X195679Y350703D01*
X198386Y350703D01*
X200886Y349667D01*
X202800Y347754D01*
X203835Y345253D01*
X203835Y342547D01*
X202800Y340046D01*
X200886Y338133D01*
X198386Y337097D01*
X195679Y337097D01*
G37*
%LPD*%
%LPC*%
G36*
X43279Y311697D02*
X43279Y311697D01*
X40779Y312733D01*
X38865Y314646D01*
X37830Y317147D01*
X37830Y319853D01*
X38865Y322354D01*
X40779Y324267D01*
X43279Y325303D01*
X45986Y325303D01*
X48486Y324267D01*
X50400Y322354D01*
X51435Y319853D01*
X51435Y317147D01*
X50400Y314646D01*
X48486Y312733D01*
X45986Y311697D01*
X43279Y311697D01*
G37*
%LPD*%
%LPC*%
G36*
X43279Y286297D02*
X43279Y286297D01*
X40779Y287333D01*
X38865Y289246D01*
X37830Y291747D01*
X37830Y294453D01*
X38865Y296954D01*
X40779Y298867D01*
X43279Y299903D01*
X45986Y299903D01*
X48486Y298867D01*
X50400Y296954D01*
X51435Y294453D01*
X51435Y291747D01*
X50400Y289246D01*
X48486Y287333D01*
X45986Y286297D01*
X43279Y286297D01*
G37*
%LPD*%
%LPC*%
G36*
X43279Y260897D02*
X43279Y260897D01*
X40779Y261933D01*
X38865Y263846D01*
X37830Y266347D01*
X37830Y269053D01*
X38865Y271554D01*
X40779Y273467D01*
X43279Y274503D01*
X45986Y274503D01*
X48486Y273467D01*
X50400Y271554D01*
X51435Y269053D01*
X51435Y266347D01*
X50400Y263846D01*
X48486Y261933D01*
X45986Y260897D01*
X43279Y260897D01*
G37*
%LPD*%
%LPC*%
G36*
X43279Y235497D02*
X43279Y235497D01*
X40779Y236533D01*
X38865Y238446D01*
X37830Y240947D01*
X37830Y243653D01*
X38865Y246154D01*
X40779Y248067D01*
X43279Y249103D01*
X45986Y249103D01*
X48486Y248067D01*
X50400Y246154D01*
X51435Y243653D01*
X51435Y240947D01*
X50400Y238446D01*
X48486Y236533D01*
X45986Y235497D01*
X43279Y235497D01*
G37*
%LPD*%
%LPC*%
G36*
X195679Y6897D02*
X195679Y6897D01*
X193179Y7933D01*
X191265Y9846D01*
X190230Y12347D01*
X190230Y15053D01*
X191265Y17554D01*
X193179Y19467D01*
X195679Y20503D01*
X198386Y20503D01*
X200886Y19467D01*
X202800Y17554D01*
X203835Y15053D01*
X203835Y12347D01*
X202800Y9846D01*
X200886Y7933D01*
X198386Y6897D01*
X195679Y6897D01*
G37*
%LPD*%
%LPC*%
G36*
X195679Y133897D02*
X195679Y133897D01*
X193179Y134933D01*
X191265Y136846D01*
X190230Y139347D01*
X190230Y142053D01*
X191265Y144554D01*
X193179Y146467D01*
X195679Y147503D01*
X198386Y147503D01*
X200886Y146467D01*
X202800Y144554D01*
X203835Y142053D01*
X203835Y139347D01*
X202800Y136846D01*
X200886Y134933D01*
X198386Y133897D01*
X195679Y133897D01*
G37*
%LPD*%
%LPC*%
G36*
X195679Y108497D02*
X195679Y108497D01*
X193179Y109533D01*
X191265Y111446D01*
X190230Y113947D01*
X190230Y116653D01*
X191265Y119154D01*
X193179Y121067D01*
X195679Y122103D01*
X198386Y122103D01*
X200886Y121067D01*
X202800Y119154D01*
X203835Y116653D01*
X203835Y113947D01*
X202800Y111446D01*
X200886Y109533D01*
X198386Y108497D01*
X195679Y108497D01*
G37*
%LPD*%
%LPC*%
G36*
X43279Y464097D02*
X43279Y464097D01*
X40779Y465133D01*
X38865Y467046D01*
X37830Y469547D01*
X37830Y472253D01*
X38865Y474754D01*
X40779Y476667D01*
X43279Y477703D01*
X45986Y477703D01*
X48486Y476667D01*
X50400Y474754D01*
X51435Y472253D01*
X51435Y469547D01*
X50400Y467046D01*
X48486Y465133D01*
X45986Y464097D01*
X43279Y464097D01*
G37*
%LPD*%
%LPC*%
G36*
X195679Y464097D02*
X195679Y464097D01*
X193179Y465133D01*
X191265Y467046D01*
X190230Y469547D01*
X190230Y472253D01*
X191265Y474754D01*
X193179Y476667D01*
X195679Y477703D01*
X198386Y477703D01*
X200886Y476667D01*
X202800Y474754D01*
X203835Y472253D01*
X203835Y469547D01*
X202800Y467046D01*
X200886Y465133D01*
X198386Y464097D01*
X195679Y464097D01*
G37*
%LPD*%
%LPC*%
G36*
X43279Y438697D02*
X43279Y438697D01*
X40779Y439733D01*
X38865Y441646D01*
X37830Y444147D01*
X37830Y446853D01*
X38865Y449354D01*
X40779Y451267D01*
X43279Y452303D01*
X45986Y452303D01*
X48486Y451267D01*
X50400Y449354D01*
X51435Y446853D01*
X51435Y444147D01*
X50400Y441646D01*
X48486Y439733D01*
X45986Y438697D01*
X43279Y438697D01*
G37*
%LPD*%
%LPC*%
G36*
X195679Y438697D02*
X195679Y438697D01*
X193179Y439733D01*
X191265Y441646D01*
X190230Y444147D01*
X190230Y446853D01*
X191265Y449354D01*
X193179Y451267D01*
X195679Y452303D01*
X198386Y452303D01*
X200886Y451267D01*
X202800Y449354D01*
X203835Y446853D01*
X203835Y444147D01*
X202800Y441646D01*
X200886Y439733D01*
X198386Y438697D01*
X195679Y438697D01*
G37*
%LPD*%
%LPC*%
G36*
X195679Y413297D02*
X195679Y413297D01*
X193179Y414333D01*
X191265Y416246D01*
X190230Y418747D01*
X190230Y421453D01*
X191265Y423954D01*
X193179Y425867D01*
X195679Y426903D01*
X198386Y426903D01*
X200886Y425867D01*
X202800Y423954D01*
X203835Y421453D01*
X203835Y418747D01*
X202800Y416246D01*
X200886Y414333D01*
X198386Y413297D01*
X195679Y413297D01*
G37*
%LPD*%
%LPC*%
G36*
X195679Y83097D02*
X195679Y83097D01*
X193179Y84133D01*
X191265Y86046D01*
X190230Y88547D01*
X190230Y91253D01*
X191265Y93754D01*
X193179Y95667D01*
X195679Y96703D01*
X198386Y96703D01*
X200886Y95667D01*
X202800Y93754D01*
X203835Y91253D01*
X203835Y88547D01*
X202800Y86046D01*
X200886Y84133D01*
X198386Y83097D01*
X195679Y83097D01*
G37*
%LPD*%
%LPC*%
G36*
X43279Y413297D02*
X43279Y413297D01*
X40779Y414333D01*
X38865Y416246D01*
X37830Y418747D01*
X37830Y421453D01*
X38865Y423954D01*
X40779Y425867D01*
X43279Y426903D01*
X45986Y426903D01*
X48486Y425867D01*
X50400Y423954D01*
X51435Y421453D01*
X51435Y418747D01*
X50400Y416246D01*
X48486Y414333D01*
X45986Y413297D01*
X43279Y413297D01*
G37*
%LPD*%
%LPC*%
G36*
X195679Y387897D02*
X195679Y387897D01*
X193179Y388933D01*
X191265Y390846D01*
X190230Y393347D01*
X190230Y396053D01*
X191265Y398554D01*
X193179Y400467D01*
X195679Y401503D01*
X198386Y401503D01*
X200886Y400467D01*
X202800Y398554D01*
X203835Y396053D01*
X203835Y393347D01*
X202800Y390846D01*
X200886Y388933D01*
X198386Y387897D01*
X195679Y387897D01*
G37*
%LPD*%
%LPC*%
G36*
X43279Y387897D02*
X43279Y387897D01*
X40779Y388933D01*
X38865Y390846D01*
X37830Y393347D01*
X37830Y396053D01*
X38865Y398554D01*
X40779Y400467D01*
X43279Y401503D01*
X45986Y401503D01*
X48486Y400467D01*
X50400Y398554D01*
X51435Y396053D01*
X51435Y393347D01*
X50400Y390846D01*
X48486Y388933D01*
X45986Y387897D01*
X43279Y387897D01*
G37*
%LPD*%
%LPC*%
G36*
X43279Y362497D02*
X43279Y362497D01*
X40779Y363533D01*
X38865Y365446D01*
X37830Y367947D01*
X37830Y370653D01*
X38865Y373154D01*
X40779Y375067D01*
X43279Y376103D01*
X45986Y376103D01*
X48486Y375067D01*
X50400Y373154D01*
X51435Y370653D01*
X51435Y367947D01*
X50400Y365446D01*
X48486Y363533D01*
X45986Y362497D01*
X43279Y362497D01*
G37*
%LPD*%
%LPC*%
G36*
X43279Y57697D02*
X43279Y57697D01*
X40779Y58733D01*
X38865Y60646D01*
X37830Y63147D01*
X37830Y65853D01*
X38865Y68354D01*
X40779Y70267D01*
X43279Y71303D01*
X45986Y71303D01*
X48486Y70267D01*
X50400Y68354D01*
X51435Y65853D01*
X51435Y63147D01*
X50400Y60646D01*
X48486Y58733D01*
X45986Y57697D01*
X43279Y57697D01*
G37*
%LPD*%
%LPC*%
G36*
X195679Y57697D02*
X195679Y57697D01*
X193179Y58733D01*
X191265Y60646D01*
X190230Y63147D01*
X190230Y65853D01*
X191265Y68354D01*
X193179Y70267D01*
X195679Y71303D01*
X198386Y71303D01*
X200886Y70267D01*
X202800Y68354D01*
X203835Y65853D01*
X203835Y63147D01*
X202800Y60646D01*
X200886Y58733D01*
X198386Y57697D01*
X195679Y57697D01*
G37*
%LPD*%
%LPC*%
G36*
X195679Y362497D02*
X195679Y362497D01*
X193179Y363533D01*
X191265Y365446D01*
X190230Y367947D01*
X190230Y370653D01*
X191265Y373154D01*
X193179Y375067D01*
X195679Y376103D01*
X198386Y376103D01*
X200886Y375067D01*
X202800Y373154D01*
X203835Y370653D01*
X203835Y367947D01*
X202800Y365446D01*
X200886Y363533D01*
X198386Y362497D01*
X195679Y362497D01*
G37*
%LPD*%
%LPC*%
G36*
X43279Y337097D02*
X43279Y337097D01*
X40779Y338133D01*
X38865Y340046D01*
X37830Y342547D01*
X37830Y345253D01*
X38865Y347754D01*
X40779Y349667D01*
X43279Y350703D01*
X45986Y350703D01*
X48486Y349667D01*
X50400Y347754D01*
X51435Y345253D01*
X51435Y342547D01*
X50400Y340046D01*
X48486Y338133D01*
X45986Y337097D01*
X43279Y337097D01*
G37*
%LPD*%
%LPC*%
G36*
X195679Y32297D02*
X195679Y32297D01*
X193179Y33333D01*
X191265Y35246D01*
X190230Y37747D01*
X190230Y40453D01*
X191265Y42954D01*
X193179Y44867D01*
X195679Y45903D01*
X198386Y45903D01*
X200886Y44867D01*
X202800Y42954D01*
X203835Y40453D01*
X203835Y37747D01*
X202800Y35246D01*
X200886Y33333D01*
X198386Y32297D01*
X195679Y32297D01*
G37*
%LPD*%
%LPC*%
G36*
X43279Y32297D02*
X43279Y32297D01*
X40779Y33333D01*
X38865Y35246D01*
X37830Y37747D01*
X37830Y40453D01*
X38865Y42954D01*
X40779Y44867D01*
X43279Y45903D01*
X45986Y45903D01*
X48486Y44867D01*
X50400Y42954D01*
X51435Y40453D01*
X51435Y37747D01*
X50400Y35246D01*
X48486Y33333D01*
X45986Y32297D01*
X43279Y32297D01*
G37*
%LPD*%
%LPC*%
G36*
X64107Y439880D02*
X64107Y439880D01*
X61709Y440874D01*
X59874Y442709D01*
X58880Y445107D01*
X58880Y447703D01*
X59874Y450101D01*
X61709Y451936D01*
X64107Y452930D01*
X66703Y452930D01*
X69101Y451936D01*
X70936Y450101D01*
X71930Y447703D01*
X71930Y445107D01*
X70936Y442709D01*
X69101Y440874D01*
X66703Y439880D01*
X64107Y439880D01*
G37*
%LPD*%
%LPC*%
G36*
X222222Y32845D02*
X222222Y32845D01*
X219824Y33839D01*
X217989Y35674D01*
X216995Y38072D01*
X216995Y40668D01*
X217989Y43066D01*
X219824Y44901D01*
X222222Y45895D01*
X224818Y45895D01*
X227216Y44901D01*
X229051Y43066D01*
X230045Y40668D01*
X230045Y38072D01*
X229051Y35674D01*
X227216Y33839D01*
X224818Y32845D01*
X222222Y32845D01*
G37*
%LPD*%
%LPC*%
G36*
X227437Y420496D02*
X227437Y420496D01*
X227534Y420984D01*
X228185Y422556D01*
X229130Y423971D01*
X230333Y425174D01*
X231748Y426119D01*
X233320Y426770D01*
X234988Y427102D01*
X239904Y427102D01*
X239904Y420496D01*
X227437Y420496D01*
G37*
%LPD*%
%LPC*%
G36*
X234988Y409828D02*
X234988Y409828D01*
X233320Y410160D01*
X231748Y410811D01*
X230333Y411756D01*
X229130Y412959D01*
X228185Y414374D01*
X227534Y415946D01*
X227437Y416434D01*
X239904Y416434D01*
X239904Y409828D01*
X234988Y409828D01*
G37*
%LPD*%
%LPC*%
G36*
X234988Y287273D02*
X234988Y287273D01*
X233320Y287605D01*
X231748Y288256D01*
X230333Y289201D01*
X229130Y290404D01*
X228185Y291819D01*
X227534Y293391D01*
X227437Y293879D01*
X239904Y293879D01*
X239904Y287273D01*
X234988Y287273D01*
G37*
%LPD*%
%LPC*%
G36*
X85216Y133413D02*
X85216Y133413D01*
X85216Y137605D01*
X94060Y137605D01*
X94707Y137432D01*
X95286Y137098D01*
X95759Y136625D01*
X96094Y136045D01*
X96267Y135399D01*
X96267Y133413D01*
X85216Y133413D01*
G37*
%LPD*%
%LPC*%
G36*
X146684Y69913D02*
X146684Y69913D01*
X146684Y74105D01*
X155528Y74105D01*
X156175Y73932D01*
X156754Y73598D01*
X157227Y73125D01*
X157562Y72545D01*
X157735Y71899D01*
X157735Y69913D01*
X146684Y69913D01*
G37*
%LPD*%
%LPC*%
G36*
X85216Y57213D02*
X85216Y57213D01*
X85216Y61405D01*
X94060Y61405D01*
X94707Y61232D01*
X95286Y60898D01*
X95759Y60425D01*
X96094Y59845D01*
X96267Y59199D01*
X96267Y57213D01*
X85216Y57213D01*
G37*
%LPD*%
%LPC*%
G36*
X146684Y95313D02*
X146684Y95313D01*
X146684Y99505D01*
X155528Y99505D01*
X156175Y99332D01*
X156754Y98998D01*
X157227Y98525D01*
X157562Y97945D01*
X157735Y97299D01*
X157735Y95313D01*
X146684Y95313D01*
G37*
%LPD*%
%LPC*%
G36*
X70865Y133413D02*
X70865Y133413D01*
X70865Y135399D01*
X71038Y136045D01*
X71373Y136625D01*
X71846Y137098D01*
X72425Y137432D01*
X73072Y137605D01*
X81916Y137605D01*
X81916Y133413D01*
X70865Y133413D01*
G37*
%LPD*%
%LPC*%
G36*
X132333Y69913D02*
X132333Y69913D01*
X132333Y71899D01*
X132506Y72545D01*
X132841Y73125D01*
X133314Y73598D01*
X133893Y73932D01*
X134540Y74105D01*
X143384Y74105D01*
X143384Y69913D01*
X132333Y69913D01*
G37*
%LPD*%
%LPC*%
G36*
X70865Y57213D02*
X70865Y57213D01*
X70865Y59199D01*
X71038Y59845D01*
X71373Y60425D01*
X71846Y60898D01*
X72425Y61232D01*
X73072Y61405D01*
X81916Y61405D01*
X81916Y57213D01*
X70865Y57213D01*
G37*
%LPD*%
%LPC*%
G36*
X132333Y95313D02*
X132333Y95313D01*
X132333Y97299D01*
X132506Y97945D01*
X132841Y98525D01*
X133314Y98998D01*
X133893Y99332D01*
X134540Y99505D01*
X143384Y99505D01*
X143384Y95313D01*
X132333Y95313D01*
G37*
%LPD*%
%LPC*%
G36*
X85216Y125920D02*
X85216Y125920D01*
X85216Y130112D01*
X96267Y130112D01*
X96267Y128126D01*
X96094Y127480D01*
X95759Y126900D01*
X95286Y126427D01*
X94707Y126093D01*
X94060Y125920D01*
X85216Y125920D01*
G37*
%LPD*%
%LPC*%
G36*
X146684Y87820D02*
X146684Y87820D01*
X146684Y92012D01*
X157735Y92012D01*
X157735Y90026D01*
X157562Y89380D01*
X157227Y88800D01*
X156754Y88327D01*
X156175Y87993D01*
X155528Y87820D01*
X146684Y87820D01*
G37*
%LPD*%
%LPC*%
G36*
X146684Y62420D02*
X146684Y62420D01*
X146684Y66612D01*
X157735Y66612D01*
X157735Y64626D01*
X157562Y63980D01*
X157227Y63400D01*
X156754Y62927D01*
X156175Y62593D01*
X155528Y62420D01*
X146684Y62420D01*
G37*
%LPD*%
%LPC*%
G36*
X85216Y49720D02*
X85216Y49720D01*
X85216Y53912D01*
X96267Y53912D01*
X96267Y51926D01*
X96094Y51280D01*
X95759Y50700D01*
X95286Y50227D01*
X94707Y49893D01*
X94060Y49720D01*
X85216Y49720D01*
G37*
%LPD*%
%LPC*%
G36*
X73072Y125920D02*
X73072Y125920D01*
X72425Y126093D01*
X71846Y126427D01*
X71373Y126900D01*
X71038Y127480D01*
X70865Y128126D01*
X70865Y130112D01*
X81916Y130112D01*
X81916Y125920D01*
X73072Y125920D01*
G37*
%LPD*%
%LPC*%
G36*
X134540Y62420D02*
X134540Y62420D01*
X133893Y62593D01*
X133314Y62927D01*
X132841Y63400D01*
X132506Y63980D01*
X132333Y64626D01*
X132333Y66612D01*
X143384Y66612D01*
X143384Y62420D01*
X134540Y62420D01*
G37*
%LPD*%
%LPC*%
G36*
X73072Y49720D02*
X73072Y49720D01*
X72425Y49893D01*
X71846Y50227D01*
X71373Y50700D01*
X71038Y51280D01*
X70865Y51926D01*
X70865Y53912D01*
X81916Y53912D01*
X81916Y49720D01*
X73072Y49720D01*
G37*
%LPD*%
%LPC*%
G36*
X134540Y87820D02*
X134540Y87820D01*
X133893Y87993D01*
X133314Y88327D01*
X132841Y88800D01*
X132506Y89380D01*
X132333Y90026D01*
X132333Y92012D01*
X143384Y92012D01*
X143384Y87820D01*
X134540Y87820D01*
G37*
%LPD*%
%LPC*%
G36*
X129793Y153796D02*
X129793Y153796D01*
X129793Y161291D01*
X133557Y161291D01*
X134204Y161118D01*
X134783Y160783D01*
X135256Y160310D01*
X135591Y159731D01*
X135764Y159084D01*
X135764Y153796D01*
X129793Y153796D01*
G37*
%LPD*%
%LPC*%
G36*
X119760Y153796D02*
X119760Y153796D01*
X119760Y159084D01*
X119933Y159731D01*
X120268Y160310D01*
X120741Y160783D01*
X121320Y161118D01*
X121967Y161291D01*
X125731Y161291D01*
X125731Y153796D01*
X119760Y153796D01*
G37*
%LPD*%
%LPC*%
G36*
X129793Y142239D02*
X129793Y142239D01*
X129793Y149734D01*
X135764Y149734D01*
X135764Y144446D01*
X135591Y143799D01*
X135256Y143220D01*
X134783Y142747D01*
X134204Y142412D01*
X133557Y142239D01*
X129793Y142239D01*
G37*
%LPD*%
%LPC*%
G36*
X121967Y142239D02*
X121967Y142239D01*
X121320Y142412D01*
X120741Y142747D01*
X120268Y143220D01*
X119933Y143799D01*
X119760Y144446D01*
X119760Y149734D01*
X125731Y149734D01*
X125731Y142239D01*
X121967Y142239D01*
G37*
%LPD*%
%LPC*%
G36*
X23169Y15731D02*
X23169Y15731D01*
X23169Y22102D01*
X23657Y22005D01*
X25229Y21354D01*
X26643Y20409D01*
X27846Y19206D01*
X28791Y17791D01*
X29442Y16219D01*
X29539Y15731D01*
X23169Y15731D01*
G37*
%LPD*%
%LPC*%
G36*
X12736Y15731D02*
X12736Y15731D01*
X12833Y16219D01*
X13484Y17791D01*
X14429Y19206D01*
X15632Y20409D01*
X17046Y21354D01*
X18618Y22005D01*
X19106Y22102D01*
X19106Y15731D01*
X12736Y15731D01*
G37*
%LPD*%
%LPC*%
G36*
X46382Y15449D02*
X46382Y15449D01*
X46382Y21324D01*
X46913Y21218D01*
X48336Y20629D01*
X49617Y19773D01*
X50706Y18684D01*
X51561Y17403D01*
X52151Y15981D01*
X52256Y15449D01*
X46382Y15449D01*
G37*
%LPD*%
%LPC*%
G36*
X37009Y15449D02*
X37009Y15449D01*
X37114Y15981D01*
X37704Y17403D01*
X38559Y18684D01*
X39648Y19773D01*
X40929Y20629D01*
X42352Y21218D01*
X42883Y21324D01*
X42883Y15449D01*
X37009Y15449D01*
G37*
%LPD*%
%LPC*%
G36*
X127761Y151764D02*
X127761Y151764D01*
X127761Y151766D01*
X127763Y151766D01*
X127763Y151764D01*
X127761Y151764D01*
G37*
%LPD*%
D10*
X21138Y496300D03*
D11*
X21138Y470900D03*
X21138Y445500D03*
X21138Y420100D03*
X21138Y394700D03*
X21138Y369300D03*
X21138Y343900D03*
X21138Y318500D03*
X21138Y293100D03*
X21138Y267700D03*
X21138Y242300D03*
X21138Y216900D03*
X21138Y191500D03*
X21138Y166100D03*
X21138Y140700D03*
X21138Y115300D03*
X21138Y89900D03*
X21138Y64500D03*
X21138Y39100D03*
X21138Y13700D03*
X173538Y13700D03*
X173538Y39100D03*
X173538Y64500D03*
X173538Y89900D03*
X173538Y115300D03*
X173538Y140700D03*
X173538Y166100D03*
X173538Y191500D03*
X173538Y216900D03*
X173538Y242300D03*
X173538Y267700D03*
X173538Y293100D03*
X173538Y318500D03*
X173538Y343900D03*
X173538Y369300D03*
X173538Y394700D03*
X173538Y420100D03*
X173538Y445500D03*
X173538Y470900D03*
X173538Y496300D03*
D12*
X44633Y496300D03*
D13*
X44633Y470900D03*
X44633Y445500D03*
X44633Y420100D03*
X44633Y394700D03*
X44633Y369300D03*
X44633Y343900D03*
X44633Y318500D03*
X44633Y293100D03*
X44633Y267700D03*
X44633Y242300D03*
X44633Y216900D03*
X44633Y191500D03*
X44633Y166100D03*
X44633Y140700D03*
X44633Y115300D03*
X44633Y89900D03*
X44633Y64500D03*
X44633Y39100D03*
X44633Y13700D03*
X197033Y13700D03*
X197033Y39100D03*
X197033Y64500D03*
X197033Y89900D03*
X197033Y115300D03*
X197033Y140700D03*
X197033Y166100D03*
X197033Y191500D03*
X197033Y216900D03*
X197033Y242300D03*
X197033Y267700D03*
X197033Y293100D03*
X197033Y318500D03*
X197033Y343900D03*
X197033Y369300D03*
X197033Y394700D03*
X197033Y420100D03*
X197033Y445500D03*
X197033Y470900D03*
X197033Y496300D03*
D14*
X91075Y301681D03*
X91075Y282885D03*
X116475Y301681D03*
X116475Y282885D03*
D15*
X83566Y131763D03*
X145034Y131763D03*
X83566Y119063D03*
X83566Y106363D03*
X145034Y119063D03*
X145034Y106363D03*
X83566Y93663D03*
X145034Y93663D03*
X83566Y80963D03*
X83566Y68263D03*
X145034Y80963D03*
X145034Y68263D03*
X83566Y55563D03*
X145034Y55563D03*
D16*
X16173Y555288D02*
X16173Y565118D01*
X16173Y555288D02*
X18631Y552831D01*
X18631Y562661D02*
X13716Y562661D01*
X26464Y552831D02*
X31379Y552831D01*
X33836Y555288D01*
X33836Y560203D01*
X31379Y562661D01*
X26464Y562661D01*
X24007Y560203D01*
X24007Y555288D01*
X26464Y552831D01*
X39443Y547916D02*
X39443Y562661D01*
X46815Y562661D01*
X49272Y560203D01*
X49272Y555288D01*
X46815Y552831D01*
X39443Y552831D01*
D17*
X314671Y552704D02*
X314671Y566178D01*
X314671Y552704D02*
X307935Y552704D01*
X305689Y554950D01*
X305689Y559441D01*
X307935Y561686D01*
X314671Y561686D01*
X319722Y561686D02*
X319722Y552704D01*
X319722Y557195D02*
X324213Y561686D01*
X326459Y561686D01*
X331416Y561686D02*
X333661Y561686D01*
X333661Y552704D01*
X331416Y552704D02*
X335907Y552704D01*
X333661Y566178D02*
X333661Y568423D01*
X340771Y566178D02*
X343017Y566178D01*
X343017Y552704D01*
X345262Y552704D02*
X340771Y552704D01*
X350126Y566178D02*
X352372Y566178D01*
X352372Y552704D01*
X354617Y552704D02*
X350126Y552704D01*
X375760Y554950D02*
X375760Y563932D01*
X375760Y554950D02*
X378005Y552704D01*
X378005Y561686D02*
X373514Y561686D01*
X385115Y561686D02*
X389606Y561686D01*
X391852Y559441D01*
X391852Y552704D01*
X385115Y552704D01*
X382869Y554950D01*
X385115Y557195D01*
X391852Y557195D01*
X396902Y552704D02*
X396902Y566178D01*
X396902Y552704D02*
X403639Y552704D01*
X405884Y554950D01*
X405884Y559441D01*
X403639Y561686D01*
X396902Y561686D01*
X410935Y566178D02*
X413180Y566178D01*
X413180Y552704D01*
X410935Y552704D02*
X415426Y552704D01*
X422536Y552704D02*
X427027Y552704D01*
X422536Y552704D02*
X420290Y554950D01*
X420290Y559441D01*
X422536Y561686D01*
X427027Y561686D01*
X429272Y559441D01*
X429272Y557195D01*
X420290Y557195D01*
D18*
X366713Y558165D03*
D19*
X146558Y151765D03*
X127762Y151765D03*
D16*
X106896Y20206D02*
X106896Y5461D01*
X101981Y20206D02*
X111811Y20206D01*
X119874Y20206D02*
X124789Y20206D01*
X119874Y20206D02*
X117417Y17748D01*
X117417Y7918D01*
X119874Y5461D01*
X124789Y5461D01*
X127247Y7918D01*
X127247Y17748D01*
X124789Y20206D01*
X132853Y20206D02*
X132853Y5461D01*
X132853Y20206D02*
X140225Y20206D01*
X142683Y17748D01*
X142683Y12833D01*
X140225Y10376D01*
X132853Y10376D01*
D20*
X223520Y39370D03*
X65405Y446405D03*
D21*
X125730Y472567D02*
X125730Y486283D01*
X100330Y486283D02*
X100330Y472567D01*
X74930Y472567D02*
X74930Y486283D01*
X89535Y259588D02*
X89535Y245872D01*
X114935Y245872D02*
X114935Y259588D01*
X115570Y217678D02*
X115570Y203962D01*
X90170Y203962D02*
X90170Y217678D01*
D22*
X235839Y346710D02*
X248031Y346710D01*
X248031Y295910D02*
X235839Y295910D01*
X235839Y321310D02*
X248031Y321310D01*
X248031Y469265D02*
X235839Y469265D01*
X235839Y418465D02*
X248031Y418465D01*
X248031Y443865D02*
X235839Y443865D01*
X235204Y231140D02*
X247396Y231140D01*
X247396Y180340D02*
X235204Y180340D01*
X235204Y205740D02*
X247396Y205740D01*
D23*
X116475Y282885D02*
X91075Y282885D01*
D24*
X115570Y210820D02*
X115570Y196215D01*
X60123Y140768D01*
X44701Y140768D01*
D25*
X44633Y140700D01*
D24*
X101600Y234950D02*
X101600Y282349D01*
X101600Y234950D02*
X114300Y222250D01*
X114300Y212725D01*
X101600Y282349D02*
X91075Y282885D01*
D25*
X114300Y212725D02*
X115570Y210820D01*
D24*
X83566Y106363D02*
X53658Y106363D01*
X44450Y115570D01*
D26*
X44633Y115300D01*
D27*
X138113Y131763D02*
X145034Y131763D01*
X145034Y119063D01*
D24*
X145034Y131763D02*
X145034Y150241D01*
X146558Y151765D01*
X146558Y474853D01*
X168005Y496300D02*
X173538Y496300D01*
X168005Y496300D02*
X146558Y474853D01*
X141986Y479425D02*
X125730Y479425D01*
X141986Y479425D02*
X146558Y474853D01*
X70215Y13700D02*
X44633Y13700D01*
X83566Y27051D02*
X83566Y55563D01*
X83566Y27051D02*
X70215Y13700D01*
X132398Y68263D02*
X145034Y68263D01*
X132398Y68263D02*
X128905Y71755D01*
X128905Y90805D01*
X131763Y93663D02*
X145034Y93663D01*
X131763Y93663D02*
X128905Y90805D01*
X112713Y55563D02*
X83566Y55563D01*
X112713Y55563D02*
X128905Y71755D01*
X127762Y151765D02*
X127762Y166243D01*
X127635Y166370D01*
X127762Y166243D02*
X136525Y175006D01*
X136525Y321945D02*
X132715Y325755D01*
D28*
X132715Y325755D03*
D24*
X136525Y321945D02*
X136525Y175006D01*
X127762Y151765D02*
X127762Y97663D01*
X131763Y93663D01*
X107760Y131763D02*
X83566Y131763D01*
X107760Y131763D02*
X127762Y151765D01*
X83566Y80963D02*
X53658Y80963D01*
X44450Y90170D01*
D26*
X44633Y89900D01*
D29*
X137160Y376428D03*
D24*
X95250Y336550D02*
X95250Y306164D01*
X95250Y336550D02*
X136525Y377825D01*
D25*
X95250Y306164D02*
X91075Y301681D01*
X137160Y376428D02*
X136525Y377825D01*
D30*
X116475Y301681D02*
X110435Y301681D01*
D24*
X202692Y281940D02*
X241964Y321212D01*
D25*
X128016Y273217D02*
X128016Y240792D01*
X241964Y321212D02*
X241935Y321310D01*
D29*
X128016Y240792D03*
X202692Y281940D03*
D24*
X128270Y294005D02*
X120675Y301600D01*
X128270Y294005D02*
X128270Y240852D01*
D25*
X120675Y301600D02*
X116475Y301681D01*
X128270Y240852D02*
X128016Y240792D01*
X82296Y94488D02*
X83566Y93663D01*
X83884Y93345D01*
D24*
X94615Y93345D01*
X104775Y103505D01*
X104775Y123190D01*
D29*
X104775Y123190D03*
D24*
X97536Y68580D02*
X83820Y68580D01*
X97536Y68580D02*
X118872Y89916D01*
X118872Y103632D01*
X209804Y161036D02*
X209804Y245872D01*
X209804Y161036D02*
X207264Y158496D01*
X209804Y245872D02*
X199644Y256032D01*
X192024Y256032D01*
X185928Y262128D01*
X185928Y298704D01*
X193548Y306324D01*
X202692Y306324D01*
X242316Y345948D01*
D25*
X83820Y68580D02*
X83566Y68263D01*
X242316Y345948D02*
X241935Y346710D01*
D29*
X118872Y103632D03*
X207264Y158496D03*
D24*
X242316Y205740D02*
X242316Y230124D01*
X241300Y231140D01*
D25*
X241300Y205740D02*
X242316Y205740D01*
D24*
X230505Y203200D02*
X219075Y191770D01*
X230505Y203200D02*
X241300Y203200D01*
D25*
X241300Y205740D01*
D29*
X219075Y191770D03*
D24*
X100330Y461645D02*
X100330Y479425D01*
X100330Y461645D02*
X60325Y421640D01*
X60325Y217170D02*
X45720Y202565D01*
X32203Y202565D01*
X21138Y191500D01*
X60325Y217170D02*
X60325Y421640D01*
X31750Y152400D02*
X22225Y142875D01*
X31750Y152400D02*
X47625Y152400D01*
X92075Y196850D01*
X92075Y209550D01*
X22225Y142875D02*
X21138Y140700D01*
X90170Y210820D02*
X92075Y209550D01*
M02*
