G04 EAGLE Gerber RS-274X export*
G75*
%MOMM*%
%FSLAX34Y34*%
%LPD*%
%IN*%
%IPPOS*%
%AMOC8*
5,1,8,0,0,1.08239X$1,22.5*%
G01*
%ADD10C,0.254000*%


D10*
X0Y15000D02*
X57Y13693D01*
X228Y12395D01*
X511Y11118D01*
X905Y9870D01*
X1405Y8661D01*
X2010Y7500D01*
X2713Y6396D01*
X3509Y5358D01*
X4393Y4393D01*
X5358Y3509D01*
X6396Y2713D01*
X7500Y2010D01*
X8661Y1405D01*
X9870Y905D01*
X11118Y511D01*
X12395Y228D01*
X13693Y57D01*
X15000Y0D01*
X244388Y0D01*
X245695Y57D01*
X246992Y228D01*
X248270Y511D01*
X249518Y905D01*
X250727Y1405D01*
X251888Y2010D01*
X252991Y2713D01*
X254029Y3509D01*
X254994Y4393D01*
X255878Y5358D01*
X256675Y6396D01*
X257378Y7500D01*
X257982Y8661D01*
X258483Y9870D01*
X258876Y11118D01*
X259160Y12395D01*
X259330Y13693D01*
X259388Y15000D01*
X259388Y492500D01*
X259330Y493807D01*
X259160Y495105D01*
X258876Y496382D01*
X258483Y497630D01*
X257982Y498839D01*
X257378Y500000D01*
X256675Y501104D01*
X255878Y502142D01*
X254994Y503107D01*
X254029Y503991D01*
X252991Y504787D01*
X251888Y505490D01*
X250727Y506095D01*
X249518Y506595D01*
X248270Y506989D01*
X246992Y507272D01*
X245695Y507443D01*
X244388Y507500D01*
X15000Y507500D01*
X13693Y507443D01*
X12395Y507272D01*
X11118Y506989D01*
X9870Y506595D01*
X8661Y506095D01*
X7500Y505490D01*
X6396Y504787D01*
X5358Y503991D01*
X4393Y503107D01*
X3509Y502142D01*
X2713Y501104D01*
X2010Y500000D01*
X1405Y498839D01*
X905Y497630D01*
X511Y496382D01*
X228Y495105D01*
X57Y493807D01*
X0Y492500D01*
X0Y15000D01*
M02*
