G04 EAGLE Gerber RS-274X export*
G75*
%MOMM*%
%FSLAX34Y34*%
%LPD*%
%INSilkscreen Bottom*%
%IPPOS*%
%AMOC8*
5,1,8,0,0,1.08239X$1,22.5*%
G01*
%ADD10C,0.101600*%
%ADD11C,0.203200*%
%ADD12C,0.127000*%
%ADD13C,0.177800*%


D10*
X98457Y413260D02*
X98457Y410930D01*
X99622Y409766D01*
X101952Y409766D01*
X103117Y410930D01*
X103117Y413260D01*
X101952Y414425D01*
X100787Y414425D01*
X100787Y409766D01*
X105447Y417132D02*
X105447Y421792D01*
X105447Y417132D02*
X101952Y417132D01*
X103117Y419462D01*
X103117Y420627D01*
X101952Y421792D01*
X99622Y421792D01*
X98457Y420627D01*
X98457Y418297D01*
X99622Y417132D01*
X98457Y425663D02*
X104282Y425663D01*
X105447Y426828D01*
X101952Y426828D02*
X101952Y424498D01*
X103117Y429409D02*
X98457Y429409D01*
X100787Y429409D02*
X103117Y431739D01*
X103117Y432904D01*
X98457Y436712D02*
X98457Y439042D01*
X99622Y440207D01*
X101952Y440207D01*
X103117Y439042D01*
X103117Y436712D01*
X101952Y435547D01*
X99622Y435547D01*
X98457Y436712D01*
X96127Y445244D02*
X96127Y446409D01*
X97292Y447574D01*
X103117Y447574D01*
X103117Y444079D01*
X101952Y442914D01*
X99622Y442914D01*
X98457Y444079D01*
X98457Y447574D01*
D11*
X152781Y-160252D02*
X163458Y-160252D01*
X163458Y-154913D01*
X161679Y-153134D01*
X158120Y-153134D01*
X156340Y-154913D01*
X156340Y-160252D01*
X163458Y-148558D02*
X163458Y-146778D01*
X152781Y-146778D01*
X152781Y-144999D02*
X152781Y-148558D01*
X159899Y-138982D02*
X159899Y-135423D01*
X158120Y-133644D01*
X152781Y-133644D01*
X152781Y-138982D01*
X154561Y-140762D01*
X156340Y-138982D01*
X156340Y-133644D01*
X159899Y-127288D02*
X159899Y-121950D01*
X159899Y-127288D02*
X158120Y-129068D01*
X154561Y-129068D01*
X152781Y-127288D01*
X152781Y-121950D01*
X152781Y-115594D02*
X152781Y-112035D01*
X152781Y-115594D02*
X154561Y-117374D01*
X158120Y-117374D01*
X159899Y-115594D01*
X159899Y-112035D01*
X158120Y-110256D01*
X156340Y-110256D01*
X156340Y-117374D01*
X154561Y-92206D02*
X161679Y-92206D01*
X154561Y-92206D02*
X152781Y-90427D01*
X159899Y-90427D02*
X159899Y-93986D01*
X163458Y-86190D02*
X152781Y-86190D01*
X158120Y-86190D02*
X159899Y-84410D01*
X159899Y-80851D01*
X158120Y-79072D01*
X152781Y-79072D01*
X152781Y-72716D02*
X152781Y-69157D01*
X152781Y-72716D02*
X154561Y-74496D01*
X158120Y-74496D01*
X159899Y-72716D01*
X159899Y-69157D01*
X158120Y-67378D01*
X156340Y-67378D01*
X156340Y-74496D01*
X159899Y-51108D02*
X149222Y-51108D01*
X159899Y-51108D02*
X159899Y-45769D01*
X158120Y-43990D01*
X154561Y-43990D01*
X152781Y-45769D01*
X152781Y-51108D01*
X159899Y-39414D02*
X159899Y-37635D01*
X152781Y-37635D01*
X152781Y-39414D02*
X152781Y-35855D01*
X163458Y-37635D02*
X165238Y-37635D01*
X159899Y-31618D02*
X152781Y-31618D01*
X159899Y-31618D02*
X159899Y-26280D01*
X158120Y-24500D01*
X152781Y-24500D01*
X152781Y-8230D02*
X152781Y-2892D01*
X154561Y-1112D01*
X156340Y-2892D01*
X156340Y-6451D01*
X158120Y-8230D01*
X159899Y-6451D01*
X159899Y-1112D01*
X161679Y5243D02*
X154561Y5243D01*
X152781Y7023D01*
X159899Y7023D02*
X159899Y3464D01*
X159899Y11260D02*
X152781Y11260D01*
X156340Y11260D02*
X159899Y14819D01*
X159899Y16598D01*
X159899Y21005D02*
X159899Y22784D01*
X152781Y22784D01*
X152781Y21005D02*
X152781Y24564D01*
X163458Y22784D02*
X165238Y22784D01*
X159899Y28801D02*
X149222Y28801D01*
X159899Y28801D02*
X159899Y34139D01*
X158120Y35919D01*
X154561Y35919D01*
X152781Y34139D01*
X152781Y28801D01*
X152781Y40495D02*
X152781Y45833D01*
X154561Y47613D01*
X156340Y45833D01*
X156340Y42274D01*
X158120Y40495D01*
X159899Y42274D01*
X159899Y47613D01*
X152781Y65662D02*
X152781Y69221D01*
X154561Y71001D01*
X158120Y71001D01*
X159899Y69221D01*
X159899Y65662D01*
X158120Y63883D01*
X154561Y63883D01*
X152781Y65662D01*
X152781Y75577D02*
X159899Y75577D01*
X159899Y80915D01*
X158120Y82695D01*
X152781Y82695D01*
X154561Y100744D02*
X161679Y100744D01*
X154561Y100744D02*
X152781Y102524D01*
X159899Y102524D02*
X159899Y98965D01*
X163458Y106761D02*
X152781Y106761D01*
X158120Y106761D02*
X159899Y108540D01*
X159899Y112099D01*
X158120Y113879D01*
X152781Y113879D01*
X152781Y120234D02*
X152781Y123793D01*
X152781Y120234D02*
X154561Y118454D01*
X158120Y118454D01*
X159899Y120234D01*
X159899Y123793D01*
X158120Y125573D01*
X156340Y125573D01*
X156340Y118454D01*
X152781Y141842D02*
X163458Y141842D01*
X152781Y141842D02*
X152781Y147181D01*
X154561Y148960D01*
X158120Y148960D01*
X159899Y147181D01*
X159899Y141842D01*
X152781Y155316D02*
X152781Y158875D01*
X154561Y160654D01*
X158120Y160654D01*
X159899Y158875D01*
X159899Y155316D01*
X158120Y153536D01*
X154561Y153536D01*
X152781Y155316D01*
X154561Y167010D02*
X161679Y167010D01*
X154561Y167010D02*
X152781Y168789D01*
X159899Y168789D02*
X159899Y165230D01*
X161679Y174806D02*
X154561Y174806D01*
X152781Y176585D01*
X159899Y176585D02*
X159899Y173026D01*
X152781Y182602D02*
X152781Y186161D01*
X154561Y187940D01*
X158120Y187940D01*
X159899Y186161D01*
X159899Y182602D01*
X158120Y180822D01*
X154561Y180822D01*
X152781Y182602D01*
X152781Y192516D02*
X159899Y192516D01*
X159899Y197855D01*
X158120Y199634D01*
X152781Y199634D01*
X152781Y215904D02*
X152781Y221243D01*
X154561Y223022D01*
X156340Y221243D01*
X156340Y217684D01*
X158120Y215904D01*
X159899Y217684D01*
X159899Y223022D01*
X159899Y227598D02*
X159899Y229378D01*
X152781Y229378D01*
X152781Y231157D02*
X152781Y227598D01*
X163458Y229378D02*
X165238Y229378D01*
X163458Y242512D02*
X152781Y242512D01*
X152781Y237174D01*
X154561Y235394D01*
X158120Y235394D01*
X159899Y237174D01*
X159899Y242512D01*
X152781Y248868D02*
X152781Y252427D01*
X152781Y248868D02*
X154561Y247088D01*
X158120Y247088D01*
X159899Y248868D01*
X159899Y252427D01*
X158120Y254206D01*
X156340Y254206D01*
X156340Y247088D01*
X156340Y270476D02*
X152781Y274035D01*
X156340Y270476D02*
X159899Y270476D01*
X163458Y274035D01*
X152781Y278272D02*
X152781Y283611D01*
X154561Y285390D01*
X156340Y283611D01*
X156340Y280052D01*
X158120Y278272D01*
X159899Y280052D01*
X159899Y285390D01*
X152781Y291745D02*
X152781Y295305D01*
X154561Y297084D01*
X158120Y297084D01*
X159899Y295305D01*
X159899Y291745D01*
X158120Y289966D01*
X154561Y289966D01*
X152781Y291745D01*
X163458Y301660D02*
X163458Y303439D01*
X152781Y303439D01*
X152781Y301660D02*
X152781Y305219D01*
X152781Y316574D02*
X163458Y316574D01*
X152781Y316574D02*
X152781Y311235D01*
X154561Y309456D01*
X158120Y309456D01*
X159899Y311235D01*
X159899Y316574D01*
X152781Y322929D02*
X152781Y326488D01*
X152781Y322929D02*
X154561Y321150D01*
X158120Y321150D01*
X159899Y322929D01*
X159899Y326488D01*
X158120Y328268D01*
X156340Y328268D01*
X156340Y321150D01*
X152781Y332844D02*
X159899Y332844D01*
X156340Y332844D02*
X159899Y336403D01*
X159899Y338182D01*
X161679Y356062D02*
X152781Y356062D01*
X161679Y356062D02*
X163458Y357842D01*
X158120Y357842D02*
X158120Y354283D01*
X159899Y362079D02*
X152781Y362079D01*
X156340Y362079D02*
X159899Y365638D01*
X159899Y367417D01*
X152781Y373603D02*
X152781Y377162D01*
X154561Y378942D01*
X158120Y378942D01*
X159899Y377162D01*
X159899Y373603D01*
X158120Y371824D01*
X154561Y371824D01*
X152781Y373603D01*
X152781Y383518D02*
X159899Y383518D01*
X159899Y385297D01*
X158120Y387077D01*
X152781Y387077D01*
X158120Y387077D02*
X159899Y388856D01*
X158120Y390636D01*
X152781Y390636D01*
X154561Y408685D02*
X161679Y408685D01*
X154561Y408685D02*
X152781Y410465D01*
X159899Y410465D02*
X159899Y406906D01*
X152781Y416481D02*
X152781Y420040D01*
X154561Y421820D01*
X158120Y421820D01*
X159899Y420040D01*
X159899Y416481D01*
X158120Y414702D01*
X154561Y414702D01*
X152781Y416481D01*
X149222Y426396D02*
X159899Y426396D01*
X159899Y431734D01*
X158120Y433514D01*
X154561Y433514D01*
X152781Y431734D01*
X152781Y426396D01*
X152781Y438090D02*
X156340Y441649D01*
X159899Y441649D01*
X163458Y438090D01*
X144408Y-160252D02*
X133731Y-160252D01*
X133731Y-154913D01*
X135511Y-153134D01*
X139070Y-153134D01*
X140849Y-154913D01*
X140849Y-160252D01*
X133731Y-146778D02*
X133731Y-143219D01*
X133731Y-146778D02*
X135511Y-148558D01*
X139070Y-148558D01*
X140849Y-146778D01*
X140849Y-143219D01*
X139070Y-141440D01*
X137290Y-141440D01*
X137290Y-148558D01*
X133731Y-135084D02*
X142629Y-135084D01*
X144408Y-133305D01*
X139070Y-133305D02*
X139070Y-136864D01*
X133731Y-127288D02*
X133731Y-123729D01*
X135511Y-121950D01*
X139070Y-121950D01*
X140849Y-123729D01*
X140849Y-127288D01*
X139070Y-129068D01*
X135511Y-129068D01*
X133731Y-127288D01*
X133731Y-117374D02*
X140849Y-117374D01*
X137290Y-117374D02*
X140849Y-113815D01*
X140849Y-112035D01*
X133731Y-105849D02*
X133731Y-102290D01*
X133731Y-105849D02*
X135511Y-107629D01*
X139070Y-107629D01*
X140849Y-105849D01*
X140849Y-102290D01*
X139070Y-100511D01*
X137290Y-100511D01*
X137290Y-107629D01*
X133731Y-84241D02*
X133731Y-78902D01*
X135511Y-77123D01*
X137290Y-78902D01*
X137290Y-82461D01*
X139070Y-84241D01*
X140849Y-82461D01*
X140849Y-77123D01*
X133731Y-70767D02*
X133731Y-67208D01*
X135511Y-65429D01*
X139070Y-65429D01*
X140849Y-67208D01*
X140849Y-70767D01*
X139070Y-72547D01*
X135511Y-72547D01*
X133731Y-70767D01*
X144408Y-60853D02*
X144408Y-59074D01*
X133731Y-59074D01*
X133731Y-60853D02*
X133731Y-57294D01*
X133731Y-45939D02*
X144408Y-45939D01*
X133731Y-45939D02*
X133731Y-51278D01*
X135511Y-53057D01*
X139070Y-53057D01*
X140849Y-51278D01*
X140849Y-45939D01*
X133731Y-39584D02*
X133731Y-36025D01*
X133731Y-39584D02*
X135511Y-41363D01*
X139070Y-41363D01*
X140849Y-39584D01*
X140849Y-36025D01*
X139070Y-34245D01*
X137290Y-34245D01*
X137290Y-41363D01*
X133731Y-29669D02*
X140849Y-29669D01*
X137290Y-29669D02*
X140849Y-26110D01*
X140849Y-24331D01*
X140849Y-19924D02*
X140849Y-18145D01*
X133731Y-18145D01*
X133731Y-19924D02*
X133731Y-16365D01*
X144408Y-18145D02*
X146188Y-18145D01*
X140849Y-12128D02*
X133731Y-12128D01*
X140849Y-12128D02*
X140849Y-6790D01*
X139070Y-5010D01*
X133731Y-5010D01*
X130172Y3125D02*
X130172Y4904D01*
X131952Y6684D01*
X140849Y6684D01*
X140849Y1345D01*
X139070Y-434D01*
X135511Y-434D01*
X133731Y1345D01*
X133731Y6684D01*
X135511Y24733D02*
X142629Y24733D01*
X135511Y24733D02*
X133731Y26513D01*
X140849Y26513D02*
X140849Y22954D01*
X144408Y30750D02*
X133731Y30750D01*
X139070Y30750D02*
X140849Y32529D01*
X140849Y36088D01*
X139070Y37868D01*
X133731Y37868D01*
X133731Y44223D02*
X133731Y47782D01*
X133731Y44223D02*
X135511Y42444D01*
X139070Y42444D01*
X140849Y44223D01*
X140849Y47782D01*
X139070Y49562D01*
X137290Y49562D01*
X137290Y42444D01*
X133731Y65832D02*
X144408Y65832D01*
X133731Y65832D02*
X133731Y71170D01*
X135511Y72950D01*
X142629Y72950D01*
X144408Y71170D01*
X144408Y65832D01*
X133731Y77526D02*
X133731Y81085D01*
X133731Y79305D02*
X144408Y79305D01*
X144408Y77526D02*
X144408Y81085D01*
X144408Y85322D02*
X133731Y85322D01*
X144408Y85322D02*
X144408Y90660D01*
X142629Y92440D01*
X139070Y92440D01*
X137290Y90660D01*
X137290Y85322D01*
X133731Y102354D02*
X144408Y102354D01*
X139070Y97016D01*
X139070Y104134D01*
X135511Y108710D02*
X142629Y108710D01*
X144408Y110489D01*
X144408Y114048D01*
X142629Y115828D01*
X135511Y115828D01*
X133731Y114048D01*
X133731Y110489D01*
X135511Y108710D01*
X142629Y115828D01*
X133731Y132097D02*
X133731Y137436D01*
X135511Y139216D01*
X137290Y137436D01*
X137290Y133877D01*
X139070Y132097D01*
X140849Y133877D01*
X140849Y139216D01*
X133731Y145571D02*
X133731Y149130D01*
X135511Y150909D01*
X139070Y150909D01*
X140849Y149130D01*
X140849Y145571D01*
X139070Y143791D01*
X135511Y143791D01*
X133731Y145571D01*
X140849Y157265D02*
X140849Y162603D01*
X140849Y157265D02*
X139070Y155485D01*
X135511Y155485D01*
X133731Y157265D01*
X133731Y162603D01*
X133731Y167179D02*
X144408Y167179D01*
X137290Y167179D02*
X133731Y172518D01*
X137290Y167179D02*
X140849Y172518D01*
X133731Y178704D02*
X133731Y182263D01*
X133731Y178704D02*
X135511Y176924D01*
X139070Y176924D01*
X140849Y178704D01*
X140849Y182263D01*
X139070Y184042D01*
X137290Y184042D01*
X137290Y176924D01*
X135511Y190398D02*
X142629Y190398D01*
X135511Y190398D02*
X133731Y192177D01*
X140849Y192177D02*
X140849Y188618D01*
X135511Y196414D02*
X133731Y196414D01*
X135511Y196414D02*
X135511Y198194D01*
X133731Y198194D01*
X133731Y196414D01*
D10*
X75953Y250063D02*
X67818Y250063D01*
X71885Y250063D02*
X73241Y251419D01*
X73241Y254130D01*
X71885Y255486D01*
X67818Y255486D01*
X69174Y259838D02*
X74597Y259838D01*
X69174Y259838D02*
X67818Y261194D01*
X73241Y261194D02*
X73241Y258483D01*
X74597Y265452D02*
X69174Y265452D01*
X67818Y266807D01*
X73241Y266807D02*
X73241Y264096D01*
X73241Y269709D02*
X65106Y269709D01*
X73241Y269709D02*
X73241Y273776D01*
X71885Y275132D01*
X69174Y275132D01*
X67818Y273776D01*
X67818Y269709D01*
X73241Y278129D02*
X73241Y279484D01*
X71885Y279484D01*
X71885Y278129D01*
X73241Y278129D01*
X69174Y278129D02*
X69174Y279484D01*
X67818Y279484D01*
X67818Y278129D01*
X69174Y278129D01*
X67818Y282338D02*
X75953Y287762D01*
X75953Y296181D02*
X67818Y290758D01*
X65106Y301889D02*
X65106Y303245D01*
X66462Y304601D01*
X73241Y304601D01*
X73241Y300533D01*
X71885Y299178D01*
X69174Y299178D01*
X67818Y300533D01*
X67818Y304601D01*
X73241Y307597D02*
X73241Y308953D01*
X67818Y308953D01*
X67818Y307597D02*
X67818Y310309D01*
X75953Y308953D02*
X77309Y308953D01*
X74597Y314566D02*
X69174Y314566D01*
X67818Y315922D01*
X73241Y315922D02*
X73241Y313210D01*
X75953Y318823D02*
X67818Y318823D01*
X71885Y318823D02*
X73241Y320179D01*
X73241Y322891D01*
X71885Y324247D01*
X67818Y324247D01*
X69174Y327243D02*
X73241Y327243D01*
X69174Y327243D02*
X67818Y328599D01*
X67818Y332666D01*
X73241Y332666D01*
X75953Y335663D02*
X67818Y335663D01*
X67818Y339730D01*
X69174Y341086D01*
X71885Y341086D01*
X73241Y339730D01*
X73241Y335663D01*
X69174Y344082D02*
X67818Y344082D01*
X69174Y344082D02*
X69174Y345438D01*
X67818Y345438D01*
X67818Y344082D01*
X73241Y349648D02*
X73241Y353716D01*
X73241Y349648D02*
X71885Y348292D01*
X69174Y348292D01*
X67818Y349648D01*
X67818Y353716D01*
X67818Y358068D02*
X67818Y360779D01*
X69174Y362135D01*
X71885Y362135D01*
X73241Y360779D01*
X73241Y358068D01*
X71885Y356712D01*
X69174Y356712D01*
X67818Y358068D01*
X67818Y365132D02*
X73241Y365132D01*
X73241Y366487D01*
X71885Y367843D01*
X67818Y367843D01*
X71885Y367843D02*
X73241Y369199D01*
X71885Y370555D01*
X67818Y370555D01*
X67818Y373551D02*
X75953Y378975D01*
X67818Y381971D02*
X67818Y386038D01*
X69174Y387394D01*
X70530Y386038D01*
X70530Y383327D01*
X71885Y381971D01*
X73241Y383327D01*
X73241Y387394D01*
X73241Y390391D02*
X67818Y393102D01*
X73241Y395814D01*
X67818Y400166D02*
X67818Y402878D01*
X67818Y400166D02*
X69174Y398810D01*
X71885Y398810D01*
X73241Y400166D01*
X73241Y402878D01*
X71885Y404233D01*
X70530Y404233D01*
X70530Y398810D01*
X67818Y407230D02*
X73241Y407230D01*
X73241Y411297D01*
X71885Y412653D01*
X67818Y412653D01*
X65106Y415650D02*
X73241Y415650D01*
X73241Y419717D01*
X71885Y421073D01*
X69174Y421073D01*
X67818Y419717D01*
X67818Y415650D01*
X67818Y425425D02*
X67818Y428137D01*
X67818Y425425D02*
X69174Y424069D01*
X71885Y424069D01*
X73241Y425425D01*
X73241Y428137D01*
X71885Y429492D01*
X70530Y429492D01*
X70530Y424069D01*
X69174Y433845D02*
X74597Y433845D01*
X69174Y433845D02*
X67818Y435200D01*
X73241Y435200D02*
X73241Y432489D01*
X67818Y439458D02*
X67818Y442169D01*
X67818Y439458D02*
X69174Y438102D01*
X71885Y438102D01*
X73241Y439458D01*
X73241Y442169D01*
X71885Y443525D01*
X70530Y443525D01*
X70530Y438102D01*
X67818Y446522D02*
X73241Y446522D01*
X70530Y446522D02*
X73241Y449233D01*
X73241Y450589D01*
X67818Y453538D02*
X67818Y457605D01*
X69174Y458961D01*
X70530Y457605D01*
X70530Y454894D01*
X71885Y453538D01*
X73241Y454894D01*
X73241Y458961D01*
X67818Y463313D02*
X67818Y466025D01*
X67818Y463313D02*
X69174Y461958D01*
X71885Y461958D01*
X73241Y463313D01*
X73241Y466025D01*
X71885Y467381D01*
X70530Y467381D01*
X70530Y461958D01*
X73241Y470377D02*
X67818Y470377D01*
X73241Y470377D02*
X73241Y474445D01*
X71885Y475801D01*
X67818Y475801D01*
X73241Y478797D02*
X75953Y481509D01*
X67818Y481509D01*
X67818Y484220D02*
X67818Y478797D01*
X69174Y487217D02*
X67818Y488572D01*
X67818Y491284D01*
X69174Y492640D01*
X74597Y492640D01*
X75953Y491284D01*
X75953Y488572D01*
X74597Y487217D01*
X73241Y487217D01*
X71885Y488572D01*
X71885Y492640D01*
X74597Y498348D02*
X75953Y501060D01*
X74597Y498348D02*
X71885Y495636D01*
X69174Y495636D01*
X67818Y496992D01*
X67818Y499704D01*
X69174Y501060D01*
X70530Y501060D01*
X71885Y499704D01*
X71885Y495636D01*
X75953Y504056D02*
X75953Y509479D01*
X75953Y504056D02*
X71885Y504056D01*
X73241Y506768D01*
X73241Y508123D01*
X71885Y509479D01*
X69174Y509479D01*
X67818Y508123D01*
X67818Y505412D01*
X69174Y504056D01*
D12*
X82550Y299720D02*
X91448Y299720D01*
X88482Y301203D02*
X86999Y299720D01*
X88482Y301203D02*
X88482Y304169D01*
X86999Y305652D01*
X82550Y305652D01*
X84033Y310558D02*
X89965Y310558D01*
X84033Y310558D02*
X82550Y312041D01*
X88482Y312041D02*
X88482Y309075D01*
X89965Y316795D02*
X84033Y316795D01*
X82550Y318278D01*
X88482Y318278D02*
X88482Y315312D01*
X88482Y321549D02*
X79584Y321549D01*
X88482Y321549D02*
X88482Y325998D01*
X86999Y327480D01*
X84033Y327480D01*
X82550Y325998D01*
X82550Y321549D01*
X88482Y330904D02*
X88482Y332387D01*
X86999Y332387D01*
X86999Y330904D01*
X88482Y330904D01*
X84033Y330904D02*
X84033Y332387D01*
X82550Y332387D01*
X82550Y330904D01*
X84033Y330904D01*
X82550Y335582D02*
X91448Y341513D01*
X91448Y350868D02*
X82550Y344937D01*
X84033Y354292D02*
X88482Y354292D01*
X84033Y354292D02*
X82550Y355775D01*
X84033Y357258D01*
X82550Y358741D01*
X84033Y360224D01*
X88482Y360224D01*
X88482Y363647D02*
X84033Y363647D01*
X82550Y365130D01*
X84033Y366613D01*
X82550Y368096D01*
X84033Y369579D01*
X88482Y369579D01*
X88482Y373002D02*
X84033Y373002D01*
X82550Y374485D01*
X84033Y375968D01*
X82550Y377451D01*
X84033Y378934D01*
X88482Y378934D01*
X84033Y382357D02*
X82550Y382357D01*
X84033Y382357D02*
X84033Y383840D01*
X82550Y383840D01*
X82550Y382357D01*
X91448Y387035D02*
X91448Y388518D01*
X82550Y388518D01*
X82550Y387035D02*
X82550Y390001D01*
X82550Y394755D02*
X82550Y397721D01*
X82550Y394755D02*
X84033Y393272D01*
X86999Y393272D01*
X88482Y394755D01*
X88482Y397721D01*
X86999Y399204D01*
X85516Y399204D01*
X85516Y393272D01*
X82550Y402627D02*
X88482Y402627D01*
X88482Y404110D01*
X86999Y405593D01*
X82550Y405593D01*
X86999Y405593D02*
X88482Y407076D01*
X86999Y408559D01*
X82550Y408559D01*
X82550Y413465D02*
X82550Y416431D01*
X84033Y417914D01*
X86999Y417914D01*
X88482Y416431D01*
X88482Y413465D01*
X86999Y411982D01*
X84033Y411982D01*
X82550Y413465D01*
X82550Y421337D02*
X88482Y421337D01*
X88482Y425786D01*
X86999Y427269D01*
X82550Y427269D01*
X89965Y433658D02*
X91448Y436624D01*
X89965Y433658D02*
X86999Y430693D01*
X84033Y430693D01*
X82550Y432176D01*
X82550Y435141D01*
X84033Y436624D01*
X85516Y436624D01*
X86999Y435141D01*
X86999Y430693D01*
X82550Y444497D02*
X91448Y444497D01*
X86999Y440048D01*
X86999Y445980D01*
X84033Y449403D02*
X82550Y449403D01*
X84033Y449403D02*
X84033Y450886D01*
X82550Y450886D01*
X82550Y449403D01*
X88482Y455563D02*
X88482Y460012D01*
X88482Y455563D02*
X86999Y454081D01*
X84033Y454081D01*
X82550Y455563D01*
X82550Y460012D01*
X82550Y464919D02*
X82550Y467885D01*
X84033Y469367D01*
X86999Y469367D01*
X88482Y467885D01*
X88482Y464919D01*
X86999Y463436D01*
X84033Y463436D01*
X82550Y464919D01*
X82550Y472791D02*
X88482Y472791D01*
X88482Y474274D01*
X86999Y475757D01*
X82550Y475757D01*
X86999Y475757D02*
X88482Y477240D01*
X86999Y478723D01*
X82550Y478723D01*
X73242Y-22651D02*
X68793Y-22651D01*
X67310Y-21168D01*
X68793Y-19685D01*
X67310Y-18203D01*
X68793Y-16720D01*
X73242Y-16720D01*
X67310Y-11813D02*
X67310Y-8847D01*
X67310Y-11813D02*
X68793Y-13296D01*
X71759Y-13296D01*
X73242Y-11813D01*
X73242Y-8847D01*
X71759Y-7364D01*
X70276Y-7364D01*
X70276Y-13296D01*
X67310Y-3941D02*
X73242Y-3941D01*
X70276Y-3941D02*
X73242Y-975D01*
X73242Y508D01*
X67310Y5338D02*
X67310Y8304D01*
X67310Y5338D02*
X68793Y3855D01*
X71759Y3855D01*
X73242Y5338D01*
X73242Y8304D01*
X71759Y9787D01*
X70276Y9787D01*
X70276Y3855D01*
X73242Y14693D02*
X73242Y17659D01*
X71759Y19142D01*
X67310Y19142D01*
X67310Y14693D01*
X68793Y13210D01*
X70276Y14693D01*
X70276Y19142D01*
X76208Y22565D02*
X76208Y24048D01*
X67310Y24048D01*
X67310Y22565D02*
X67310Y25531D01*
X76208Y28802D02*
X76208Y30285D01*
X67310Y30285D01*
X67310Y28802D02*
X67310Y31768D01*
X64344Y38005D02*
X64344Y39488D01*
X65827Y40971D01*
X73242Y40971D01*
X73242Y36522D01*
X71759Y35039D01*
X68793Y35039D01*
X67310Y36522D01*
X67310Y40971D01*
X67310Y45877D02*
X67310Y48843D01*
X67310Y45877D02*
X68793Y44394D01*
X71759Y44394D01*
X73242Y45877D01*
X73242Y48843D01*
X71759Y50326D01*
X70276Y50326D01*
X70276Y44394D01*
X67310Y55232D02*
X67310Y58198D01*
X67310Y55232D02*
X68793Y53749D01*
X71759Y53749D01*
X73242Y55232D01*
X73242Y58198D01*
X71759Y59681D01*
X70276Y59681D01*
X70276Y53749D01*
X67310Y63105D02*
X76208Y63105D01*
X70276Y63105D02*
X67310Y67553D01*
X70276Y63105D02*
X73242Y67553D01*
X67310Y70901D02*
X67310Y75349D01*
X68793Y76832D01*
X70276Y75349D01*
X70276Y72383D01*
X71759Y70901D01*
X73242Y72383D01*
X73242Y76832D01*
X68793Y80256D02*
X67310Y80256D01*
X68793Y80256D02*
X68793Y81739D01*
X67310Y81739D01*
X67310Y80256D01*
X68793Y84933D02*
X73242Y84933D01*
X68793Y84933D02*
X67310Y86416D01*
X68793Y87899D01*
X67310Y89382D01*
X68793Y90865D01*
X73242Y90865D01*
X67310Y95771D02*
X67310Y98737D01*
X68793Y100220D01*
X71759Y100220D01*
X73242Y98737D01*
X73242Y95771D01*
X71759Y94289D01*
X68793Y94289D01*
X67310Y95771D01*
X67310Y103644D02*
X73242Y103644D01*
X70276Y103644D02*
X73242Y106610D01*
X73242Y108092D01*
X76208Y117371D02*
X67310Y117371D01*
X67310Y112923D01*
X68793Y111440D01*
X71759Y111440D01*
X73242Y112923D01*
X73242Y117371D01*
X73242Y120795D02*
X64344Y120795D01*
X73242Y120795D02*
X73242Y125244D01*
X71759Y126727D01*
X68793Y126727D01*
X67310Y125244D01*
X67310Y120795D01*
X67310Y130150D02*
X73242Y130150D01*
X70276Y130150D02*
X73242Y133116D01*
X73242Y134599D01*
X67310Y139429D02*
X67310Y142395D01*
X67310Y139429D02*
X68793Y137946D01*
X71759Y137946D01*
X73242Y139429D01*
X73242Y142395D01*
X71759Y143878D01*
X70276Y143878D01*
X70276Y137946D01*
X67310Y147301D02*
X67310Y151750D01*
X68793Y153233D01*
X70276Y151750D01*
X70276Y148784D01*
X71759Y147301D01*
X73242Y148784D01*
X73242Y153233D01*
X67310Y156656D02*
X67310Y161105D01*
X68793Y162588D01*
X70276Y161105D01*
X70276Y158139D01*
X71759Y156656D01*
X73242Y158139D01*
X73242Y162588D01*
X68793Y166012D02*
X67310Y166012D01*
X68793Y166012D02*
X68793Y167494D01*
X67310Y167494D01*
X67310Y166012D01*
X73242Y172172D02*
X73242Y176621D01*
X73242Y172172D02*
X71759Y170689D01*
X68793Y170689D01*
X67310Y172172D01*
X67310Y176621D01*
X67310Y181527D02*
X67310Y184493D01*
X68793Y185976D01*
X71759Y185976D01*
X73242Y184493D01*
X73242Y181527D01*
X71759Y180044D01*
X68793Y180044D01*
X67310Y181527D01*
X67310Y189400D02*
X73242Y189400D01*
X73242Y190882D01*
X71759Y192365D01*
X67310Y192365D01*
X71759Y192365D02*
X73242Y193848D01*
X71759Y195331D01*
X67310Y195331D01*
X184333Y509000D02*
X209733Y509000D01*
X184333Y509000D02*
X184333Y1000D01*
X209733Y1000D01*
X209733Y509000D01*
X57333Y509000D02*
X31933Y509000D01*
X31933Y1000D01*
X57333Y1000D01*
X57333Y509000D01*
D13*
X529336Y548213D02*
X529336Y561686D01*
X522599Y561686D01*
X520354Y559441D01*
X520354Y554950D01*
X522599Y552704D01*
X529336Y552704D01*
X515303Y566178D02*
X513058Y566178D01*
X513058Y552704D01*
X515303Y552704D02*
X510812Y552704D01*
X503702Y561686D02*
X499211Y561686D01*
X496966Y559441D01*
X496966Y552704D01*
X503702Y552704D01*
X505948Y554950D01*
X503702Y557195D01*
X496966Y557195D01*
X489670Y561686D02*
X482933Y561686D01*
X489670Y561686D02*
X491915Y559441D01*
X491915Y554950D01*
X489670Y552704D01*
X482933Y552704D01*
X475637Y552704D02*
X471146Y552704D01*
X475637Y552704D02*
X477882Y554950D01*
X477882Y559441D01*
X475637Y561686D01*
X471146Y561686D01*
X468900Y559441D01*
X468900Y557195D01*
X477882Y557195D01*
X463850Y552704D02*
X463850Y561686D01*
X461604Y561686D01*
X459359Y559441D01*
X459359Y552704D01*
X459359Y559441D02*
X457113Y561686D01*
X454867Y559441D01*
X454867Y552704D01*
X447571Y552704D02*
X443080Y552704D01*
X447571Y552704D02*
X449817Y554950D01*
X449817Y559441D01*
X447571Y561686D01*
X443080Y561686D01*
X440835Y559441D01*
X440835Y557195D01*
X449817Y557195D01*
X435784Y552704D02*
X435784Y561686D01*
X429047Y561686D01*
X426802Y559441D01*
X426802Y552704D01*
X419506Y554950D02*
X419506Y563932D01*
X419506Y554950D02*
X417260Y552704D01*
X417260Y561686D02*
X421751Y561686D01*
X398363Y552704D02*
X391627Y552704D01*
X389381Y554950D01*
X391627Y557195D01*
X396118Y557195D01*
X398363Y559441D01*
X396118Y561686D01*
X389381Y561686D01*
X382085Y552704D02*
X377594Y552704D01*
X375348Y554950D01*
X375348Y559441D01*
X377594Y561686D01*
X382085Y561686D01*
X384331Y559441D01*
X384331Y554950D01*
X382085Y552704D01*
X370298Y566178D02*
X368052Y566178D01*
X368052Y552704D01*
X365807Y552704D02*
X370298Y552704D01*
X351960Y552704D02*
X351960Y566178D01*
X351960Y552704D02*
X358697Y552704D01*
X360943Y554950D01*
X360943Y559441D01*
X358697Y561686D01*
X351960Y561686D01*
X344664Y552704D02*
X340173Y552704D01*
X344664Y552704D02*
X346910Y554950D01*
X346910Y559441D01*
X344664Y561686D01*
X340173Y561686D01*
X337928Y559441D01*
X337928Y557195D01*
X346910Y557195D01*
X332877Y552704D02*
X332877Y561686D01*
X332877Y557195D02*
X328386Y561686D01*
X326140Y561686D01*
X307150Y552704D02*
X300414Y552704D01*
X298168Y554950D01*
X300414Y557195D01*
X304905Y557195D01*
X307150Y559441D01*
X304905Y561686D01*
X298168Y561686D01*
X293118Y561686D02*
X290872Y561686D01*
X290872Y552704D01*
X293118Y552704D02*
X288626Y552704D01*
X290872Y566178D02*
X290872Y568423D01*
X274780Y566178D02*
X274780Y552704D01*
X281517Y552704D01*
X283762Y554950D01*
X283762Y559441D01*
X281517Y561686D01*
X274780Y561686D01*
X267484Y552704D02*
X262993Y552704D01*
X267484Y552704D02*
X269730Y554950D01*
X269730Y559441D01*
X267484Y561686D01*
X262993Y561686D01*
X260747Y559441D01*
X260747Y557195D01*
X269730Y557195D01*
M02*
