G04 EAGLE Gerber RS-274X export*
G75*
%MOMM*%
%FSLAX34Y34*%
%LPD*%
%INSolderpaste Top*%
%IPPOS*%
%AMOC8*
5,1,8,0,0,1.08239X$1,22.5*%
G01*
%ADD10R,1.397000X1.092200*%
%ADD11R,2.032000X0.660400*%
%ADD12C,0.177800*%
%ADD13R,1.092200X1.397000*%


D10*
X91075Y301681D03*
X91075Y282885D03*
X116475Y301681D03*
X116475Y282885D03*
D11*
X83566Y131763D03*
X145034Y131763D03*
X83566Y119063D03*
X83566Y106363D03*
X145034Y119063D03*
X145034Y106363D03*
X83566Y93663D03*
X145034Y93663D03*
X83566Y80963D03*
X83566Y68263D03*
X145034Y80963D03*
X145034Y68263D03*
X83566Y55563D03*
X145034Y55563D03*
D12*
X22571Y561686D02*
X15835Y561686D01*
X13589Y559441D01*
X13589Y554950D01*
X15835Y552704D01*
X22571Y552704D01*
X27622Y552704D02*
X27622Y561686D01*
X27622Y557195D02*
X32113Y561686D01*
X34359Y561686D01*
X41561Y552704D02*
X46053Y552704D01*
X41561Y552704D02*
X39316Y554950D01*
X39316Y559441D01*
X41561Y561686D01*
X46053Y561686D01*
X48298Y559441D01*
X48298Y557195D01*
X39316Y557195D01*
X55594Y561686D02*
X60085Y561686D01*
X62331Y559441D01*
X62331Y552704D01*
X55594Y552704D01*
X53349Y554950D01*
X55594Y557195D01*
X62331Y557195D01*
X67381Y552704D02*
X67381Y561686D01*
X69627Y561686D01*
X71872Y559441D01*
X71872Y552704D01*
X71872Y559441D02*
X74118Y561686D01*
X76364Y559441D01*
X76364Y552704D01*
X97692Y561686D02*
X104429Y561686D01*
X97692Y561686D02*
X95447Y559441D01*
X95447Y554950D01*
X97692Y552704D01*
X104429Y552704D01*
X111725Y552704D02*
X116216Y552704D01*
X118462Y554950D01*
X118462Y559441D01*
X116216Y561686D01*
X111725Y561686D01*
X109480Y559441D01*
X109480Y554950D01*
X111725Y552704D01*
X123512Y552704D02*
X123512Y561686D01*
X125758Y561686D01*
X128004Y559441D01*
X128004Y552704D01*
X128004Y559441D02*
X130249Y561686D01*
X132495Y559441D01*
X132495Y552704D01*
X137545Y548213D02*
X137545Y561686D01*
X144282Y561686D01*
X146528Y559441D01*
X146528Y554950D01*
X144282Y552704D01*
X137545Y552704D01*
X153824Y552704D02*
X158315Y552704D01*
X160560Y554950D01*
X160560Y559441D01*
X158315Y561686D01*
X153824Y561686D01*
X151578Y559441D01*
X151578Y554950D01*
X153824Y552704D01*
X165611Y552704D02*
X165611Y561686D01*
X172348Y561686D01*
X174593Y559441D01*
X174593Y552704D01*
X181889Y552704D02*
X186380Y552704D01*
X181889Y552704D02*
X179644Y554950D01*
X179644Y559441D01*
X181889Y561686D01*
X186380Y561686D01*
X188626Y559441D01*
X188626Y557195D01*
X179644Y557195D01*
X193676Y552704D02*
X193676Y561686D01*
X200413Y561686D01*
X202659Y559441D01*
X202659Y552704D01*
X209955Y554950D02*
X209955Y563932D01*
X209955Y554950D02*
X212200Y552704D01*
X212200Y561686D02*
X207709Y561686D01*
X231097Y552704D02*
X237834Y552704D01*
X240079Y554950D01*
X237834Y557195D01*
X233343Y557195D01*
X231097Y559441D01*
X233343Y561686D01*
X240079Y561686D01*
X245130Y561686D02*
X247375Y561686D01*
X247375Y552704D01*
X245130Y552704D02*
X249621Y552704D01*
X247375Y566178D02*
X247375Y568423D01*
X263467Y566178D02*
X263467Y552704D01*
X256731Y552704D01*
X254485Y554950D01*
X254485Y559441D01*
X256731Y561686D01*
X263467Y561686D01*
X270763Y552704D02*
X275255Y552704D01*
X270763Y552704D02*
X268518Y554950D01*
X268518Y559441D01*
X270763Y561686D01*
X275255Y561686D01*
X277500Y559441D01*
X277500Y557195D01*
X268518Y557195D01*
D13*
X146558Y151765D03*
X127762Y151765D03*
M02*
