G04 EAGLE Gerber RS-274X export*
G75*
%MOMM*%
%FSLAX34Y34*%
%LPD*%
%INSoldermask Top*%
%IPPOS*%
%AMOC8*
5,1,8,0,0,1.08239X$1,22.5*%
G01*
%ADD10C,0.203200*%
%ADD11R,1.371600X1.371600*%
%ADD12C,1.371600*%
%ADD13R,1.208000X1.208000*%
%ADD14C,1.208000*%
%ADD15R,1.549400X1.244600*%
%ADD16R,2.184400X0.812800*%
%ADD17C,0.177800*%
%ADD18R,1.244600X1.549400*%
%ADD19C,1.200000*%
%ADD20C,1.524000*%
%ADD21C,1.371600*%


D10*
X239745Y24146D02*
X247880Y24146D01*
X245169Y26858D01*
X247880Y29569D01*
X239745Y29569D01*
X247880Y34857D02*
X247880Y37569D01*
X247880Y34857D02*
X246524Y33501D01*
X243813Y33501D01*
X242457Y34857D01*
X242457Y37569D01*
X243813Y38924D01*
X245169Y38924D01*
X245169Y33501D01*
X241101Y44212D02*
X238390Y44212D01*
X241101Y44212D02*
X242457Y42856D01*
X242457Y47534D02*
X247880Y47534D01*
X245169Y47534D02*
X242457Y50246D01*
X242457Y51601D01*
X247880Y56686D02*
X247880Y59397D01*
X247880Y56686D02*
X246524Y55330D01*
X243813Y55330D01*
X242457Y56686D01*
X242457Y59397D01*
X243813Y60753D01*
X245169Y60753D01*
X245169Y55330D01*
X247880Y74040D02*
X242457Y74040D01*
X239745Y76752D01*
X242457Y79464D01*
X247880Y79464D01*
X243813Y79464D02*
X243813Y74040D01*
X239745Y83396D02*
X239745Y84751D01*
X247880Y84751D01*
X247880Y83396D02*
X247880Y86107D01*
X239745Y89632D02*
X239745Y90988D01*
X247880Y90988D01*
X247880Y89632D02*
X247880Y92344D01*
X239745Y109292D02*
X241101Y110648D01*
X239745Y109292D02*
X239745Y106580D01*
X241101Y105224D01*
X246524Y105224D01*
X247880Y106580D01*
X247880Y109292D01*
X246524Y110648D01*
X243813Y110648D01*
X243813Y107936D01*
X247880Y115935D02*
X247880Y118647D01*
X247880Y115935D02*
X246524Y114579D01*
X243813Y114579D01*
X242457Y115935D01*
X242457Y118647D01*
X243813Y120003D01*
X245169Y120003D01*
X245169Y114579D01*
X247880Y125290D02*
X247880Y128002D01*
X247880Y125290D02*
X246524Y123935D01*
X243813Y123935D01*
X242457Y125290D01*
X242457Y128002D01*
X243813Y129358D01*
X245169Y129358D01*
X245169Y123935D01*
X247880Y133290D02*
X239745Y133290D01*
X245169Y133290D02*
X247880Y137357D01*
X245169Y133290D02*
X242457Y137357D01*
X247880Y141086D02*
X247880Y145153D01*
X246524Y146509D01*
X245169Y145153D01*
X245169Y142442D01*
X243813Y141086D01*
X242457Y142442D01*
X242457Y146509D01*
D11*
X21138Y496300D03*
D12*
X21138Y470900D03*
X21138Y445500D03*
X21138Y420100D03*
X21138Y394700D03*
X21138Y369300D03*
X21138Y343900D03*
X21138Y318500D03*
X21138Y293100D03*
X21138Y267700D03*
X21138Y242300D03*
X21138Y216900D03*
X21138Y191500D03*
X21138Y166100D03*
X21138Y140700D03*
X21138Y115300D03*
X21138Y89900D03*
X21138Y64500D03*
X21138Y39100D03*
X21138Y13700D03*
X173538Y13700D03*
X173538Y39100D03*
X173538Y64500D03*
X173538Y89900D03*
X173538Y115300D03*
X173538Y140700D03*
X173538Y166100D03*
X173538Y191500D03*
X173538Y216900D03*
X173538Y242300D03*
X173538Y267700D03*
X173538Y293100D03*
X173538Y318500D03*
X173538Y343900D03*
X173538Y369300D03*
X173538Y394700D03*
X173538Y420100D03*
X173538Y445500D03*
X173538Y470900D03*
X173538Y496300D03*
D13*
X44633Y496300D03*
D14*
X44633Y470900D03*
X44633Y445500D03*
X44633Y420100D03*
X44633Y394700D03*
X44633Y369300D03*
X44633Y343900D03*
X44633Y318500D03*
X44633Y293100D03*
X44633Y267700D03*
X44633Y242300D03*
X44633Y216900D03*
X44633Y191500D03*
X44633Y166100D03*
X44633Y140700D03*
X44633Y115300D03*
X44633Y89900D03*
X44633Y64500D03*
X44633Y39100D03*
X44633Y13700D03*
X197033Y13700D03*
X197033Y39100D03*
X197033Y64500D03*
X197033Y89900D03*
X197033Y115300D03*
X197033Y140700D03*
X197033Y166100D03*
X197033Y191500D03*
X197033Y216900D03*
X197033Y242300D03*
X197033Y267700D03*
X197033Y293100D03*
X197033Y318500D03*
X197033Y343900D03*
X197033Y369300D03*
X197033Y394700D03*
X197033Y420100D03*
X197033Y445500D03*
X197033Y470900D03*
X197033Y496300D03*
D15*
X91075Y301681D03*
X91075Y282885D03*
X116475Y301681D03*
X116475Y282885D03*
D16*
X83566Y131763D03*
X145034Y131763D03*
X83566Y119063D03*
X83566Y106363D03*
X145034Y119063D03*
X145034Y106363D03*
X83566Y93663D03*
X145034Y93663D03*
X83566Y80963D03*
X83566Y68263D03*
X145034Y80963D03*
X145034Y68263D03*
X83566Y55563D03*
X145034Y55563D03*
D17*
X20326Y552704D02*
X13589Y552704D01*
X20326Y552704D02*
X22571Y554950D01*
X20326Y557195D01*
X15835Y557195D01*
X13589Y559441D01*
X15835Y561686D01*
X22571Y561686D01*
X29867Y563932D02*
X29867Y554950D01*
X32113Y552704D01*
X32113Y561686D02*
X27622Y561686D01*
X39223Y552704D02*
X43714Y552704D01*
X45959Y554950D01*
X45959Y559441D01*
X43714Y561686D01*
X39223Y561686D01*
X36977Y559441D01*
X36977Y554950D01*
X39223Y552704D01*
X51010Y548213D02*
X51010Y561686D01*
X57747Y561686D01*
X59992Y559441D01*
X59992Y554950D01*
X57747Y552704D01*
X51010Y552704D01*
X65043Y552704D02*
X65043Y561686D01*
X67288Y561686D01*
X69534Y559441D01*
X69534Y552704D01*
X69534Y559441D02*
X71779Y561686D01*
X74025Y559441D01*
X74025Y552704D01*
X81321Y561686D02*
X85812Y561686D01*
X88058Y559441D01*
X88058Y552704D01*
X81321Y552704D01*
X79075Y554950D01*
X81321Y557195D01*
X88058Y557195D01*
X93108Y552704D02*
X99845Y552704D01*
X102090Y554950D01*
X99845Y557195D01*
X95354Y557195D01*
X93108Y559441D01*
X95354Y561686D01*
X102090Y561686D01*
X107141Y566178D02*
X107141Y552704D01*
X107141Y557195D02*
X113878Y552704D01*
X107141Y557195D02*
X113878Y561686D01*
X135113Y561686D02*
X141850Y561686D01*
X135113Y561686D02*
X132868Y559441D01*
X132868Y554950D01*
X135113Y552704D01*
X141850Y552704D01*
X149146Y552704D02*
X153637Y552704D01*
X155883Y554950D01*
X155883Y559441D01*
X153637Y561686D01*
X149146Y561686D01*
X146900Y559441D01*
X146900Y554950D01*
X149146Y552704D01*
X160933Y552704D02*
X160933Y561686D01*
X163179Y561686D01*
X165424Y559441D01*
X165424Y552704D01*
X165424Y559441D02*
X167670Y561686D01*
X169916Y559441D01*
X169916Y552704D01*
X174966Y548213D02*
X174966Y561686D01*
X181703Y561686D01*
X183948Y559441D01*
X183948Y554950D01*
X181703Y552704D01*
X174966Y552704D01*
X191244Y552704D02*
X195736Y552704D01*
X197981Y554950D01*
X197981Y559441D01*
X195736Y561686D01*
X191244Y561686D01*
X188999Y559441D01*
X188999Y554950D01*
X191244Y552704D01*
X203032Y552704D02*
X203032Y561686D01*
X209768Y561686D01*
X212014Y559441D01*
X212014Y552704D01*
X219310Y552704D02*
X223801Y552704D01*
X219310Y552704D02*
X217064Y554950D01*
X217064Y559441D01*
X219310Y561686D01*
X223801Y561686D01*
X226047Y559441D01*
X226047Y557195D01*
X217064Y557195D01*
X231097Y552704D02*
X231097Y561686D01*
X237834Y561686D01*
X240079Y559441D01*
X240079Y552704D01*
X247375Y554950D02*
X247375Y563932D01*
X247375Y554950D02*
X249621Y552704D01*
X249621Y561686D02*
X245130Y561686D01*
X268518Y552704D02*
X275255Y552704D01*
X277500Y554950D01*
X275255Y557195D01*
X270763Y557195D01*
X268518Y559441D01*
X270763Y561686D01*
X277500Y561686D01*
X282551Y561686D02*
X284796Y561686D01*
X284796Y552704D01*
X282551Y552704D02*
X287042Y552704D01*
X284796Y566178D02*
X284796Y568423D01*
X300888Y566178D02*
X300888Y552704D01*
X294151Y552704D01*
X291906Y554950D01*
X291906Y559441D01*
X294151Y561686D01*
X300888Y561686D01*
X308184Y552704D02*
X312675Y552704D01*
X308184Y552704D02*
X305939Y554950D01*
X305939Y559441D01*
X308184Y561686D01*
X312675Y561686D01*
X314921Y559441D01*
X314921Y557195D01*
X305939Y557195D01*
D18*
X146558Y151765D03*
X127762Y151765D03*
D10*
X106896Y20206D02*
X106896Y5461D01*
X101981Y20206D02*
X111811Y20206D01*
X119874Y20206D02*
X124789Y20206D01*
X119874Y20206D02*
X117417Y17748D01*
X117417Y7918D01*
X119874Y5461D01*
X124789Y5461D01*
X127247Y7918D01*
X127247Y17748D01*
X124789Y20206D01*
X132853Y20206D02*
X132853Y5461D01*
X132853Y20206D02*
X140225Y20206D01*
X142683Y17748D01*
X142683Y12833D01*
X140225Y10376D01*
X132853Y10376D01*
D19*
X223520Y39370D03*
X65405Y446405D03*
D20*
X125730Y472567D02*
X125730Y486283D01*
X100330Y486283D02*
X100330Y472567D01*
X74930Y472567D02*
X74930Y486283D01*
X89535Y259588D02*
X89535Y245872D01*
X114935Y245872D02*
X114935Y259588D01*
X115570Y217678D02*
X115570Y203962D01*
X90170Y203962D02*
X90170Y217678D01*
D21*
X235839Y346710D02*
X248031Y346710D01*
X248031Y295910D02*
X235839Y295910D01*
X235839Y321310D02*
X248031Y321310D01*
X248031Y469265D02*
X235839Y469265D01*
X235839Y418465D02*
X248031Y418465D01*
X248031Y443865D02*
X235839Y443865D01*
X235204Y231140D02*
X247396Y231140D01*
X247396Y180340D02*
X235204Y180340D01*
X235204Y205740D02*
X247396Y205740D01*
M02*
